<svg xmlns="http://www.w3.org/2000/svg" xmlns:xlink="http://www.w3.org/1999/xlink" width="1024" zoomAndPan="magnify" viewBox="0 0 768 767.999994" height="1024" preserveAspectRatio="xMidYMid meet" version="1.0"><defs><clipPath id="4bec1f66f6"><path d="M 354 410 L 431 410 L 431 513.417969 L 354 513.417969 Z M 354 410 " clip-rule="nonzero"/></clipPath><clipPath id="a03bf0e1a9"><path d="M 33.730469 254.667969 L 350 254.667969 L 350 360 L 33.730469 360 Z M 33.730469 254.667969 " clip-rule="nonzero"/></clipPath></defs><path fill="#ebb020" d="M 552.613281 403.542969 C 543.464844 403.542969 544.675781 386.183594 547.742188 376.097656 C 597.085938 372.792969 648.117188 373.496094 700.101562 377.113281 C 705.183594 377.523438 704.378906 390.027344 701.722656 400.9375 C 647.195312 398.25 596.859375 398.664062 552.613281 403.5625 " fill-opacity="1" fill-rule="nonzero"/><path fill="#b62126" d="M 107.984375 334.667969 L 107.984375 485.085938 L 83.96875 485.085938 L 82.902344 436.046875 L 58.914062 436.046875 L 58.914062 485.085938 L 34.59375 485.085938 L 34.59375 372.210938 L 58.914062 359.921875 L 58.914062 409.785156 L 83.96875 409.785156 L 83.96875 346.796875 L 107.992188 334.667969 Z M 199.09375 410.980469 L 220.644531 410.980469 L 220.644531 423.773438 C 224.535156 416.230469 230.5625 409.785156 240.207031 409.785156 C 261.910156 409.785156 269.277344 426.195312 269.128906 445.578125 C 269.128906 445.847656 269.277344 449.210938 269.277344 485.128906 L 249.585938 485.128906 L 249.585938 448.796875 C 249.585938 439.914062 247.839844 427.535156 236.058594 427.535156 C 225.253906 427.535156 220.113281 435.472656 220.113281 450 L 220.257812 485.109375 L 199.09375 485.109375 L 199.09375 410.960938 Z M 311.03125 468.84375 C 299.390625 468.84375 295.355469 456.859375 295.355469 448.117188 C 295.355469 439.375 299.371094 427.390625 311.035156 427.390625 C 322.691406 427.390625 326.707031 439.234375 326.707031 448.117188 C 326.707031 457.007812 322.691406 468.84375 311.03125 468.84375 Z M 326.96875 368.828125 L 326.96875 423.09375 C 323.230469 415.546875 317.054688 409.640625 306.753906 409.640625 C 285.734375 409.640625 275.816406 428.753906 275.816406 447.972656 C 275.816406 467.195312 285.734375 486.59375 306.753906 486.59375 C 316.8125 486.59375 323.230469 480.003906 326.96875 471.796875 L 326.96875 485.113281 L 348.257812 485.113281 L 348.257812 379.609375 L 326.976562 368.820312 Z M 435.652344 410.980469 L 457.214844 410.980469 L 457.214844 425.117188 C 461.101562 414.351562 468.734375 409.785156 477.042969 409.785156 C 485.351562 409.785156 493.785156 416.109375 496.996094 427.140625 C 501.273438 415.175781 509.992188 409.785156 518.429688 409.785156 C 529.410156 409.785156 539.984375 416.917969 539.984375 434.398438 L 539.984375 485.128906 L 520.695312 485.128906 L 520.695312 441.402344 C 520.695312 431.175781 517.75 427.535156 510.917969 427.535156 C 505.035156 427.535156 498.601562 435.203125 498.601562 444.894531 L 498.601562 485.128906 L 479.179688 485.128906 L 479.179688 441.402344 C 479.179688 431.589844 475.296875 427.535156 468.996094 427.535156 C 462.703125 427.535156 457.359375 437.082031 457.210938 448.800781 L 457.210938 485.132812 L 435.660156 485.132812 L 435.660156 410.976562 Z M 583.636719 469.238281 C 571.046875 469.238281 567.835938 456.320312 567.835938 447.433594 C 567.835938 438.550781 571.992188 426.707031 583.636719 426.707031 C 595.273438 426.707031 599.574219 438.695312 599.574219 447.433594 C 599.574219 456.175781 595.421875 469.238281 583.636719 469.238281 Z M 599.164062 411.105469 L 599.164062 423.210938 C 596.222656 414.328125 589.519531 408.832031 579.210938 408.832031 C 558.046875 408.832031 548.011719 428.074219 548.011719 447.433594 C 548.011719 466.796875 558.046875 487.128906 579.210938 487.128906 C 589.003906 487.128906 595.273438 480.121094 599.164062 472.460938 L 599.164062 485.019531 L 620.722656 485.019531 L 620.722656 411.105469 Z M 151.308594 469.238281 C 138.714844 469.238281 135.507812 456.320312 135.507812 447.433594 C 135.507812 438.550781 139.664062 426.707031 151.308594 426.707031 C 162.945312 426.707031 167.246094 438.695312 167.246094 447.433594 C 167.246094 456.175781 163.09375 469.238281 151.308594 469.238281 Z M 166.835938 411.105469 L 166.835938 423.210938 C 163.894531 414.328125 157.191406 408.832031 146.882812 408.832031 C 125.71875 408.832031 115.679688 428.074219 115.679688 447.433594 C 115.679688 466.796875 125.71875 487.128906 146.878906 487.128906 C 156.675781 487.128906 162.945312 480.121094 166.835938 472.460938 L 166.835938 485.019531 L 188.390625 485.019531 L 188.390625 411.105469 Z M 682.722656 485.027344 L 682.722656 448.78125 C 682.722656 439.890625 680.992188 427.515625 669.207031 427.515625 C 659.972656 427.515625 653.265625 435.449219 653.265625 449.992188 C 653.265625 450.101562 653.351562 472.484375 653.367188 485.027344 L 632.246094 485.027344 L 632.246094 412.058594 L 653.804688 412.058594 L 653.804688 423.757812 C 657.6875 416.210938 663.71875 409.761719 673.363281 409.761719 C 695.0625 409.761719 702.429688 426.171875 702.28125 445.558594 C 702.28125 445.78125 702.386719 457.890625 702.40625 485.027344 Z M 682.722656 485.027344 " fill-opacity="1" fill-rule="nonzero"/><path fill="#3d3e3e" d="M 361.832031 382.589844 L 364.445312 382.589844 L 364.445312 387.34375 L 368.191406 387.34375 L 368.191406 382.589844 L 370.761719 382.589844 L 370.761719 394.804688 L 368.191406 394.804688 L 368.191406 389.738281 L 364.445312 389.738281 L 364.445312 394.804688 L 361.839844 394.804688 L 361.839844 382.589844 Z M 375.390625 388.664062 C 375.390625 391.101562 376.710938 392.675781 378.5 392.675781 C 380.289062 392.675781 381.625 391.101562 381.625 388.664062 C 381.625 386.222656 380.289062 384.652344 378.5 384.652344 C 376.710938 384.652344 375.390625 386.222656 375.390625 388.664062 Z M 378.5 382.378906 C 381.828125 382.378906 384.214844 385.023438 384.214844 388.664062 C 384.214844 392.300781 381.808594 394.945312 378.5 394.945312 C 375.183594 394.945312 372.78125 392.300781 372.78125 388.664062 C 372.78125 385.023438 375.183594 382.378906 378.492188 382.378906 Z M 386.253906 382.589844 L 389.464844 382.589844 L 391.96875 390.480469 L 392.175781 390.480469 L 394.707031 382.589844 L 397.898438 382.589844 L 397.898438 394.804688 L 395.304688 394.804688 L 395.304688 388.109375 L 393.019531 394.804688 L 391.128906 394.804688 L 388.84375 388.109375 L 388.84375 394.804688 L 386.257812 394.804688 L 386.257812 382.589844 Z M 400.8125 382.589844 L 408.214844 382.589844 L 408.214844 384.84375 L 403.28125 384.84375 L 403.28125 387.402344 L 407.070312 387.402344 L 407.070312 389.675781 L 403.28125 389.675781 L 403.28125 392.527344 L 408.214844 392.527344 L 408.214844 394.804688 L 400.8125 394.804688 Z M 418.648438 382.589844 L 416.160156 382.589844 L 416.160156 394.804688 L 418.648438 394.804688 Z M 421.53125 382.589844 L 424.738281 382.589844 L 427.25 390.480469 L 427.453125 390.480469 L 429.984375 382.589844 L 433.171875 382.589844 L 433.171875 394.804688 L 430.582031 394.804688 L 430.582031 388.109375 L 428.292969 394.804688 L 426.40625 394.804688 L 424.144531 388.109375 L 424.144531 394.804688 L 421.53125 394.804688 Z M 438.574219 384.988281 L 438.574219 388.394531 L 441.027344 388.351562 C 442.363281 388.351562 442.691406 387.175781 442.691406 386.574219 C 442.691406 385.5625 441.96875 384.988281 441.003906 384.988281 Z M 436.089844 394.796875 L 436.089844 382.589844 L 441.027344 382.589844 C 442.609375 382.589844 443.597656 383.1875 444.128906 383.765625 C 444.789062 384.492188 445.179688 385.542969 445.179688 386.578125 C 445.179688 388.605469 443.742188 390.75 441.085938 390.75 L 438.554688 390.792969 L 438.554688 394.820312 L 436.070312 394.820312 L 436.089844 394.804688 Z M 449.953125 388.085938 L 452.296875 388.042969 C 454.378906 388.042969 454.480469 384.964844 452.296875 384.964844 L 449.976562 384.964844 L 449.976562 388.085938 Z M 447.363281 394.804688 L 447.363281 382.589844 L 452.277344 382.589844 C 454.539062 382.589844 456.394531 384.078125 456.394531 386.453125 C 456.398438 386.878906 456.335938 387.292969 456.207031 387.695312 C 456.078125 388.101562 455.890625 388.476562 455.640625 388.820312 C 455.394531 389.164062 455.097656 389.460938 454.753906 389.710938 C 454.410156 389.960938 454.039062 390.152344 453.636719 390.28125 L 456.25 394.820312 L 453.035156 394.820312 L 451.269531 390.480469 L 449.953125 390.480469 L 449.953125 394.824219 L 447.363281 394.824219 Z M 460.871094 388.664062 C 460.871094 391.101562 462.191406 392.675781 463.980469 392.675781 C 465.769531 392.675781 467.105469 391.101562 467.105469 388.664062 C 467.105469 386.222656 465.769531 384.652344 463.980469 384.652344 C 462.191406 384.652344 460.878906 386.222656 460.878906 388.664062 Z M 463.980469 382.378906 C 467.316406 382.378906 469.699219 385.023438 469.699219 388.664062 C 469.699219 392.300781 467.292969 394.945312 463.984375 394.945312 C 460.671875 394.945312 458.265625 392.300781 458.265625 388.664062 C 458.265625 385.023438 460.671875 382.378906 463.980469 382.378906 Z M 470.8125 382.589844 L 473.425781 382.589844 L 475.9375 391.828125 L 478.464844 382.589844 L 481.058594 382.589844 L 477.339844 394.804688 L 474.558594 394.804688 Z M 483.046875 382.589844 L 490.453125 382.589844 L 490.453125 384.84375 L 485.519531 384.84375 L 485.519531 387.402344 L 489.300781 387.402344 L 489.300781 389.675781 L 485.519531 389.675781 L 485.519531 392.527344 L 490.453125 392.527344 L 490.453125 394.804688 L 483.046875 394.804688 Z M 493.035156 382.589844 L 496.21875 382.589844 L 498.753906 390.480469 L 498.957031 390.480469 L 501.488281 382.589844 L 504.652344 382.589844 L 504.652344 394.804688 L 502.082031 394.804688 L 502.082031 388.109375 L 499.796875 394.804688 L 497.910156 394.804688 L 495.621094 388.109375 L 495.621094 394.804688 L 493.035156 394.804688 Z M 507.589844 382.589844 L 514.972656 382.589844 L 514.972656 384.84375 L 510.058594 384.84375 L 510.058594 387.402344 L 513.828125 387.402344 L 513.828125 389.675781 L 510.058594 389.675781 L 510.058594 392.527344 L 514.976562 392.527344 L 514.976562 394.804688 L 507.59375 394.804688 L 507.59375 382.589844 Z M 517.546875 394.804688 L 517.546875 382.589844 L 520.015625 382.589844 L 524.746094 390.441406 L 524.746094 382.589844 L 527.320312 382.589844 L 527.320312 394.804688 L 524.585938 394.804688 L 520.136719 387.277344 L 520.136719 394.804688 Z M 529.476562 384.988281 L 529.476562 382.589844 L 538.667969 382.589844 L 538.667969 384.988281 L 535.382812 384.988281 L 535.382812 394.796875 L 532.785156 394.796875 L 532.785156 384.988281 Z M 557.511719 384.988281 L 557.511719 388.394531 L 559.957031 388.351562 C 561.296875 388.351562 561.628906 387.175781 561.628906 386.574219 C 561.628906 385.5625 560.90625 384.988281 559.9375 384.988281 Z M 555.023438 394.796875 L 555.023438 382.589844 L 559.957031 382.589844 C 561.542969 382.589844 562.527344 383.1875 563.0625 383.765625 C 563.765625 384.570312 564.117188 385.507812 564.113281 386.578125 C 564.113281 388.605469 562.675781 390.75 560.019531 390.75 L 557.484375 390.792969 L 557.484375 394.820312 L 555 394.820312 L 555.023438 394.804688 Z M 568.886719 388.085938 L 571.230469 388.042969 C 573.3125 388.042969 573.414062 384.964844 571.230469 384.964844 L 568.910156 384.964844 L 568.910156 388.085938 Z M 566.300781 394.804688 L 566.300781 382.589844 L 571.214844 382.589844 C 573.472656 382.589844 575.328125 384.078125 575.328125 386.453125 C 575.332031 386.878906 575.273438 387.292969 575.144531 387.699219 C 575.015625 388.101562 574.828125 388.476562 574.582031 388.820312 C 574.332031 389.167969 574.039062 389.464844 573.695312 389.714844 C 573.351562 389.960938 572.976562 390.152344 572.574219 390.28125 L 575.179688 394.820312 L 571.976562 394.820312 L 570.207031 390.480469 L 568.886719 390.480469 L 568.886719 394.824219 L 566.300781 394.824219 Z M 579.808594 388.664062 C 579.808594 391.101562 581.125 392.675781 582.914062 392.675781 C 584.703125 392.675781 586.042969 391.101562 586.042969 388.664062 C 586.042969 386.222656 584.703125 384.652344 582.914062 384.652344 C 581.125 384.652344 579.808594 386.222656 579.808594 388.664062 Z M 582.914062 382.378906 C 586.25 382.378906 588.636719 385.023438 588.636719 388.664062 C 588.636719 392.300781 586.226562 394.945312 582.914062 394.945312 C 579.605469 394.945312 577.195312 392.300781 577.195312 388.664062 C 577.195312 385.023438 579.605469 382.378906 582.914062 382.378906 Z M 591.085938 382.589844 L 598.492188 382.589844 L 598.492188 384.84375 L 593.554688 384.84375 L 593.554688 387.753906 L 597.339844 387.753906 L 597.339844 390.152344 L 593.554688 390.152344 L 593.554688 394.804688 L 591.085938 394.804688 Z M 600.648438 382.589844 L 608.050781 382.589844 L 608.050781 384.84375 L 603.113281 384.84375 L 603.113281 387.402344 L 606.902344 387.402344 L 606.902344 389.675781 L 603.113281 389.675781 L 603.113281 392.527344 L 608.050781 392.527344 L 608.050781 394.804688 L 600.648438 394.804688 Z M 610.050781 392.011719 L 611.691406 390.503906 C 611.734375 390.894531 612.597656 392.550781 614.285156 392.550781 C 615.292969 392.550781 615.933594 391.925781 615.933594 391.203125 C 615.933594 390.683594 615.644531 390.234375 613.875 389.53125 C 612.371094 388.949219 610.171875 388.394531 610.171875 385.828125 C 610.171875 383.867188 611.839844 382.460938 614.226562 382.460938 C 616.613281 382.460938 617.699219 383.828125 618.132812 385.171875 L 616.058594 386.304688 C 615.621094 384.859375 614.226562 384.835938 613.296875 384.835938 L 614.160156 384.835938 C 613.238281 384.835938 612.742188 385.269531 612.742188 385.828125 C 612.742188 386.347656 612.90625 386.71875 614.636719 387.300781 C 616.136719 387.796875 618.503906 388.539062 618.503906 391.179688 C 618.503906 393.230469 616.839844 394.921875 614.53125 394.921875 L 613.773438 394.921875 C 612.042969 394.777344 610.539062 393.726562 610.050781 392.027344 M 620.417969 392.011719 L 622.058594 390.503906 C 622.101562 390.894531 622.964844 392.550781 624.652344 392.550781 C 625.660156 392.550781 626.300781 391.925781 626.300781 391.203125 C 626.300781 390.683594 626.011719 390.234375 624.242188 389.53125 C 622.738281 388.949219 620.539062 388.394531 620.539062 385.828125 C 620.539062 383.867188 622.207031 382.460938 624.59375 382.460938 C 626.980469 382.460938 628.066406 383.828125 628.5 385.171875 L 626.425781 386.304688 C 626.011719 384.859375 624.59375 384.835938 623.664062 384.835938 L 624.527344 384.835938 C 623.605469 384.835938 623.109375 385.269531 623.109375 385.828125 C 623.109375 386.347656 623.277344 386.71875 625.003906 387.300781 C 626.503906 387.796875 628.871094 388.539062 628.871094 391.179688 C 628.871094 393.230469 627.207031 394.921875 624.898438 394.921875 L 624.140625 394.921875 C 622.410156 394.777344 620.914062 393.726562 620.417969 392.027344 M 633.78125 382.589844 L 631.289062 382.589844 L 631.289062 394.804688 L 633.78125 394.804688 Z M 638.785156 388.664062 C 638.785156 391.101562 640.101562 392.675781 641.890625 392.675781 C 643.679688 392.675781 645.015625 391.101562 645.015625 388.664062 C 645.015625 386.222656 643.679688 384.652344 641.890625 384.652344 C 640.101562 384.652344 638.785156 386.222656 638.785156 388.664062 Z M 641.890625 382.378906 C 645.21875 382.378906 647.605469 385.023438 647.605469 388.664062 C 647.605469 392.300781 645.203125 394.945312 641.890625 394.945312 C 638.574219 394.945312 636.171875 392.300781 636.171875 388.664062 C 636.171875 385.023438 638.574219 382.378906 641.890625 382.378906 Z M 650.074219 394.804688 L 650.074219 382.589844 L 652.542969 382.589844 L 657.25 390.441406 L 657.25 382.589844 L 659.820312 382.589844 L 659.820312 394.804688 L 657.089844 394.804688 L 652.667969 387.277344 L 652.667969 394.804688 Z M 668.378906 389.800781 L 667.144531 385.542969 L 665.890625 389.800781 Z M 665.851562 382.609375 L 665.851562 382.566406 L 668.445312 382.566406 L 672.414062 394.78125 L 669.824219 394.78125 L 669.019531 392.03125 L 665.230469 392.03125 L 664.429688 394.78125 L 661.835938 394.78125 L 665.851562 382.589844 Z M 674.433594 394.804688 L 674.433594 382.589844 L 676.882812 382.589844 L 676.882812 392.398438 L 681.261719 392.398438 L 681.261719 394.804688 Z M 683.132812 392.011719 L 684.777344 390.503906 C 684.820312 390.894531 685.679688 392.550781 687.367188 392.550781 C 688.375 392.550781 689.015625 391.925781 689.015625 391.203125 C 689.015625 390.683594 688.726562 390.234375 686.957031 389.53125 C 685.453125 388.949219 683.257812 388.394531 683.257812 385.828125 C 683.257812 383.867188 684.921875 382.460938 687.308594 382.460938 C 689.695312 382.460938 690.785156 383.828125 691.214844 385.171875 L 689.136719 386.304688 C 688.703125 384.859375 687.308594 384.835938 686.382812 384.835938 L 687.242188 384.835938 C 686.324219 384.835938 685.828125 385.269531 685.828125 385.828125 C 685.828125 386.347656 685.988281 386.71875 687.71875 387.300781 C 689.222656 387.796875 691.585938 388.539062 691.585938 391.179688 C 691.585938 393.230469 689.921875 394.921875 687.617188 394.921875 L 686.855469 394.921875 C 685.125 394.777344 683.621094 393.726562 683.132812 392.027344 " fill-opacity="1" fill-rule="nonzero"/><g clip-path="url(#4bec1f66f6)"><path fill="#b62126" d="M 367.082031 513.417969 L 389.480469 513.417969 L 430.320312 410.835938 L 407.546875 410.835938 L 390.128906 456.710938 L 376.613281 410.835938 L 354.644531 410.835938 L 379.820312 483.101562 Z M 367.082031 513.417969 " fill-opacity="1" fill-rule="nonzero"/></g><path fill="#3d3e3e" d="M 297.863281 376.199219 C 295.394531 374.070312 289.058594 371.839844 286.492188 373.269531 L 286.15625 373.453125 L 286.035156 373.800781 C 282.476562 383.808594 277.929688 388.371094 275.234375 388.371094 C 273.898438 388.371094 272.746094 387.710938 271.882812 386.453125 C 270.320312 384.15625 267.5625 376.410156 276.015625 354.050781 C 276.660156 352.433594 276.636719 351.113281 276.015625 350.121094 C 275.089844 348.675781 273.117188 348.40625 271.492188 348.324219 L 271.222656 348.324219 L 271 348.429688 C 268.078125 349.917969 261.664062 349.75 254.875 349.605469 L 252.179688 349.542969 C 251.929688 346.902344 251.476562 344.476562 250.988281 341.945312 C 250.730469 340.617188 250.488281 339.289062 250.265625 337.953125 C 250.203125 337.574219 250.082031 337.210938 249.910156 336.863281 C 249.734375 336.519531 249.511719 336.207031 249.246094 335.925781 C 248.976562 335.648438 248.671875 335.414062 248.335938 335.226562 C 247.996094 335.039062 247.636719 334.90625 247.257812 334.828125 C 243.769531 334.066406 240.578125 334.746094 238.066406 336.796875 C 234.589844 339.597656 233.007812 344.503906 233.007812 347.828125 C 233.007812 354.234375 235.597656 358.035156 241.132812 359.734375 C 240.210938 367.328125 238.183594 374.617188 235.042969 381.597656 L 234.984375 381.597656 L 234.796875 381.949219 C 230.429688 389.925781 228.566406 389.925781 225.707031 389.925781 C 224.632812 389.925781 223.769531 389.445312 223.054688 388.476562 C 218.113281 381.78125 221.902344 353.984375 228.523438 332.25 C 228.738281 331.535156 228.839844 330.800781 228.828125 330.050781 C 228.816406 329.304688 228.695312 328.574219 228.460938 327.859375 C 228.226562 327.148438 227.894531 326.488281 227.457031 325.878906 C 227.023438 325.269531 226.507812 324.742188 225.910156 324.289062 C 221.59375 320.984375 213.445312 317.550781 211.511719 319.722656 C 208.570312 323.011719 195.878906 345.265625 187.199219 364.628906 L 197.832031 315.691406 C 197.984375 314.988281 198.03125 314.277344 197.964844 313.558594 C 197.902344 312.839844 197.730469 312.148438 197.453125 311.480469 C 197.175781 310.816406 196.804688 310.207031 196.339844 309.65625 C 195.875 309.105469 195.335938 308.636719 194.726562 308.253906 C 190.59375 305.589844 184.382812 302.738281 180.265625 301.644531 C 177.613281 300.941406 174.875 302.117188 173.605469 304.511719 C 167.800781 315.425781 162.683594 329.621094 157.273438 344.644531 C 155.332031 350.019531 153.359375 355.496094 151.34375 360.847656 C 152.847656 353.613281 154.515625 347.335938 156.140625 341.214844 C 157.761719 335.054688 159.308594 329.25 160.582031 322.886719 C 160.832031 321.757812 160.816406 320.632812 160.539062 319.507812 C 160.257812 318.382812 159.746094 317.382812 158.996094 316.5 C 157.109375 314.246094 153.753906 312.859375 150.417969 312.925781 L 117.941406 329.476562 L 117.695312 329.640625 C 116.933594 330.386719 116.5625 331.625 116.585938 333.363281 C 116.605469 337.992188 119.484375 346.007812 121.972656 348.429688 C 123.1875 349.605469 125.179688 349.171875 126.3125 348.09375 C 133.757812 340.945312 139.78125 335.570312 142.402344 333.648438 L 131.210938 392.492188 C 131.164062 392.949219 131.238281 393.390625 131.433594 393.808594 C 131.628906 394.226562 131.917969 394.566406 132.296875 394.824219 C 135.28125 397.019531 144.539062 395.40625 149.332031 393.378906 L 149.703125 393.21875 L 151.511719 388.773438 C 159.039062 370.195312 167.496094 349.339844 177.46875 330.308594 C 175.847656 343.785156 172.285156 364.164062 166.855469 391.046875 L 166.816406 391.292969 C 166.507812 392.863281 167.085938 393.855469 167.617188 394.410156 C 169.503906 396.378906 174.300781 396.539062 183.167969 394.972656 L 183.636719 394.890625 L 183.871094 394.457031 C 186.1875 389.988281 188.558594 385.320312 190.984375 380.550781 C 196.75 369.160156 202.6875 357.441406 208.613281 347.507812 C 203.632812 371.824219 203.925781 385.339844 209.433594 392.242188 C 212.335938 395.855469 216.617188 397.632812 222.539062 397.632812 C 234.554688 397.632812 240.578125 390.195312 244.074219 383.957031 C 248.308594 376.875 250.894531 369.234375 251.828125 361.035156 C 253.632812 361.003906 255.4375 360.941406 257.238281 360.855469 C 253.042969 380.027344 256.515625 389.617188 260.203125 394.308594 C 262.875 397.699219 266.65625 399.625 270.570312 399.625 C 283.894531 399.625 295.867188 387.53125 299.074219 379.183594 C 299.320312 378.519531 299.300781 377.46875 297.863281 376.226562 M 318.003906 391.449219 C 318.003906 392.046875 317.949219 392.632812 317.832031 393.21875 C 317.71875 393.800781 317.546875 394.367188 317.320312 394.917969 C 317.09375 395.464844 316.816406 395.988281 316.488281 396.484375 C 316.160156 396.976562 315.785156 397.4375 315.367188 397.859375 C 314.945312 398.277344 314.488281 398.65625 313.996094 398.984375 C 313.503906 399.316406 312.984375 399.597656 312.433594 399.828125 C 311.886719 400.054688 311.320312 400.226562 310.738281 400.34375 C 310.15625 400.460938 309.566406 400.523438 308.972656 400.523438 C 308.378906 400.523438 307.789062 400.464844 307.207031 400.347656 C 306.625 400.230469 306.058594 400.058594 305.507812 399.832031 C 304.960938 399.601562 304.4375 399.324219 303.945312 398.992188 C 303.449219 398.660156 302.996094 398.285156 302.574219 397.863281 C 302.15625 397.441406 301.78125 396.984375 301.453125 396.488281 C 301.125 395.992188 300.84375 395.46875 300.621094 394.917969 C 300.394531 394.367188 300.222656 393.800781 300.109375 393.21875 C 299.996094 392.636719 299.941406 392.046875 299.941406 391.449219 C 299.921875 390.84375 299.960938 390.242188 300.0625 389.644531 C 300.160156 389.046875 300.320312 388.464844 300.539062 387.898438 C 300.753906 387.332031 301.027344 386.792969 301.351562 386.28125 C 301.679688 385.769531 302.050781 385.292969 302.472656 384.859375 C 302.894531 384.421875 303.355469 384.03125 303.855469 383.6875 C 304.355469 383.34375 304.882812 383.054688 305.441406 382.816406 C 306 382.582031 306.578125 382.402344 307.171875 382.28125 C 307.765625 382.160156 308.367188 382.097656 308.972656 382.097656 C 309.578125 382.097656 310.179688 382.160156 310.773438 382.28125 C 311.367188 382.402344 311.945312 382.582031 312.503906 382.816406 C 313.0625 383.054688 313.589844 383.34375 314.089844 383.6875 C 314.589844 384.03125 315.050781 384.421875 315.472656 384.859375 C 315.894531 385.292969 316.265625 385.769531 316.59375 386.28125 C 316.917969 386.792969 317.191406 387.332031 317.40625 387.898438 C 317.625 388.464844 317.785156 389.046875 317.882812 389.644531 C 317.984375 390.242188 318.023438 390.84375 318.003906 391.449219 Z M 318.003906 391.449219 " fill-opacity="1" fill-rule="nonzero"/><g clip-path="url(#a03bf0e1a9)"><path fill="#ebb020" d="M 349.535156 340.472656 L 185.78125 254.667969 L 33.734375 332.640625 L 33.734375 351.613281 L 185.660156 273.71875 L 349.535156 359.585938 Z M 349.535156 340.472656 " fill-opacity="1" fill-rule="nonzero"/></g><path fill="#3d3e3e" d="M 714.191406 414.785156 L 714.191406 416.835938 L 710.242188 416.835938 L 710.242188 427.207031 L 707.796875 427.207031 L 707.796875 416.828125 L 703.84375 416.828125 L 703.84375 414.78125 L 714.210938 414.78125 L 714.191406 414.78125 Z M 727.558594 427.207031 L 727.105469 419.890625 C 727.0625 418.9375 727.0625 417.734375 727.027344 416.421875 L 726.882812 416.421875 C 726.574219 417.515625 726.203125 418.980469 725.832031 420.117188 L 723.609375 427.019531 L 721.0625 427.019531 L 718.835938 419.929688 C 718.609375 418.980469 718.242188 417.515625 717.972656 416.421875 L 717.828125 416.421875 C 717.828125 417.550781 717.789062 418.753906 717.746094 419.886719 L 717.292969 427.207031 L 714.929688 427.207031 L 715.835938 414.785156 L 719.515625 414.785156 L 721.652344 420.863281 C 721.921875 421.8125 722.148438 422.742188 722.476562 424 L 722.523438 424 C 722.828125 422.867188 723.113281 421.8125 723.382812 420.898438 L 725.523438 414.785156 L 729.0625 414.785156 L 730.007812 427.207031 Z M 727.558594 427.207031 " fill-opacity="1" fill-rule="nonzero"/></svg>