<svg xmlns="http://www.w3.org/2000/svg" xmlns:xlink="http://www.w3.org/1999/xlink" width="1024" zoomAndPan="magnify" viewBox="0 0 768 767.999994" height="1024" preserveAspectRatio="xMidYMid meet" version="1.0"><path fill="#7ac143" d="M 31.785156 354.539062 L 52.765625 354.539062 L 51.242188 363.136719 C 54.878906 358.769531 63.050781 352.941406 71.257812 352.941406 C 81.609375 352.941406 86.527344 357.347656 88.1875 363.484375 C 94.351562 356.582031 101.484375 352.941406 109.933594 352.941406 C 126.761719 352.941406 130.363281 362.375 127.59375 378.085938 L 121.601562 412.171875 L 98.75 412.171875 L 103.910156 382.800781 C 105.398438 374.339844 104.359375 370.90625 98.335938 370.90625 C 91.652344 370.90625 89.296875 376.730469 88.050781 383.703125 L 83.03125 412.171875 L 60.175781 412.171875 L 65.335938 382.800781 C 66.824219 374.339844 65.785156 370.90625 59.726562 370.90625 C 53.042969 370.90625 50.6875 376.730469 49.476562 383.703125 L 44.457031 412.171875 L 21.636719 412.171875 Z M 31.785156 354.539062 " fill-opacity="1" fill-rule="nonzero"/><path fill="#7ac143" d="M 197.191406 388.523438 C 201.207031 367.644531 190.921875 352.90625 169.628906 352.90625 C 151.171875 352.90625 134.863281 365.011719 131.539062 383.910156 C 128.148438 403.191406 140.578125 413.765625 159.035156 413.765625 C 172.433594 413.765625 187.773438 409.050781 194.246094 394.730469 L 172.398438 394.730469 C 170.148438 398.128906 166.582031 399.792969 162.945312 399.792969 C 156.886719 399.792969 152.417969 395.320312 153.597656 388.554688 L 197.226562 388.554688 Z M 155.640625 376.835938 C 156.714844 370.699219 161.25 366.847656 168.070312 366.847656 C 173.472656 366.847656 177.351562 371.5625 176.414062 376.835938 Z M 155.640625 376.835938 " fill-opacity="1" fill-rule="nonzero"/><path fill="#7ac143" d="M 207.820312 354.503906 L 228.527344 354.503906 L 226.484375 366.1875 L 226.691406 366.1875 C 231.46875 357.171875 237.839844 352.871094 246.808594 352.839844 C 247.8125 352.839844 248.75 353.046875 249.71875 353.148438 L 245.703125 376.003906 C 244.210938 375.792969 242.621094 375.34375 241.097656 375.34375 C 231.746094 375.34375 226.277344 379.746094 224.058594 392.230469 L 220.5625 412.136719 L 197.710938 412.136719 L 207.855469 354.503906 Z M 207.820312 354.503906 " fill-opacity="1" fill-rule="nonzero"/><path fill="#7ac143" d="M 254.945312 354.503906 L 275.652344 354.503906 L 273.609375 366.1875 L 273.816406 366.1875 C 278.597656 357.171875 284.96875 352.871094 293.9375 352.839844 C 294.941406 352.839844 295.875 353.046875 296.84375 353.148438 L 292.824219 376.003906 C 291.335938 375.792969 289.746094 375.34375 288.222656 375.34375 C 278.871094 375.34375 273.402344 379.746094 271.183594 392.230469 L 267.6875 412.136719 L 244.835938 412.136719 L 254.980469 354.503906 Z M 254.945312 354.503906 " fill-opacity="1" fill-rule="nonzero"/><path fill="#7ac143" d="M 325.410156 391.261719 L 341.648438 355.71875 L 363.601562 355.71875 L 335.660156 409.535156 C 326.484375 427.363281 323.089844 432.945312 302.765625 432.945312 C 298.574219 432.945312 294.488281 432.492188 292.722656 432.492188 L 295.527344 416.542969 C 297.191406 416.542969 298.679688 416.644531 300.238281 416.644531 C 307.371094 416.644531 309.378906 414.566406 308.199219 408.148438 L 298.574219 355.648438 L 321.53125 355.648438 L 325.375 391.191406 Z M 325.410156 391.261719 " fill-opacity="1" fill-rule="nonzero"/><path fill="#7ac143" d="M 388.253906 354.433594 L 409.238281 354.433594 L 407.714844 363.035156 C 411.347656 358.628906 419.519531 352.839844 427.726562 352.839844 C 438.082031 352.839844 442.996094 357.207031 444.660156 363.378906 C 450.824219 356.480469 457.957031 352.839844 466.40625 352.839844 C 483.234375 352.839844 486.835938 362.269531 484.066406 377.980469 L 478.074219 412.066406 L 455.222656 412.066406 L 460.382812 382.695312 C 461.871094 374.234375 460.828125 370.800781 454.804688 370.800781 C 448.121094 370.800781 445.769531 376.628906 444.519531 383.597656 L 439.5 412.066406 L 416.648438 412.066406 L 421.808594 382.695312 C 423.296875 374.234375 422.257812 370.800781 416.195312 370.800781 C 409.515625 370.800781 407.160156 376.628906 405.949219 383.597656 L 400.929688 412.066406 L 378.074219 412.066406 L 388.21875 354.433594 Z M 388.253906 354.433594 " fill-opacity="1" fill-rule="nonzero"/><path fill="#7ac143" d="M 550.476562 412.101562 L 550.683594 410.992188 C 548.15625 408.566406 548.328125 406.9375 548.917969 403.640625 L 553.660156 376.730469 C 556.085938 363 556.222656 352.871094 528.941406 352.871094 C 506.191406 352.871094 496.25 360.015625 494.105469 372.222656 L 516.058594 372.222656 C 517.480469 367.265625 521.910156 366.605469 525.097656 366.605469 C 527.519531 366.605469 532.472656 367.160156 531.742188 371.320312 C 529.839844 382.070312 490.953125 370.210938 486.351562 396.359375 C 484.238281 408.324219 492.929688 413.699219 503.800781 413.699219 C 512.355469 413.699219 519.277344 411.929688 526.828125 405.894531 L 526.828125 412.035156 L 550.511719 412.035156 Z M 516.785156 399.132812 C 512.285156 399.132812 509.859375 397.15625 510.378906 394.277344 C 511.695312 386.789062 521.289062 388.554688 529.425781 384.914062 C 528.59375 392.855469 524.820312 399.097656 516.785156 399.097656 " fill-opacity="1" fill-rule="nonzero"/><path fill="#7ac143" d="M 567.683594 354.46875 L 557.539062 412.136719 L 580.394531 412.136719 L 590.539062 354.46875 Z M 571.21875 332.691406 L 568.34375 348.953125 L 591.230469 348.953125 L 594.105469 332.691406 Z M 571.21875 332.691406 " fill-opacity="1" fill-rule="nonzero"/><path fill="#7ac143" d="M 650.71875 412.136719 L 663.632812 332.96875 L 641.785156 332.96875 L 636.972656 360.328125 C 633.164062 354.675781 628.453125 352.90625 621.25 352.90625 C 607.503906 352.90625 594.660156 365.359375 591.300781 384.464844 C 588.425781 400.695312 594.9375 413.769531 612.28125 413.769531 C 619.589844 413.769531 624.921875 411.445312 631.5 404.40625 L 630.113281 412.136719 Z M 620.871094 397.261719 C 613.460938 397.261719 613.148438 390.257812 614.222656 384.222656 C 615.332031 377.875 618.691406 370.664062 626.203125 370.664062 C 633.71875 370.664062 634.722656 377.5625 633.578125 383.910156 C 632.402344 390.601562 628.695312 397.261719 620.835938 397.261719 " fill-opacity="1" fill-rule="nonzero"/><path fill="#7ac143" d="M 680.738281 393.585938 C 680.324219 395.910156 680.914062 397.640625 682.226562 398.925781 C 683.476562 400.035156 685.308594 400.695312 687.523438 400.695312 C 691.058594 400.695312 694.96875 399.585938 695.695312 395.527344 C 697.324219 386.300781 660.761719 393.652344 664.707031 371.320312 C 667.304688 356.617188 683.300781 352.316406 695.28125 352.316406 C 707.261719 352.316406 722.046875 355.160156 720.660156 370.417969 L 699.886719 370.417969 C 699.988281 368.546875 699.472656 367.230469 698.433594 366.222656 C 697.394531 365.21875 695.835938 364.800781 694.070312 364.800781 C 690.125 364.800781 687.386719 366.015625 686.867188 368.894531 C 685.449219 376.90625 722.773438 371.53125 719 393.03125 C 716.890625 405.027344 705.566406 413.179688 684.445312 413.179688 C 671.25 413.179688 657.472656 409.121094 658.996094 393.585938 Z M 680.738281 393.585938 " fill-opacity="1" fill-rule="nonzero"/><path fill="#7ac143" d="M 729.007812 404.300781 C 729.976562 404.300781 730.667969 404.09375 730.667969 402.984375 C 730.667969 401.839844 729.421875 401.839844 728.59375 401.839844 L 726.476562 401.839844 L 726.476562 404.300781 Z M 732.089844 409.261719 L 730.113281 409.261719 L 728.175781 405.585938 L 726.476562 405.585938 L 726.476562 409.261719 L 724.78125 409.261719 L 724.78125 400.625 L 728.972656 400.625 C 729.699219 400.625 730.667969 400.625 731.328125 401.007812 C 732.089844 401.492188 732.332031 402.324219 732.332031 403.261719 C 732.332031 404.855469 731.5 405.515625 729.976562 405.617188 L 732.089844 409.292969 Z M 734.617188 404.890625 C 734.617188 401.285156 731.707031 398.371094 728.105469 398.371094 C 724.503906 398.371094 721.5625 401.285156 721.5625 404.890625 C 721.5625 408.496094 724.46875 411.445312 728.105469 411.445312 C 731.742188 411.445312 734.617188 408.566406 734.617188 404.890625 Z M 720.039062 404.890625 C 720.039062 400.484375 723.640625 396.878906 728.074219 396.878906 C 732.503906 396.878906 736.105469 400.484375 736.105469 404.890625 C 736.105469 409.292969 732.503906 412.9375 728.074219 412.9375 C 723.640625 412.9375 720.039062 409.328125 720.039062 404.890625 Z M 720.039062 404.890625 " fill-opacity="1" fill-rule="nonzero"/></svg>