<svg xmlns="http://www.w3.org/2000/svg" xmlns:xlink="http://www.w3.org/1999/xlink" width="1024" zoomAndPan="magnify" viewBox="0 0 768 767.999994" height="1024" preserveAspectRatio="xMidYMid meet" version="1.0"><defs><clipPath id="860d238f8c"><path d="M 274 479 L 294 479 L 294 507.050781 L 274 507.050781 Z M 274 479 " clip-rule="nonzero"/></clipPath><clipPath id="00987fa7e6"><path d="M 383 479 L 404 479 L 404 507.050781 L 383 507.050781 Z M 383 479 " clip-rule="nonzero"/></clipPath></defs><path fill="#4c7637" d="M 242.816406 482.132812 L 231.148438 476.773438 C 231.148438 476.5625 231.042969 476.457031 230.832031 476.457031 C 230.832031 476.457031 230.726562 476.5625 230.519531 476.773438 L 224.84375 479.296875 L 224.84375 477.71875 C 224.84375 477.402344 224.527344 477.089844 224.210938 477.089844 L 219.480469 477.089844 C 219.167969 477.089844 218.851562 477.402344 218.851562 477.71875 L 218.851562 496.328125 C 218.851562 496.640625 219.167969 496.957031 219.480469 496.957031 L 224.210938 496.957031 C 224.527344 496.957031 224.84375 496.640625 224.84375 496.328125 L 224.84375 485.917969 L 230.832031 483.082031 L 231.148438 483.082031 L 237.140625 485.917969 L 237.140625 496.328125 C 237.140625 496.640625 237.457031 496.957031 237.769531 496.957031 L 242.5 496.957031 C 242.816406 496.957031 243.132812 496.640625 243.132812 496.328125 L 243.132812 482.449219 C 243.132812 482.238281 243.027344 482.132812 242.816406 482.132812 Z M 242.816406 482.132812 " fill-opacity="1" fill-rule="evenodd"/><path fill="#4c7637" d="M 271.511719 479.609375 L 266.78125 479.609375 C 266.464844 479.609375 266.148438 479.925781 266.148438 480.242188 L 266.148438 496.328125 C 266.148438 496.640625 266.464844 496.957031 266.78125 496.957031 L 271.511719 496.957031 C 271.824219 496.957031 272.140625 496.640625 272.140625 496.328125 L 272.140625 480.242188 C 272.140625 479.925781 271.824219 479.609375 271.511719 479.609375 Z M 271.511719 479.609375 " fill-opacity="1" fill-rule="evenodd"/><path fill="#4c7637" d="M 269.300781 477.089844 C 267.09375 477.089844 265.519531 475.828125 265.519531 473.617188 C 265.519531 471.726562 267.09375 470.148438 269.300781 470.148438 C 271.195312 470.148438 272.769531 471.726562 272.769531 473.617188 C 272.769531 475.828125 271.195312 477.089844 269.300781 477.089844 Z M 269.300781 477.089844 " fill-opacity="1" fill-rule="evenodd"/><path fill="#4c7637" d="M 307.140625 479.296875 C 305.25 479.296875 303.777344 479.820312 302.726562 480.871094 L 302.410156 481.1875 L 302.410156 472.355469 C 302.410156 472.042969 302.097656 471.726562 301.78125 471.726562 L 297.050781 471.726562 C 296.734375 471.726562 296.421875 472.042969 296.421875 472.355469 L 296.421875 496.328125 C 296.421875 496.640625 296.734375 496.957031 297.050781 496.957031 L 301.78125 496.957031 C 302.097656 496.957031 302.410156 496.640625 302.410156 496.328125 L 302.410156 487.8125 C 302.410156 484.972656 304.304688 484.65625 304.933594 484.65625 C 306.824219 484.65625 307.140625 486.550781 307.140625 487.8125 L 307.140625 496.328125 C 307.140625 496.640625 307.457031 496.957031 308.085938 496.957031 L 312.816406 496.957031 C 313.132812 496.957031 313.449219 496.640625 313.449219 496.328125 L 313.449219 485.605469 C 313.449219 483.710938 312.816406 482.132812 311.554688 480.871094 C 310.503906 479.820312 309.03125 479.296875 307.140625 479.296875 Z M 307.140625 479.296875 " fill-opacity="1" fill-rule="evenodd"/><path fill="#4c7637" d="M 335.203125 488.441406 C 335.203125 493.488281 331.734375 497.589844 327.320312 497.589844 C 325.21875 497.589844 323.644531 496.851562 322.59375 495.378906 L 322.277344 495.378906 L 322.277344 496.328125 C 322.277344 496.640625 321.960938 496.957031 321.644531 496.957031 L 316.917969 496.957031 C 316.601562 496.957031 316.285156 496.640625 316.285156 496.328125 L 316.285156 472.355469 C 316.285156 472.042969 316.601562 471.726562 316.917969 471.726562 L 321.644531 471.726562 C 322.277344 471.726562 322.59375 472.042969 322.59375 472.355469 L 322.59375 481.1875 L 322.59375 480.871094 C 323.851562 479.820312 325.429688 479.296875 327.320312 479.296875 C 331.734375 479.296875 335.203125 483.082031 335.203125 488.441406 Z M 328.898438 488.441406 C 328.898438 486.234375 327.320312 484.65625 325.429688 484.65625 C 323.851562 484.65625 322.277344 486.234375 322.277344 488.441406 C 322.277344 490.335938 323.851562 491.910156 325.429688 491.910156 C 327.320312 491.910156 328.898438 490.335938 328.898438 488.441406 Z M 328.898438 488.441406 " fill-opacity="1" fill-rule="evenodd"/><path fill="#4c7637" d="M 346.871094 497.589844 C 341.511719 497.589844 337.410156 493.488281 337.410156 488.441406 C 337.410156 483.394531 341.511719 479.296875 346.871094 479.296875 C 352.230469 479.296875 356.644531 483.394531 356.644531 488.441406 C 356.644531 493.488281 352.230469 497.589844 346.871094 497.589844 Z M 350.339844 488.441406 C 350.339844 486.234375 348.761719 484.65625 346.871094 484.65625 C 344.980469 484.65625 343.71875 486.234375 343.71875 488.441406 C 343.71875 490.335938 344.980469 491.910156 346.871094 491.910156 C 348.761719 491.910156 350.339844 490.335938 350.339844 488.441406 Z M 350.339844 488.441406 " fill-opacity="1" fill-rule="evenodd"/><g clip-path="url(#860d238f8c)"><path fill="#4c7637" d="M 293.265625 496.011719 L 293.265625 496.957031 C 293.265625 502.632812 288.851562 507.050781 283.175781 507.050781 C 279.707031 507.050781 276.554688 505.15625 274.664062 502.003906 C 274.453125 502.003906 274.453125 501.898438 274.664062 501.6875 C 274.664062 501.476562 274.769531 501.269531 274.976562 501.058594 L 279.078125 499.164062 C 279.078125 499.164062 279.183594 499.164062 279.394531 499.164062 C 279.601562 499.164062 279.8125 499.269531 280.023438 499.480469 C 280.652344 500.425781 281.914062 501.058594 283.175781 501.058594 C 285.699219 501.058594 287.277344 499.164062 287.277344 496.957031 L 287.277344 494.433594 L 287.277344 494.75 C 286.015625 496.011719 284.4375 496.640625 282.546875 496.640625 C 280.339844 496.640625 278.445312 495.695312 276.871094 494.117188 C 275.292969 492.542969 274.664062 490.335938 274.664062 487.8125 C 274.664062 485.605469 275.292969 483.394531 276.871094 481.820312 C 278.445312 479.925781 280.339844 479.296875 282.546875 479.296875 C 284.648438 479.296875 286.226562 479.925781 287.277344 481.1875 L 287.589844 481.503906 L 287.589844 480.242188 C 287.589844 479.925781 287.90625 479.609375 288.222656 479.609375 L 292.636719 479.609375 C 292.953125 479.609375 293.265625 479.925781 293.265625 480.242188 Z M 287.589844 488.441406 C 287.589844 486.550781 286.015625 484.972656 284.121094 484.972656 C 282.230469 484.972656 280.96875 486.550781 280.96875 488.441406 C 280.96875 490.335938 282.230469 491.910156 284.121094 491.910156 C 286.015625 491.910156 287.589844 490.335938 287.589844 488.441406 Z M 287.589844 488.441406 " fill-opacity="1" fill-rule="evenodd"/></g><path fill="#4c7637" d="M 370.207031 479.296875 C 369.996094 479.296875 369.679688 479.296875 369.257812 479.296875 C 367.050781 479.296875 365.789062 479.925781 364.84375 481.503906 L 364.53125 481.820312 L 364.53125 480.242188 C 364.53125 479.925781 364.214844 479.609375 363.898438 479.609375 L 359.484375 479.609375 C 358.855469 479.609375 358.539062 479.925781 358.539062 480.242188 L 358.539062 496.328125 C 358.539062 496.640625 358.855469 496.957031 359.484375 496.957031 L 364.214844 496.957031 C 364.53125 496.957031 364.84375 496.640625 364.84375 496.328125 L 364.84375 487.8125 C 364.84375 485.917969 365.789062 484.972656 367.683594 484.972656 C 368.3125 484.972656 368.945312 485.078125 369.574219 485.289062 C 369.785156 485.289062 369.890625 485.289062 369.890625 485.289062 C 370.101562 485.289062 370.207031 485.183594 370.207031 484.972656 C 370.414062 484.972656 370.519531 484.867188 370.519531 484.65625 L 370.835938 479.925781 C 370.835938 479.609375 370.519531 479.296875 370.207031 479.296875 Z M 370.207031 479.296875 " fill-opacity="1" fill-rule="evenodd"/><path fill="#4c7637" d="M 379.347656 471.726562 L 374.621094 471.726562 C 374.304688 471.726562 373.988281 472.042969 373.988281 472.355469 L 373.988281 496.328125 C 373.988281 496.640625 374.304688 496.957031 374.621094 496.957031 L 379.347656 496.957031 C 379.980469 496.957031 379.980469 496.640625 379.980469 496.328125 L 379.980469 472.355469 C 379.980469 472.042969 379.980469 471.726562 379.347656 471.726562 Z M 379.347656 471.726562 " fill-opacity="1" fill-rule="evenodd"/><g clip-path="url(#00987fa7e6)"><path fill="#4c7637" d="M 397.324219 486.863281 C 397.324219 489.074219 395.746094 490.964844 393.539062 490.964844 C 391.332031 490.964844 389.753906 489.074219 389.753906 486.863281 L 389.753906 480.242188 C 389.753906 479.925781 389.441406 479.609375 389.125 479.609375 L 384.394531 479.609375 C 384.078125 479.609375 383.765625 479.925781 383.765625 480.242188 L 383.765625 486.863281 C 383.765625 492.542969 388.179688 496.957031 393.855469 496.957031 C 394.90625 496.957031 395.957031 496.746094 397.007812 496.328125 L 397.324219 496.328125 L 397.324219 496.640625 C 397.324219 499.164062 395.117188 501.058594 392.910156 501.058594 C 391.332031 501.058594 390.070312 500.425781 389.125 499.164062 C 388.914062 498.953125 388.703125 498.851562 388.492188 498.851562 C 388.492188 498.851562 388.390625 498.851562 388.179688 498.851562 L 384.078125 501.058594 C 383.871094 501.058594 383.765625 501.164062 383.765625 501.371094 C 383.554688 501.582031 383.554688 501.792969 383.765625 502.003906 C 385.65625 505.15625 389.125 507.050781 392.910156 507.050781 C 395.429688 507.050781 397.953125 506.101562 400.160156 504.210938 C 402.050781 502.320312 403 499.796875 403.3125 496.957031 L 403.3125 480.242188 C 403.3125 479.925781 403 479.609375 402.683594 479.609375 L 397.953125 479.609375 C 397.636719 479.609375 397.324219 479.925781 397.324219 480.242188 " fill-opacity="1" fill-rule="evenodd"/></g><path fill="#4c7637" d="M 261.105469 481.820312 C 262.996094 483.394531 263.625 485.605469 263.625 488.441406 C 263.625 488.757812 263.625 489.074219 263.625 489.386719 C 263.625 489.703125 263.3125 490.019531 262.996094 490.019531 L 251.960938 490.019531 L 251.960938 490.335938 C 252.378906 491.804688 253.535156 492.542969 255.429688 492.542969 C 256.375 492.542969 257.320312 492.226562 258.265625 491.28125 C 258.476562 491.28125 258.582031 491.28125 258.582031 491.28125 C 258.792969 491.28125 259.003906 491.386719 259.210938 491.597656 L 262.367188 494.117188 C 262.367188 494.117188 262.367188 494.222656 262.367188 494.433594 C 262.367188 494.644531 262.367188 494.855469 262.367188 495.066406 C 260.472656 496.640625 257.949219 497.589844 255.113281 497.589844 C 252.273438 497.589844 249.753906 496.640625 248.175781 495.066406 C 246.597656 493.488281 245.652344 490.964844 245.652344 488.441406 C 245.652344 485.601562 246.597656 483.394531 248.175781 481.820312 C 249.753906 479.925781 251.960938 478.980469 254.796875 478.980469 C 257.320312 478.980469 259.527344 479.925781 261.105469 481.820312 Z M 257.949219 486.234375 C 257.949219 484.65625 256.375 483.394531 254.796875 483.394531 C 253.222656 483.394531 251.644531 484.65625 251.644531 486.234375 L 251.644531 486.550781 L 257.949219 486.550781 Z M 257.949219 486.234375 " fill-opacity="1" fill-rule="evenodd"/><path fill="#4c7637" d="M 200.246094 496.957031 L 200.246094 495.066406 C 198.984375 496.640625 196.777344 497.589844 194.570312 497.589844 C 189.210938 497.589844 185.425781 493.488281 185.425781 488.441406 C 185.425781 483.082031 189.527344 479.296875 194.570312 479.296875 C 196.882812 479.296875 198.777344 480.136719 200.246094 481.820312 L 200.246094 479.609375 L 203.714844 479.609375 L 203.714844 496.957031 Z M 200.246094 488.441406 C 200.246094 485.289062 197.726562 482.449219 194.570312 482.449219 C 191.417969 482.449219 188.894531 485.289062 188.894531 488.441406 C 188.894531 491.597656 191.417969 494.117188 194.570312 494.117188 C 197.726562 494.117188 200.246094 491.597656 200.246094 488.441406 Z M 200.246094 488.441406 " fill-opacity="1" fill-rule="evenodd"/><path fill="#4c7637" d="M 433.585938 493.171875 C 431.691406 495.695312 428.855469 497.589844 425.703125 497.589844 C 420.65625 497.589844 416.558594 493.488281 416.558594 488.441406 C 416.558594 483.394531 420.339844 479.296875 425.703125 479.296875 C 428.855469 479.296875 431.691406 480.871094 433.269531 483.394531 L 430.429688 485.289062 C 429.484375 483.710938 427.59375 482.449219 425.703125 482.449219 C 422.546875 482.449219 420.027344 485.289062 420.027344 488.441406 C 420.027344 491.597656 422.546875 494.117188 425.703125 494.117188 C 427.910156 494.117188 429.484375 493.171875 430.429688 491.28125 Z M 433.585938 493.171875 " fill-opacity="1" fill-rule="evenodd"/><path fill="#4c7637" d="M 444.9375 497.589844 C 439.574219 497.589844 435.476562 493.488281 435.476562 488.441406 C 435.476562 483.394531 439.574219 479.296875 444.9375 479.296875 C 449.980469 479.296875 454.082031 483.394531 454.082031 488.441406 C 454.082031 493.488281 449.980469 497.589844 444.9375 497.589844 Z M 450.613281 488.441406 C 450.613281 485.289062 448.089844 482.449219 444.9375 482.449219 C 441.78125 482.449219 439.261719 485.289062 439.261719 488.441406 C 439.261719 491.597656 441.78125 494.117188 444.9375 494.117188 C 448.089844 494.117188 450.613281 491.597656 450.613281 488.441406 Z M 450.613281 488.441406 " fill-opacity="1" fill-rule="evenodd"/><path fill="#4c7637" d="M 480.882812 496.957031 L 480.882812 487.8125 C 480.882812 484.34375 479.9375 482.449219 477.097656 482.449219 C 474.367188 482.449219 473 484.34375 473 488.125 L 473 496.957031 L 469.53125 496.957031 L 469.53125 487.8125 C 469.53125 484.34375 468.585938 482.449219 465.746094 482.449219 C 463.015625 482.449219 461.648438 484.34375 461.648438 488.125 L 461.648438 496.957031 L 458.179688 496.957031 L 458.179688 479.609375 L 461.648438 479.609375 L 461.648438 481.503906 C 462.910156 479.925781 464.484375 479.296875 466.378906 479.296875 C 468.902344 479.296875 471.109375 480.242188 472.054688 482.449219 C 473.628906 479.925781 475.835938 479.296875 477.730469 479.296875 C 481.828125 479.296875 484.351562 481.503906 484.351562 487.179688 L 484.351562 496.957031 Z M 480.882812 496.957031 " fill-opacity="1" fill-rule="evenodd"/><path fill="#4c7637" d="M 489.710938 506.105469 L 489.710938 479.609375 L 493.179688 479.609375 L 493.179688 481.820312 C 494.441406 479.925781 496.648438 479.296875 498.855469 479.296875 C 503.902344 479.296875 508 483.082031 508 488.441406 C 508 493.488281 504.214844 497.589844 498.855469 497.589844 C 496.648438 497.589844 494.441406 496.640625 493.179688 495.066406 L 493.179688 506.101562 Z M 504.847656 488.441406 C 504.847656 485.289062 502.007812 482.449219 498.855469 482.449219 C 495.703125 482.449219 493.179688 485.289062 493.179688 488.441406 C 493.179688 491.597656 495.703125 494.117188 498.855469 494.117188 C 502.007812 494.117188 504.847656 491.597656 504.847656 488.441406 Z M 504.847656 488.441406 " fill-opacity="1" fill-rule="evenodd"/><path fill="#4c7637" d="M 525.972656 496.957031 L 525.972656 495.066406 C 524.398438 496.640625 522.503906 497.589844 519.984375 497.589844 C 514.9375 497.589844 510.839844 493.488281 510.839844 488.441406 C 510.839844 483.082031 514.9375 479.296875 519.984375 479.296875 C 522.503906 479.296875 524.503906 480.136719 525.972656 481.820312 L 525.972656 479.609375 L 529.441406 479.609375 L 529.441406 496.957031 Z M 525.972656 488.441406 C 525.972656 485.289062 523.449219 482.449219 520.296875 482.449219 C 517.144531 482.449219 514.308594 485.289062 514.308594 488.441406 C 514.308594 491.597656 517.144531 494.117188 520.296875 494.117188 C 523.449219 494.117188 525.972656 491.597656 525.972656 488.441406 Z M 525.972656 488.441406 " fill-opacity="1" fill-rule="evenodd"/><path fill="#4c7637" d="M 547.414062 496.957031 L 547.414062 487.8125 C 547.414062 484.34375 545.839844 482.449219 543 482.449219 C 540.164062 482.449219 538.585938 484.65625 538.585938 488.125 L 538.585938 496.957031 L 535.117188 496.957031 L 535.117188 479.609375 L 538.585938 479.609375 L 538.585938 481.503906 C 539.847656 480.242188 541.109375 479.296875 543.632812 479.296875 C 547.730469 479.296875 550.882812 481.503906 550.882812 487.179688 L 550.882812 496.957031 Z M 547.414062 496.957031 " fill-opacity="1" fill-rule="evenodd"/><path fill="#4c7637" d="M 557.503906 506.105469 L 560.660156 497.273438 L 553.722656 479.609375 L 557.503906 479.609375 L 562.550781 492.542969 L 567.28125 479.609375 L 570.75 479.609375 L 560.972656 506.105469 Z M 557.503906 506.105469 " fill-opacity="1" fill-rule="nonzero"/><path fill="#4c7637" d="M 403 327.28125 C 403 327.28125 428.539062 290.066406 475.835938 272.089844 C 475.835938 272.089844 443.042969 285.964844 415.925781 315.609375 C 415.925781 315.609375 433.898438 327.28125 450.613281 310.25 C 467.007812 293.21875 476.785156 275.871094 493.179688 269.566406 C 493.179688 269.566406 461.019531 257.265625 434.214844 268.304688 C 407.414062 279.34375 403.3125 298.582031 412.457031 311.828125 L 403.3125 322.550781 Z M 403 327.28125 " fill-opacity="1" fill-rule="evenodd"/><path fill="#4c7637" d="M 206.867188 361.972656 L 206.867188 382.789062 C 206.867188 390.566406 206.554688 396.246094 205.921875 399.820312 C 205.082031 403.394531 203.402344 406.757812 200.878906 409.910156 C 198.355469 413.066406 195.097656 415.378906 191.101562 416.851562 C 187.109375 418.320312 182.589844 419.058594 177.542969 419.058594 C 171.660156 419.058594 166.71875 418.425781 162.722656 417.164062 C 158.730469 415.902344 155.683594 413.90625 153.578125 411.171875 C 151.265625 408.648438 149.691406 405.601562 148.851562 402.027344 C 147.800781 398.453125 147.273438 392.984375 147.273438 385.625 L 147.273438 363.863281 C 147.273438 355.875 148.21875 349.671875 150.113281 345.257812 C 151.792969 340.84375 154.839844 337.269531 159.253906 334.535156 C 163.671875 331.800781 169.347656 330.433594 176.28125 330.433594 C 182.167969 330.433594 187.214844 331.273438 191.417969 332.957031 C 195.621094 334.640625 198.882812 336.953125 201.191406 339.894531 C 203.296875 342.628906 204.765625 345.46875 205.609375 348.410156 C 206.449219 351.355469 206.867188 355.875 206.867188 361.972656 Z M 181.011719 355.351562 C 181.011719 351.144531 180.800781 348.410156 180.382812 347.148438 C 179.75 346.097656 178.699219 345.574219 177.230469 345.574219 C 175.757812 345.574219 174.707031 346.097656 174.074219 347.148438 C 173.65625 348.410156 173.445312 351.144531 173.445312 355.351562 L 173.445312 394.140625 C 173.445312 398.136719 173.65625 400.765625 174.074219 402.027344 C 174.707031 403.289062 175.757812 403.917969 177.230469 403.917969 C 178.699219 403.917969 179.75 403.289062 180.382812 402.027344 C 180.800781 400.976562 181.011719 398.558594 181.011719 394.773438 Z M 181.011719 355.351562 " fill-opacity="1" fill-rule="evenodd"/><path fill="#f2c317" d="M 675.121094 332.011719 L 667.867188 393.828125 C 666.605469 403.5 665.554688 410.121094 664.714844 413.695312 C 664.085938 417.269531 662.824219 420.214844 660.929688 422.527344 C 659.039062 424.839844 656.410156 426.519531 653.046875 427.574219 C 649.894531 428.835938 644.746094 429.464844 637.597656 429.464844 L 621.832031 429.464844 L 621.832031 415.589844 C 625.824219 415.589844 628.347656 415.378906 629.398438 414.957031 C 630.660156 414.746094 631.289062 413.90625 631.289062 412.433594 C 631.289062 411.804688 630.765625 408.753906 629.714844 403.289062 L 615.523438 332.011719 L 638.859375 332.011719 L 647.6875 389.726562 L 651.785156 332.011719 Z M 675.121094 332.011719 " fill-opacity="1" fill-rule="evenodd"/><path fill="#4c7637" d="M 293.582031 417.164062 C 298.941406 417.164062 303.671875 413.066406 303.988281 407.386719 L 303.988281 359.765625 C 303.988281 352.828125 304.09375 348.726562 304.304688 347.464844 C 304.722656 346.203125 305.878906 345.574219 307.773438 345.574219 C 309.664062 345.574219 310.820312 346.203125 311.242188 347.464844 C 311.660156 348.726562 311.871094 352.617188 311.871094 359.132812 L 311.871094 417.480469 L 327.320312 417.480469 C 333.3125 417.480469 337.726562 412.75 337.726562 407.074219 L 337.726562 359.765625 C 337.726562 352.40625 337.621094 347.464844 337.410156 344.941406 C 336.992188 342.628906 336.253906 340.316406 335.203125 338.003906 C 333.945312 335.691406 332.050781 333.796875 329.527344 332.328125 C 326.796875 331.066406 323.539062 330.433594 319.753906 330.433594 C 316.179688 330.433594 313.132812 331.171875 310.609375 332.640625 C 307.875 334.113281 305.667969 336.214844 303.988281 338.949219 L 304.304688 332.011719 L 277.816406 332.011719 L 277.816406 417.164062 Z M 293.582031 417.164062 " fill-opacity="1" fill-rule="evenodd"/><path fill="#f2c317" d="M 601.652344 332.011719 L 585.570312 332.011719 L 585.570312 389.410156 C 585.570312 396.351562 585.359375 400.554688 584.9375 402.027344 C 584.519531 403.289062 583.363281 403.917969 581.46875 403.917969 C 579.578125 403.917969 578.527344 403.289062 578.316406 402.027344 C 577.894531 400.765625 577.6875 396.769531 577.6875 390.042969 L 577.6875 341.789062 C 577.371094 336.425781 572.957031 332.011719 567.28125 332.011719 L 551.515625 332.011719 L 551.515625 389.410156 C 551.515625 396.769531 551.726562 401.710938 552.144531 404.234375 C 552.355469 406.757812 553.089844 409.175781 554.351562 411.488281 C 555.613281 413.800781 557.503906 415.589844 560.027344 416.851562 C 562.550781 418.320312 565.808594 419.058594 569.804688 419.058594 C 573.167969 419.058594 576.214844 418.320312 578.949219 416.851562 C 581.46875 415.378906 583.675781 413.171875 585.570312 410.226562 L 584.9375 417.480469 L 611.425781 417.480469 L 611.425781 341.472656 C 611.109375 336.425781 606.695312 332.011719 601.652344 332.011719 Z M 601.652344 332.011719 " fill-opacity="1" fill-rule="evenodd"/><path fill="#4c7637" d="M 261.734375 332.011719 L 245.652344 332.011719 L 245.652344 389.410156 C 245.652344 396.351562 245.546875 400.554688 245.339844 402.027344 C 244.917969 403.289062 243.761719 403.917969 241.871094 403.917969 C 239.976562 403.917969 238.820312 403.289062 238.402344 402.027344 C 237.980469 400.765625 237.769531 396.769531 237.769531 390.042969 L 237.769531 341.789062 C 237.457031 336.425781 233.039062 332.011719 227.679688 332.011719 L 211.914062 332.011719 L 211.914062 389.410156 C 211.914062 396.769531 212.019531 401.710938 212.230469 404.234375 C 212.648438 406.757812 213.386719 409.175781 214.4375 411.488281 C 215.699219 413.800781 217.589844 415.589844 220.113281 416.851562 C 222.84375 418.320312 226.105469 419.058594 229.886719 419.058594 C 233.460938 419.058594 236.507812 418.320312 239.03125 416.851562 C 241.765625 415.378906 243.972656 413.171875 245.652344 410.226562 L 245.339844 417.480469 L 271.824219 417.480469 L 271.824219 341.472656 C 271.511719 336.425781 267.09375 332.011719 261.734375 332.011719 Z M 261.734375 332.011719 " fill-opacity="1" fill-rule="evenodd"/><path fill="#4c7637" d="M 462.910156 378.058594 C 460.386719 374.691406 455.34375 371.117188 447.773438 367.335938 C 442.097656 364.601562 438.417969 362.5 436.738281 361.027344 C 434.847656 359.554688 433.691406 358.1875 433.269531 356.925781 C 433.058594 355.875 432.953125 353.984375 432.953125 351.25 C 432.953125 349.355469 433.269531 347.886719 433.898438 346.835938 C 434.742188 345.992188 435.792969 345.574219 437.054688 345.574219 C 438.945312 345.574219 440.101562 346.097656 440.523438 347.148438 C 440.941406 347.78125 441.152344 349.042969 441.152344 350.933594 C 442.097656 355.664062 446.199219 359.132812 451.242188 359.132812 L 464.171875 359.132812 L 464.171875 354.402344 C 464.171875 349.988281 463.960938 346.835938 463.539062 344.941406 C 463.121094 342.839844 461.859375 340.632812 459.757812 338.320312 C 457.652344 336.007812 454.605469 334.113281 450.613281 332.640625 C 446.617188 331.171875 441.78125 330.433594 436.105469 330.433594 C 430.429688 330.433594 425.492188 331.273438 421.289062 332.957031 C 416.871094 334.851562 413.824219 337.371094 412.144531 340.527344 C 410.25 343.679688 409.304688 348.726562 409.304688 355.664062 C 409.304688 360.5 410.144531 364.601562 411.828125 367.964844 C 413.507812 371.539062 418.132812 375.429688 425.703125 379.632812 C 434.742188 384.890625 439.785156 387.9375 440.835938 388.78125 C 441.886719 389.832031 442.414062 392.460938 442.414062 396.664062 C 442.414062 399.609375 441.992188 401.5 441.152344 402.34375 C 440.523438 403.394531 439.261719 403.917969 437.367188 403.917969 C 435.6875 403.917969 434.53125 403.183594 433.898438 401.710938 C 433.480469 400.871094 433.269531 399.1875 433.269531 396.664062 C 432.640625 391.617188 428.539062 387.519531 423.179688 387.519531 L 409.9375 387.519531 L 409.9375 391.617188 C 409.9375 398.769531 410.882812 404.023438 412.773438 407.386719 C 414.457031 410.960938 417.609375 413.800781 422.234375 415.902344 C 427.066406 418.007812 432.742188 419.058594 439.261719 419.058594 C 445.148438 419.058594 450.296875 418.109375 454.710938 416.21875 C 458.914062 414.117188 461.859375 411.382812 463.539062 408.019531 C 465.433594 404.445312 466.378906 399.1875 466.378906 392.25 C 466.378906 385.941406 465.222656 381.210938 462.910156 378.058594 Z M 462.910156 378.058594 " fill-opacity="1" fill-rule="evenodd"/><path fill="#f2c317" d="M 730.933594 378.058594 C 728.621094 374.691406 723.679688 371.117188 716.113281 367.335938 C 710.4375 364.601562 706.652344 362.5 704.761719 361.027344 C 703.078125 359.554688 702.027344 358.1875 701.605469 356.925781 C 701.1875 355.875 700.976562 353.984375 700.976562 351.25 C 700.976562 349.355469 701.398438 347.886719 702.238281 346.835938 C 702.867188 345.992188 703.917969 345.574219 705.390625 345.574219 C 707.28125 345.574219 708.4375 346.097656 708.859375 347.148438 C 709.070312 347.78125 709.28125 349.042969 709.492188 350.933594 C 710.4375 355.664062 714.535156 359.132812 719.582031 359.132812 L 732.507812 359.132812 L 732.507812 354.402344 C 732.507812 349.988281 732.296875 346.835938 731.878906 344.941406 C 731.457031 342.839844 730.195312 340.632812 728.09375 338.320312 C 725.992188 336.007812 722.945312 334.113281 718.949219 332.640625 C 714.957031 331.171875 710.121094 330.433594 704.445312 330.433594 C 698.769531 330.433594 693.722656 331.273438 689.308594 332.957031 C 685.105469 334.851562 682.058594 337.371094 680.164062 340.527344 C 678.484375 343.679688 677.644531 348.726562 677.644531 355.664062 C 677.644531 360.5 678.484375 364.601562 680.164062 367.964844 C 681.847656 371.539062 686.472656 375.429688 694.039062 379.632812 C 703.078125 384.890625 708.125 387.9375 709.175781 388.78125 C 710.015625 389.832031 710.4375 392.460938 710.4375 396.664062 C 710.4375 399.609375 710.121094 401.5 709.492188 402.34375 C 708.648438 403.394531 707.386719 403.917969 705.707031 403.917969 C 703.816406 403.917969 702.660156 403.183594 702.238281 401.710938 C 701.816406 400.871094 701.503906 399.1875 701.292969 396.664062 C 700.976562 391.617188 696.878906 387.519531 691.515625 387.519531 L 678.273438 387.519531 L 678.273438 391.617188 C 678.273438 398.769531 679.113281 404.023438 680.796875 407.386719 C 682.6875 410.960938 685.945312 413.800781 690.570312 415.902344 C 695.195312 418.007812 700.871094 419.058594 707.597656 419.058594 C 713.484375 419.058594 718.53125 418.109375 722.734375 416.21875 C 726.9375 414.117188 729.984375 411.382812 731.878906 408.019531 C 733.558594 404.445312 734.402344 399.1875 734.402344 392.25 C 734.402344 385.941406 733.246094 381.210938 730.933594 378.058594 Z M 730.933594 378.058594 " fill-opacity="1" fill-rule="evenodd"/><path fill="#4c7637" d="M 125.832031 343.050781 L 126.777344 332.011719 L 110.695312 332.011719 C 105.335938 332.011719 101.238281 336.109375 100.921875 341.472656 L 100.921875 417.480469 L 117.003906 417.480469 C 122.363281 417.164062 126.777344 412.75 126.777344 407.386719 L 126.777344 383.734375 C 126.777344 375.324219 127.09375 369.960938 127.722656 367.648438 C 128.144531 365.335938 129.511719 363.550781 131.824219 362.289062 C 133.925781 361.027344 137.394531 360.394531 142.226562 360.394531 L 142.226562 330.433594 C 135.082031 330.855469 129.617188 335.058594 125.832031 343.050781 Z M 125.832031 343.050781 " fill-opacity="1" fill-rule="evenodd"/><path fill="#4c7637" d="M 388.179688 306.148438 L 404.574219 306.148438 L 404.574219 417.480469 L 378.402344 417.480469 L 378.402344 411.171875 C 375.882812 413.695312 373.253906 415.589844 370.519531 416.851562 C 367.789062 418.320312 364.949219 419.058594 362.007812 419.058594 C 358.011719 419.058594 354.542969 418.007812 351.601562 415.902344 C 348.660156 413.589844 346.765625 411.066406 345.925781 408.335938 C 345.085938 405.601562 344.664062 401.082031 344.664062 394.773438 L 344.664062 354.71875 C 344.664062 348.199219 345.085938 343.574219 345.925781 340.84375 C 346.765625 338.109375 348.660156 335.691406 351.601562 333.589844 C 354.542969 331.484375 358.117188 330.433594 362.320312 330.433594 C 365.476562 330.433594 368.417969 330.960938 371.152344 332.011719 C 373.882812 333.273438 376.300781 335.058594 378.402344 337.371094 L 378.402344 315.925781 C 378.71875 310.566406 383.132812 306.464844 388.179688 306.148438 Z M 378.402344 353.457031 C 378.402344 350.304688 378.195312 348.199219 377.773438 347.148438 C 377.140625 346.097656 375.984375 345.574219 374.304688 345.574219 C 372.832031 345.574219 371.886719 345.992188 371.464844 346.835938 C 370.835938 347.886719 370.519531 350.09375 370.519531 353.457031 L 370.519531 395.402344 C 370.519531 398.769531 370.835938 400.976562 371.464844 402.027344 C 371.886719 403.289062 372.832031 403.917969 374.304688 403.917969 C 375.984375 403.917969 377.140625 403.289062 377.773438 402.027344 C 378.195312 400.765625 378.402344 397.714844 378.402344 392.878906 Z M 378.402344 353.457031 " fill-opacity="1" fill-rule="evenodd"/><path fill="#4c7637" d="M 124.570312 315.925781 C 124.359375 315.714844 124.253906 314.140625 124.253906 311.195312 L 124.253906 288.171875 L 127.722656 288.171875 L 127.722656 281.550781 L 124.253906 281.550781 L 124.253906 274.609375 L 116.058594 274.609375 C 113.535156 274.925781 111.328125 276.820312 111.011719 279.65625 L 111.011719 281.550781 L 108.171875 281.550781 L 108.171875 288.171875 L 111.011719 288.171875 L 111.011719 310.25 C 111.011719 314.453125 111.117188 317.082031 111.328125 318.132812 C 111.539062 319.394531 112.167969 320.445312 113.21875 321.289062 C 114.269531 322.128906 115.425781 322.761719 116.6875 323.179688 C 117.949219 323.390625 120.050781 323.496094 122.992188 323.496094 L 128.355469 323.496094 L 128.355469 316.558594 C 126.042969 316.558594 124.78125 316.347656 124.570312 315.925781 Z M 124.570312 315.925781 " fill-opacity="1" fill-rule="evenodd"/><path fill="#4c7637" d="M 193.941406 302.679688 L 177.230469 302.679688 L 177.230469 311.828125 C 177.230469 313.929688 177.335938 315.191406 177.542969 315.609375 C 177.753906 316.242188 178.28125 316.558594 179.121094 316.558594 C 180.171875 316.558594 180.800781 316.242188 181.011719 315.609375 C 181.433594 314.769531 181.644531 313.296875 181.644531 311.195312 L 181.644531 310.566406 C 181.644531 307.726562 184.164062 305.519531 187.003906 305.519531 L 193.941406 305.519531 L 193.941406 308.671875 C 193.941406 311.40625 193.835938 313.402344 193.625 314.664062 C 193.207031 316.136719 192.363281 317.714844 191.101562 319.394531 C 189.84375 320.867188 188.265625 322.023438 186.375 322.863281 C 184.480469 323.707031 182.167969 324.125 179.4375 324.125 C 176.703125 324.125 174.285156 323.707031 172.183594 322.863281 C 170.082031 322.234375 168.398438 321.183594 167.140625 319.710938 C 165.878906 318.238281 165.035156 316.664062 164.617188 314.980469 C 164.195312 313.296875 163.984375 310.878906 163.984375 307.726562 L 163.984375 295.425781 C 163.984375 291.640625 164.511719 288.59375 165.5625 286.28125 C 166.613281 284.179688 168.292969 282.601562 170.605469 281.550781 C 172.917969 280.289062 175.546875 279.65625 178.492188 279.65625 C 182.0625 279.65625 185.113281 280.394531 187.632812 281.863281 C 189.945312 283.125 191.628906 284.914062 192.679688 287.226562 C 193.519531 289.539062 193.941406 292.796875 193.941406 297.003906 Z M 181.011719 292.589844 C 181.011719 290.273438 180.90625 288.804688 180.699219 288.171875 C 180.277344 287.542969 179.75 287.226562 179.121094 287.226562 C 178.28125 287.226562 177.753906 287.542969 177.542969 288.171875 C 177.335938 288.59375 177.230469 290.066406 177.230469 292.589844 L 177.230469 295.742188 L 181.011719 295.742188 Z M 181.011719 292.589844 " fill-opacity="1" fill-rule="evenodd"/><path fill="#4c7637" d="M 160.832031 285.335938 C 160.410156 283.863281 159.359375 282.601562 157.679688 281.550781 C 156.207031 280.289062 154.316406 279.65625 152.003906 279.65625 C 150.53125 279.65625 149.058594 279.972656 147.589844 280.605469 C 146.328125 281.023438 145.171875 281.761719 144.121094 282.8125 L 144.121094 276.1875 C 144.121094 273.351562 141.597656 271.140625 138.761719 271.140625 L 130.875 271.140625 L 130.875 318.449219 C 131.191406 321.289062 133.398438 323.496094 136.238281 323.496094 L 144.121094 323.496094 L 144.121094 292.902344 C 144.121094 290.589844 144.226562 289.117188 144.4375 288.488281 C 144.855469 287.648438 145.382812 287.226562 146.011719 287.226562 C 146.851562 287.226562 147.484375 287.648438 147.902344 288.488281 C 148.113281 289.117188 148.21875 290.695312 148.21875 293.21875 L 148.21875 318.132812 C 148.21875 320.972656 150.425781 323.496094 153.265625 323.496094 L 161.148438 323.496094 L 161.148438 293.851562 C 161.148438 289.855469 161.042969 287.015625 160.832031 285.335938 Z M 160.832031 285.335938 " fill-opacity="1" fill-rule="evenodd"/><path fill="#4c7637" d="M 93.039062 343.050781 L 93.039062 338.003906 C 93.039062 328.332031 92.09375 320.972656 90.199219 315.925781 C 88.519531 310.878906 84.734375 306.570312 78.847656 302.996094 C 72.964844 299.210938 65.5 297.320312 56.460938 297.320312 C 47.421875 297.320312 39.960938 299.421875 34.074219 303.625 C 28.398438 307.832031 24.929688 312.5625 23.667969 317.820312 C 22.617188 322.863281 22.089844 330.960938 22.089844 342.105469 L 22.089844 377.109375 C 22.089844 385.3125 22.300781 391.410156 22.722656 395.402344 C 23.351562 399.398438 24.824219 403.289062 27.136719 407.074219 C 29.449219 410.648438 32.917969 413.695312 37.542969 416.21875 C 41.957031 418.742188 46.6875 420.003906 51.730469 420.003906 C 56.144531 420.003906 59.929688 419.058594 63.082031 417.164062 C 66.234375 415.484375 68.863281 412.75 70.964844 408.964844 L 73.804688 417.480469 L 93.039062 417.480469 L 93.039062 354.402344 L 57.089844 354.402344 L 57.089844 372.066406 L 63.398438 372.066406 L 63.398438 386.257812 C 63.398438 391.722656 62.976562 395.402344 62.136719 397.296875 C 61.296875 399.1875 59.824219 400.132812 57.722656 400.132812 C 55.621094 400.132812 54.253906 399.292969 53.625 397.609375 C 52.78125 395.929688 52.363281 392.460938 52.363281 387.203125 L 52.363281 330.75 C 52.363281 324.652344 52.78125 320.867188 53.625 319.394531 C 54.253906 317.925781 55.515625 317.1875 57.40625 317.1875 C 59.507812 317.1875 60.875 318.027344 61.507812 319.710938 C 62.136719 321.394531 62.453125 324.96875 62.453125 330.433594 C 62.765625 337.371094 68.128906 342.734375 74.75 343.050781 Z M 93.039062 343.050781 " fill-opacity="1" fill-rule="evenodd"/><path fill="#f2c317" d="M 544.894531 343.050781 L 544.894531 338.003906 C 544.894531 328.332031 543.945312 320.972656 542.054688 315.925781 C 540.375 310.878906 536.589844 306.570312 530.703125 302.996094 C 524.816406 299.210938 517.355469 297.320312 508.316406 297.320312 C 499.277344 297.320312 491.917969 299.421875 486.242188 303.625 C 480.355469 307.832031 476.890625 312.5625 475.835938 317.820312 C 474.578125 322.863281 473.945312 330.960938 473.945312 342.105469 L 473.945312 377.109375 C 473.945312 385.3125 474.261719 391.410156 474.890625 395.402344 C 475.3125 399.398438 476.679688 403.289062 478.992188 407.074219 C 481.304688 410.648438 484.773438 413.695312 489.394531 416.21875 C 493.8125 418.742188 498.539062 420.003906 503.585938 420.003906 C 508 420.003906 511.785156 419.058594 514.9375 417.164062 C 518.089844 415.484375 520.71875 412.75 522.820312 408.964844 L 525.660156 417.480469 L 544.894531 417.480469 L 544.894531 354.402344 L 508.945312 354.402344 L 508.945312 372.066406 L 515.253906 372.066406 L 515.253906 386.257812 C 515.253906 391.722656 514.832031 395.402344 513.992188 397.296875 C 513.152344 399.1875 511.679688 400.132812 509.578125 400.132812 C 507.476562 400.132812 506.109375 399.292969 505.476562 397.609375 C 504.847656 395.929688 504.53125 392.460938 504.53125 387.203125 L 504.53125 330.75 C 504.53125 324.652344 504.847656 320.867188 505.476562 319.394531 C 506.109375 317.925781 507.371094 317.1875 509.261719 317.1875 C 511.363281 317.1875 512.730469 318.027344 513.359375 319.710938 C 513.992188 321.394531 514.308594 324.96875 514.308594 330.433594 C 514.621094 337.371094 519.984375 342.734375 526.605469 343.050781 Z M 544.894531 343.050781 " fill-opacity="1" fill-rule="evenodd"/><path fill="#4c7637" d="M 732.824219 336.742188 C 732.824219 335.058594 733.453125 333.589844 734.714844 332.328125 C 735.976562 331.066406 737.554688 330.433594 739.445312 330.433594 C 741.128906 330.433594 742.597656 331.066406 743.859375 332.328125 C 745.121094 333.589844 745.753906 335.058594 745.753906 336.742188 C 745.753906 338.632812 745.121094 340.210938 743.859375 341.472656 C 742.597656 342.734375 741.128906 343.363281 739.445312 343.363281 C 737.554688 343.363281 735.976562 342.734375 734.714844 341.472656 C 733.453125 340.210938 732.824219 338.632812 732.824219 336.742188 Z M 744.492188 336.742188 C 744.492188 335.269531 744.070312 334.007812 743.230469 332.957031 C 742.179688 332.117188 740.917969 331.695312 739.445312 331.695312 C 737.972656 331.695312 736.714844 332.117188 735.660156 332.957031 C 734.820312 334.007812 734.402344 335.269531 734.402344 336.742188 C 734.402344 338.214844 734.820312 339.476562 735.660156 340.527344 C 736.714844 341.578125 737.972656 342.105469 739.445312 342.105469 C 740.917969 342.105469 742.179688 341.578125 743.230469 340.527344 C 744.070312 339.476562 744.492188 338.214844 744.492188 336.742188 Z M 736.609375 340.210938 L 736.609375 333.273438 L 739.761719 333.273438 C 740.601562 333.273438 741.128906 333.484375 741.335938 333.902344 C 741.757812 334.113281 741.96875 334.535156 741.96875 335.164062 C 741.96875 335.796875 741.863281 336.214844 741.652344 336.425781 C 741.234375 336.847656 740.707031 337.058594 740.078125 337.058594 L 740.078125 337.371094 C 740.496094 337.371094 740.8125 337.476562 741.023438 337.6875 C 741.023438 337.898438 741.234375 338.320312 741.652344 338.949219 L 742.597656 340.210938 L 740.707031 340.210938 L 740.078125 339.265625 C 739.867188 338.425781 739.550781 337.898438 739.128906 337.6875 C 738.921875 337.476562 738.605469 337.371094 738.183594 337.371094 L 737.867188 337.371094 L 737.867188 340.210938 Z M 737.871094 336.425781 L 739.128906 336.425781 C 739.761719 336.425781 740.179688 336.320312 740.390625 336.109375 C 740.601562 335.902344 740.707031 335.691406 740.707031 335.480469 C 740.707031 334.851562 740.179688 334.535156 739.128906 334.535156 L 737.871094 334.535156 Z M 737.871094 336.425781 " fill-opacity="1" fill-rule="evenodd"/><path fill="#4c7637" d="M 406.152344 481.1875 C 406.152344 480.769531 406.363281 480.242188 406.78125 479.609375 C 407.203125 479.191406 407.726562 478.980469 408.359375 478.980469 C 408.988281 478.980469 409.515625 479.191406 409.9375 479.609375 C 410.355469 480.242188 410.566406 480.769531 410.566406 481.1875 C 410.566406 481.820312 410.355469 482.34375 409.9375 482.765625 C 409.515625 483.1875 408.988281 483.394531 408.359375 483.394531 C 407.726562 483.394531 407.203125 483.1875 406.78125 482.765625 C 406.363281 482.34375 406.152344 481.820312 406.152344 481.1875 Z M 410.25 481.1875 C 410.25 480.769531 410.039062 480.347656 409.621094 479.925781 C 409.199219 479.714844 408.78125 479.609375 408.359375 479.609375 C 407.9375 479.609375 407.519531 479.714844 407.097656 479.925781 C 406.675781 480.347656 406.46875 480.769531 406.46875 481.1875 C 406.46875 481.820312 406.675781 482.238281 407.097656 482.449219 C 407.519531 482.871094 407.9375 483.082031 408.359375 483.082031 C 408.78125 483.082031 409.199219 482.871094 409.621094 482.449219 C 410.039062 482.238281 410.25 481.820312 410.25 481.1875 Z M 407.414062 482.449219 L 407.414062 480.242188 L 408.359375 480.242188 C 408.570312 480.242188 408.78125 480.242188 408.988281 480.242188 C 409.199219 480.453125 409.304688 480.664062 409.304688 480.871094 C 409.304688 481.082031 409.199219 481.1875 408.988281 481.1875 C 408.988281 481.398438 408.882812 481.503906 408.675781 481.503906 C 408.675781 481.503906 408.78125 481.503906 408.988281 481.503906 C 408.988281 481.714844 408.988281 481.925781 408.988281 482.132812 L 409.304688 482.449219 L 408.675781 482.449219 L 408.675781 482.132812 C 408.464844 481.925781 408.359375 481.820312 408.359375 481.820312 C 408.148438 481.609375 408.042969 481.503906 408.042969 481.503906 L 407.726562 481.503906 L 407.726562 482.449219 Z M 408.042969 481.1875 L 408.359375 481.1875 C 408.570312 481.1875 408.675781 481.1875 408.675781 481.1875 C 408.882812 481.1875 408.988281 481.082031 408.988281 480.871094 C 408.988281 480.664062 408.78125 480.558594 408.359375 480.558594 L 408.042969 480.558594 Z M 408.042969 481.1875 " fill-opacity="1" fill-rule="evenodd"/></svg>