<svg xmlns="http://www.w3.org/2000/svg" xmlns:xlink="http://www.w3.org/1999/xlink" width="1024" zoomAndPan="magnify" viewBox="0 0 768 767.999994" height="1024" preserveAspectRatio="xMidYMid meet" version="1.0"><defs><clipPath id="b4f3f46075"><path d="M 118.261719 118.261719 L 650.011719 118.261719 L 650.011719 650.011719 L 118.261719 650.011719 Z M 118.261719 118.261719 " clip-rule="nonzero"/></clipPath></defs><g clip-path="url(#b4f3f46075)"><path fill="#ffffff" d="M 383.136719 118.261719 C 529.894531 117.71875 649.460938 236.382812 650.011719 383.136719 C 650.550781 529.894531 531.878906 649.460938 385.132812 650.011719 C 238.378906 650.550781 118.808594 531.878906 118.261719 385.132812 C 117.71875 238.203125 236.382812 118.808594 383.136719 118.261719 Z M 383.136719 118.261719 " fill-opacity="1" fill-rule="nonzero"/></g><path fill="#010101" d="M 165.011719 384.949219 C 164.457031 263.925781 262.304688 165.363281 383.320312 165.003906 C 504.351562 164.636719 602.910156 262.296875 603.273438 383.496094 C 603.632812 504.527344 505.980469 603.082031 384.773438 603.449219 C 263.75 603.804688 165.371094 505.972656 165.011719 384.949219 Z M 165.011719 384.949219 " fill-opacity="1" fill-rule="nonzero"/><path fill="#54b948" d="M 384.042969 631.898438 C 264.648438 631.898438 159.203125 545.289062 139.457031 423.910156 C 117.710938 288.917969 209.570312 161.382812 344.363281 139.644531 C 479.335938 117.71875 606.886719 209.570312 628.804688 344.554688 C 650.734375 479.34375 558.691406 606.886719 423.898438 628.816406 C 410.488281 630.992188 397.089844 631.890625 384.042969 631.890625 Z M 153.589844 421.539062 C 174.242188 548.546875 294.359375 635.320312 421.539062 614.671875 C 548.546875 594.019531 635.328125 473.902344 614.671875 346.722656 C 594.019531 219.714844 473.902344 133.109375 346.722656 153.589844 C 219.707031 174.242188 132.941406 294.367188 153.589844 421.546875 Z M 153.589844 421.539062 " fill-opacity="1" fill-rule="nonzero"/><path fill="#54b948" d="M 294.1875 372.453125 L 308.859375 463.398438 C 311.394531 478.804688 307.945312 505.972656 276.789062 511.050781 C 267.367188 512.503906 238.203125 513.582031 234.582031 491.847656 C 232.585938 479.527344 244.71875 474.273438 260.667969 471.742188 L 272.625 469.746094 L 260.84375 397.628906 Z M 442.378906 416.835938 C 448.003906 451.984375 424.082031 485.132812 388.9375 490.941406 C 353.792969 496.558594 320.640625 472.636719 314.832031 437.492188 C 309.226562 402.347656 333.136719 369.195312 368.28125 363.386719 C 403.425781 357.78125 436.769531 381.691406 442.386719 416.835938 Z M 383.6875 457.601562 C 384.6875 457.4375 385.675781 457.222656 386.652344 456.960938 C 387.632812 456.703125 388.59375 456.394531 389.542969 456.039062 C 390.492188 455.683594 391.417969 455.28125 392.328125 454.835938 C 393.238281 454.386719 394.121094 453.898438 394.984375 453.363281 C 395.84375 452.832031 396.675781 452.257812 397.480469 451.640625 C 398.285156 451.027344 399.058594 450.375 399.796875 449.683594 C 400.539062 448.992188 401.242188 448.265625 401.910156 447.503906 C 402.578125 446.746094 403.210938 445.953125 403.800781 445.132812 C 404.394531 444.308594 404.941406 443.460938 405.449219 442.585938 C 405.957031 441.710938 406.421875 440.808594 406.84375 439.890625 C 407.261719 438.96875 407.636719 438.027344 407.964844 437.070312 C 408.289062 436.109375 408.570312 435.140625 408.804688 434.152344 C 409.035156 433.167969 409.21875 432.171875 409.351562 431.167969 C 409.488281 430.167969 409.574219 429.160156 409.609375 428.144531 C 409.644531 427.132812 409.628906 426.121094 409.566406 425.113281 C 409.503906 424.101562 409.390625 423.097656 409.226562 422.097656 C 409.0625 421.097656 408.851562 420.109375 408.589844 419.128906 C 408.328125 418.152344 408.023438 417.1875 407.667969 416.238281 C 407.3125 415.289062 406.910156 414.359375 406.464844 413.453125 C 406.015625 412.542969 405.527344 411.65625 404.992188 410.796875 C 404.460938 409.933594 403.886719 409.101562 403.269531 408.296875 C 402.65625 407.492188 402 406.71875 401.308594 405.980469 C 400.621094 405.238281 399.894531 404.535156 399.132812 403.863281 C 398.371094 403.195312 397.582031 402.566406 396.757812 401.972656 C 395.9375 401.382812 395.085938 400.832031 394.210938 400.324219 C 393.335938 399.816406 392.4375 399.351562 391.515625 398.929688 C 390.59375 398.511719 389.652344 398.136719 388.695312 397.808594 C 387.734375 397.484375 386.761719 397.203125 385.777344 396.96875 C 384.789062 396.738281 383.796875 396.554688 382.792969 396.421875 C 381.789062 396.285156 380.78125 396.203125 379.765625 396.164062 C 378.753906 396.128906 377.742188 396.144531 376.730469 396.207031 C 375.722656 396.273438 374.714844 396.386719 373.714844 396.546875 C 372.714844 396.710938 371.726562 396.925781 370.75 397.183594 C 369.769531 397.445312 368.808594 397.753906 367.859375 398.109375 C 366.910156 398.464844 365.980469 398.867188 365.074219 399.3125 C 364.164062 399.761719 363.277344 400.25 362.417969 400.785156 C 361.558594 401.316406 360.722656 401.890625 359.917969 402.507812 C 359.113281 403.121094 358.34375 403.777344 357.601562 404.46875 C 356.863281 405.160156 356.15625 405.882812 355.488281 406.644531 C 354.820312 407.40625 354.1875 408.195312 353.597656 409.019531 C 353.007812 409.839844 352.457031 410.691406 351.949219 411.566406 C 351.441406 412.441406 350.976562 413.339844 350.558594 414.261719 C 350.136719 415.183594 349.761719 416.125 349.4375 417.082031 C 349.109375 418.042969 348.828125 419.015625 348.597656 420 C 348.363281 420.984375 348.183594 421.980469 348.046875 422.984375 C 347.914062 423.988281 347.828125 424.996094 347.792969 426.007812 C 347.757812 427.019531 347.773438 428.03125 347.835938 429.042969 C 347.898438 430.054688 348.011719 431.058594 348.175781 432.058594 C 351.074219 448.910156 366.835938 460.316406 383.6875 457.601562 Z M 493.476562 442.742188 L 548.910156 433.6875 L 543.660156 465.757812 L 462.851562 478.804688 L 442.203125 351.433594 L 529.527344 337.308594 L 534.421875 367.742188 L 482.601562 376.074219 L 485.507812 394.1875 L 511.40625 390.027344 C 519.566406 388.753906 527.53125 394.371094 528.804688 402.523438 C 530.066406 410.679688 524.449219 418.648438 516.300781 419.921875 L 490.394531 424.082031 L 493.46875 442.742188 Z M 493.476562 442.742188 " fill-opacity="1" fill-rule="nonzero"/><path fill="#fff21f" d="M 200.332031 324.621094 C 200.195312 323.660156 199.894531 322.753906 199.425781 321.902344 C 199.109375 321.226562 198.6875 320.625 198.164062 320.09375 C 197.796875 319.550781 197.441406 319.1875 197.074219 318.648438 C 196.753906 318.136719 196.511719 317.589844 196.351562 317.011719 C 197.433594 316.835938 198.347656 316.652344 199.253906 316.652344 L 203.964844 316.652344 C 204.6875 316.652344 205.589844 316.46875 206.679688 316.285156 C 207.761719 316.105469 208.675781 315.746094 209.753906 315.207031 C 210.667969 314.839844 214.464844 312.847656 215.554688 312.480469 C 216.46875 312.125 217.546875 311.757812 218.628906 311.402344 C 218.453125 312.125 218.453125 312.664062 218.269531 313.203125 C 218.085938 313.753906 218.085938 314.292969 218.085938 314.660156 L 218.085938 316.105469 C 218.085938 316.46875 218.085938 317.019531 218.269531 317.558594 L 218.636719 319.910156 L 227.328125 345.824219 L 227.875 318.464844 L 227.875 317.375 C 227.875 317.011719 227.691406 316.835938 227.691406 316.460938 C 227.5625 315.84375 227.382812 315.246094 227.152344 314.660156 C 226.96875 314.109375 226.605469 313.578125 226.421875 313.203125 C 226.246094 312.847656 225.882812 312.300781 225.699219 311.941406 C 225.460938 311.417969 225.28125 310.875 225.160156 310.3125 C 226.0625 310.128906 226.785156 309.949219 227.691406 309.949219 C 228.605469 309.949219 229.320312 309.949219 230.226562 309.765625 C 231.140625 309.765625 231.863281 309.765625 232.769531 309.582031 C 233.675781 309.582031 234.582031 309.40625 235.484375 309.226562 C 236.75 308.859375 237.65625 308.675781 238.386719 308.3125 C 239.109375 307.953125 240.015625 307.769531 240.738281 307.414062 C 241.460938 307.046875 242.367188 306.863281 243.097656 306.5 C 244.003906 306.140625 245.089844 305.777344 246.355469 305.601562 C 246.355469 306.507812 246.171875 307.230469 245.988281 308.136719 C 245.8125 309.042969 245.449219 309.765625 245.082031 310.671875 C 244.726562 311.585938 244.542969 312.300781 244.175781 313.203125 C 244.003906 314.117188 243.820312 314.839844 243.820312 315.746094 L 251.246094 361.039062 C 251.429688 362.492188 251.789062 363.753906 252.328125 364.476562 C 252.691406 365.207031 253.242188 365.75 253.597656 366.289062 C 254.148438 366.652344 254.511719 367.203125 254.871094 367.375 C 255.226562 367.742188 255.410156 368.289062 255.59375 369.011719 C 254.511719 369.1875 253.78125 369.371094 253.242188 369.371094 L 249.785156 369.371094 C 248.851562 369.410156 247.945312 369.59375 247.066406 369.917969 C 246.34375 370.09375 245.804688 370.277344 245.257812 370.460938 C 244.71875 370.640625 244.175781 371 243.628906 371.183594 C 243.078125 371.363281 242.546875 371.730469 242 371.914062 L 240.363281 372.453125 C 240.175781 371.726562 240.175781 371.003906 240.363281 370.277344 C 240.546875 369.554688 240.730469 369.011719 240.910156 368.109375 C 241.09375 367.375 241.269531 366.289062 241.453125 365.199219 C 241.632812 364.121094 241.453125 362.664062 241.09375 360.855469 L 237.472656 338.753906 C 237.289062 338.753906 237.289062 339.300781 237.105469 340.199219 C 236.867188 341.519531 236.746094 342.847656 236.742188 344.1875 C 236.519531 345.992188 236.398438 347.804688 236.382812 349.621094 C 236.199219 351.613281 236.199219 353.792969 236.019531 355.96875 C 236.019531 358.136719 235.835938 360.132812 235.835938 362.308594 L 235.835938 367.742188 C 236.019531 368.28125 236.019531 368.824219 236.382812 369.1875 C 236.558594 369.554688 236.742188 370.101562 237.105469 370.460938 C 237.289062 370.824219 237.644531 371.183594 237.828125 371.539062 C 238.011719 371.90625 238.195312 372.269531 238.195312 372.808594 C 236.878906 373.125 235.550781 373.371094 234.207031 373.542969 C 232.863281 373.710938 231.535156 373.953125 230.21875 374.265625 C 229.679688 374.445312 229.136719 374.628906 228.773438 374.804688 C 228.40625 374.988281 227.859375 375.171875 227.5 375.535156 C 226.960938 375.710938 226.597656 376.074219 226.054688 376.257812 C 225.507812 376.441406 225.140625 376.617188 224.601562 376.796875 C 224.96875 375.71875 225.148438 374.628906 225.148438 373.542969 C 225.148438 372.453125 225.148438 371.546875 224.96875 370.460938 C 224.785156 369.734375 224.785156 369.1875 224.425781 368.464844 C 224.265625 367.769531 224.019531 367.105469 223.695312 366.472656 C 222.433594 363.03125 218.078125 351.257812 217.175781 349.082031 C 216.269531 346.902344 215.546875 345.09375 214.824219 343.828125 C 214.101562 342.558594 213.734375 342.011719 213.367188 342.011719 L 217.539062 367.375 C 217.722656 368.648438 218.078125 369.734375 218.445312 370.460938 C 218.8125 371.183594 219.351562 371.914062 219.714844 372.636719 C 220.074219 373.175781 220.621094 373.898438 220.980469 374.445312 C 221.359375 375.125 221.597656 375.847656 221.703125 376.617188 C 221.160156 376.796875 220.621094 376.796875 220.257812 376.796875 C 219.890625 376.796875 219.535156 376.796875 219.175781 376.617188 L 217.90625 376.617188 C 217.539062 376.617188 216.992188 376.617188 216.269531 376.796875 C 215.335938 377.019531 214.429688 377.324219 213.550781 377.710938 C 212.644531 378.070312 211.921875 378.433594 211.015625 378.792969 C 210.101562 379.15625 209.390625 379.515625 208.484375 379.871094 C 207.570312 380.246094 206.671875 380.605469 205.574219 380.785156 C 205.457031 380.046875 205.519531 379.320312 205.765625 378.609375 C 205.941406 377.886719 206.304688 377.164062 206.671875 376.257812 C 207.027344 375.34375 207.210938 374.445312 207.394531 373.542969 C 207.578125 372.390625 207.578125 371.242188 207.394531 370.09375 Z M 255.777344 320.988281 C 255.285156 318.261719 255.34375 315.550781 255.957031 312.847656 C 256.507812 310.304688 257.585938 308.128906 258.859375 306.316406 C 260.128906 304.503906 261.933594 302.878906 263.75 301.605469 C 265.746094 300.34375 267.738281 299.429688 269.910156 298.890625 C 272.121094 298.3125 274.355469 298.195312 276.613281 298.53125 C 278.789062 298.707031 280.785156 299.429688 282.59375 300.699219 C 284.40625 301.789062 286.035156 303.417969 287.308594 305.410156 C 288.570312 307.40625 289.476562 309.9375 290.015625 313.023438 L 294.1875 338.570312 C 294.675781 341.296875 294.617188 344.011719 294.003906 346.714844 C 293.476562 349.214844 292.570312 351.574219 291.285156 353.785156 C 290.042969 355.945312 288.414062 357.757812 286.394531 359.21875 C 284.402344 360.675781 282.230469 361.761719 279.871094 362.484375 C 277.875 363.023438 275.707031 363.207031 273.714844 363.023438 C 271.671875 362.867188 269.738281 362.324219 267.914062 361.394531 C 266.039062 360.421875 264.46875 359.09375 263.203125 357.40625 C 261.855469 355.417969 260.949219 353.242188 260.488281 350.882812 Z M 277.152344 315.738281 C 277.046875 314.855469 276.804688 314.011719 276.429688 313.203125 C 276.15625 312.542969 275.738281 312 275.167969 311.566406 C 274.800781 311.210938 274.253906 310.84375 273.714844 310.84375 C 273.230469 310.664062 272.75 310.664062 272.269531 310.84375 C 271.644531 311.007812 271.097656 311.3125 270.632812 311.757812 C 270.089844 312.117188 269.726562 312.65625 269.1875 313.386719 C 268.773438 314.128906 268.46875 314.914062 268.273438 315.738281 C 268.089844 316.707031 268.089844 317.671875 268.273438 318.636719 L 272.808594 346.722656 C 273.171875 348.351562 273.886719 349.4375 274.984375 349.976562 C 276.011719 350.523438 277.09375 350.703125 278.242188 350.527344 C 278.816406 350.359375 279.359375 350.121094 279.871094 349.804688 C 280.386719 349.472656 280.808594 349.046875 281.140625 348.53125 C 281.492188 347.972656 281.734375 347.371094 281.863281 346.722656 C 282.050781 345.996094 282.050781 345.269531 281.863281 344.542969 Z M 302.152344 328.242188 C 302.695312 328.070312 303.234375 328.425781 303.964844 329.15625 C 304.6875 329.878906 305.410156 330.785156 306.324219 332.046875 C 307.222656 333.136719 308.128906 334.40625 309.214844 335.671875 C 310.304688 336.941406 311.574219 338.214844 312.839844 339.117188 C 314.109375 340.199219 315.746094 340.929688 317.375 341.289062 C 319.003906 341.835938 320.816406 341.835938 322.808594 341.289062 C 323.292969 341.15625 323.714844 340.914062 324.070312 340.566406 C 324.429688 340.25 324.734375 339.890625 324.984375 339.484375 C 325.160156 339.117188 325.34375 338.570312 325.527344 338.03125 C 325.710938 337.488281 325.710938 336.945312 325.527344 336.402344 C 325.222656 334.714844 324.617188 333.144531 323.714844 331.691406 C 322.796875 330.3125 321.644531 329.164062 320.265625 328.242188 C 318.886719 327.125 317.375 326.21875 315.738281 325.527344 C 314.109375 324.621094 312.480469 323.898438 310.671875 322.992188 C 309.042969 322.085938 307.222656 321.363281 305.601562 320.273438 C 304.019531 319.355469 302.507812 318.332031 301.066406 317.199219 C 299.667969 316.019531 298.519531 314.628906 297.625 313.03125 C 296.660156 311.328125 295.996094 309.515625 295.632812 307.597656 C 295.300781 305.632812 295.421875 303.703125 295.996094 301.796875 C 296.539062 299.804688 297.261719 298.175781 298.53125 296.539062 C 299.613281 294.910156 301.066406 293.464844 302.695312 292.375 C 304.332031 291.105469 306.140625 290.382812 307.953125 289.839844 C 309.214844 289.476562 310.304688 289.292969 311.394531 289.292969 C 312.472656 289.292969 313.753906 289.109375 314.832031 289.109375 C 315.921875 289.109375 317.011719 288.933594 318.097656 288.933594 C 319.179688 288.933594 320.273438 288.753906 321.355469 288.386719 C 322.085938 288.203125 322.808594 288.03125 323.347656 287.664062 C 323.898438 287.296875 324.621094 286.941406 325.160156 286.582031 L 326.796875 285.488281 C 327.355469 285.136719 327.960938 284.894531 328.609375 284.765625 C 328.273438 289.058594 327.851562 293.347656 327.335938 297.625 C 326.789062 301.980469 326.257812 306.140625 325.882812 310.488281 C 325.527344 309.582031 325.160156 308.492188 324.621094 307.597656 C 324.070312 306.507812 323.707031 305.601562 322.992188 304.6875 C 322.386719 303.742188 321.722656 302.839844 321 301.980469 C 320.230469 301.214844 319.386719 300.550781 318.464844 299.984375 C 317.460938 299.375 316.371094 299.070312 315.199219 299.070312 C 314.117188 298.898438 312.664062 299.070312 311.210938 299.4375 C 310.5625 299.566406 309.960938 299.808594 309.398438 300.160156 C 308.886719 300.492188 308.464844 300.917969 308.136719 301.429688 C 307.769531 301.980469 307.40625 302.519531 307.40625 303.058594 C 307.21875 303.722656 307.21875 304.390625 307.40625 305.054688 C 307.5625 306.085938 308.046875 306.933594 308.859375 307.597656 C 309.765625 308.320312 310.671875 309.226562 311.933594 309.949219 C 313.203125 310.671875 314.660156 311.574219 316.285156 312.480469 L 321.171875 315.199219 C 322.808594 316.113281 324.621094 317.191406 326.25 318.28125 C 327.878906 319.359375 329.515625 320.640625 330.777344 322.085938 C 332.230469 323.53125 333.320312 324.984375 334.226562 326.613281 C 335.132812 328.242188 335.855469 330.054688 336.21875 332.046875 C 336.617188 334.234375 336.558594 336.410156 336.035156 338.570312 C 335.488281 340.566406 334.765625 342.558594 333.675781 344.1875 C 332.597656 345.824219 331.144531 347.269531 329.515625 348.542969 C 327.878906 349.804688 325.890625 350.535156 323.898438 351.074219 C 322.808594 351.433594 321.722656 351.433594 320.632812 351.617188 C 319.550781 351.617188 318.464844 351.796875 317.375 351.796875 C 316.285156 351.796875 315.199219 351.796875 314.109375 351.980469 C 313.03125 351.980469 311.941406 352.164062 310.851562 352.519531 C 310.136719 352.714844 309.472656 353.019531 308.859375 353.433594 C 308.152344 353.789062 307.488281 354.210938 306.863281 354.699219 C 306.238281 355.019531 305.636719 355.378906 305.054688 355.777344 C 304.546875 356.097656 304.003906 356.339844 303.425781 356.507812 C 303.242188 355.363281 303.242188 354.214844 303.425781 353.070312 L 303.964844 349.804688 C 304.148438 348.722656 304.332031 347.453125 304.503906 346.363281 C 304.6875 345.09375 304.503906 343.648438 304.332031 342.019531 C 304.148438 340.746094 303.78125 339.292969 303.601562 338.03125 C 303.242188 336.757812 302.335938 332.230469 301.972656 331.144531 C 302.398438 330.199219 302.457031 329.234375 302.152344 328.242188 Z M 359.765625 342.558594 C 357.714844 342.625 355.722656 342.320312 353.785156 341.644531 C 351.988281 340.964844 350.363281 340.003906 348.898438 338.761719 C 347.4375 337.519531 346.226562 336.070312 345.265625 334.40625 C 344.332031 332.691406 343.667969 330.878906 343.273438 328.964844 L 338.386719 299.078125 C 338.023438 296.355469 338.023438 293.636719 338.746094 291.46875 C 339.476562 289.109375 340.382812 287.117188 341.828125 285.304688 C 343.21875 283.507812 344.910156 282.0625 346.894531 280.957031 C 348.890625 279.6875 350.882812 278.964844 353.242188 278.425781 C 355.421875 277.875 357.589844 277.695312 359.949219 277.875 C 362.117188 278.058594 364.113281 278.789062 365.929688 279.6875 C 367.734375 280.777344 369.371094 282.230469 370.632812 284.042969 C 371.90625 285.851562 372.808594 288.203125 373.351562 291.105469 L 377.878906 319.371094 C 378.246094 321.179688 378.246094 322.808594 377.878906 324.804688 C 377.628906 326.65625 377.207031 328.464844 376.617188 330.238281 C 375.953125 332.015625 375.109375 333.707031 374.082031 335.304688 C 373.003906 336.871094 371.734375 338.261719 370.277344 339.476562 C 370.816406 340.199219 371.539062 340.929688 372.269531 341.46875 L 374.980469 343.097656 C 375.894531 343.648438 376.972656 344.011719 378.0625 344.371094 C 379.148438 344.734375 380.054688 345.09375 380.96875 345.449219 C 381.867188 345.816406 382.589844 346.179688 383.128906 346.546875 C 383.679688 346.902344 384.042969 347.269531 384.042969 347.628906 C 383.679688 347.808594 382.773438 347.808594 381.683594 347.992188 C 380.605469 348.175781 375.34375 348.90625 373.898438 349.265625 C 372.445312 349.4375 371.183594 349.804688 370.09375 349.988281 C 369.179688 350.167969 368.28125 350.527344 367.558594 350.710938 C 366.199219 351.332031 364.808594 351.875 363.386719 352.339844 C 362.636719 352.691406 361.847656 352.933594 361.027344 353.070312 Z M 361.394531 295.816406 C 361.226562 294.75 360.925781 293.726562 360.488281 292.742188 C 360.15625 291.96875 359.671875 291.304688 359.042969 290.746094 C 358.53125 290.257812 357.929688 289.953125 357.230469 289.832031 C 356.566406 289.648438 355.902344 289.648438 355.238281 289.832031 C 354.570312 289.984375 353.976562 290.285156 353.460938 290.734375 C 352.945312 291.1875 352.570312 291.734375 352.328125 292.375 C 351.613281 293.636719 351.433594 295.449219 351.972656 297.808594 L 356.328125 324.621094 C 356.683594 326.796875 357.40625 328.242188 358.496094 329.148438 C 359.582031 330.0625 360.671875 330.238281 361.933594 329.871094 C 362.484375 329.695312 363.207031 329.515625 363.753906 328.964844 C 364.378906 328.550781 364.859375 328.007812 365.199219 327.335938 C 365.613281 326.660156 365.917969 325.9375 366.113281 325.167969 C 366.296875 324.199219 366.296875 323.230469 366.113281 322.261719 Z M 382.589844 278.609375 C 382.511719 277.769531 382.273438 276.984375 381.867188 276.246094 C 381.546875 275.734375 381.1875 275.25 380.785156 274.792969 L 379.699219 273.714844 C 379.332031 273.347656 379.148438 272.984375 379.148438 272.625 C 379.871094 272.441406 380.605469 272.441406 381.328125 272.261719 C 382.050781 272.261719 382.957031 272.085938 384.042969 272.085938 C 384.949219 272.085938 386.039062 271.902344 387.117188 271.902344 C 388.207031 271.71875 389.292969 271.535156 390.566406 271.355469 C 391.289062 271.171875 392.011719 270.996094 392.742188 270.632812 C 393.28125 270.449219 393.824219 270.089844 394.371094 269.910156 C 394.910156 269.726562 395.453125 269.359375 395.816406 269.1875 L 397.453125 268.636719 C 397.453125 269.003906 397.453125 269.550781 397.269531 270.089844 C 397.089844 270.632812 396.722656 271.171875 396.539062 271.902344 C 396.164062 272.710938 395.925781 273.554688 395.816406 274.4375 C 395.640625 275.582031 395.640625 276.730469 395.816406 277.875 L 402.164062 316.46875 C 402.164062 317.011719 402.523438 317.375 402.886719 317.734375 C 403.246094 318.097656 403.792969 318.28125 404.332031 318.464844 C 404.882812 318.636719 405.421875 318.820312 406.144531 318.820312 C 406.867188 318.820312 407.414062 318.820312 408.136719 318.648438 C 408.855469 318.453125 409.519531 318.148438 410.132812 317.734375 C 410.855469 317.375 411.210938 316.828125 411.761719 316.46875 C 412.175781 315.921875 412.480469 315.316406 412.675781 314.660156 C 412.847656 313.9375 412.847656 313.203125 412.847656 312.480469 L 406.691406 274.070312 C 406.558594 273.421875 406.316406 272.820312 405.960938 272.261719 C 405.597656 271.671875 405.175781 271.128906 404.699219 270.632812 L 403.609375 269.003906 C 403.257812 268.441406 403.019531 267.839844 402.886719 267.191406 C 403.96875 266.824219 405.238281 266.824219 406.328125 266.644531 C 407.40625 266.644531 408.6875 266.460938 409.949219 266.101562 C 410.863281 265.921875 411.578125 265.738281 412.308594 265.378906 C 413.03125 265.015625 413.9375 264.832031 414.660156 264.464844 C 415.382812 264.109375 416.113281 263.925781 416.835938 263.570312 C 417.558594 263.203125 418.285156 263.019531 419.007812 262.835938 C 419.1875 263.386719 419.007812 264.109375 418.832031 264.832031 C 418.648438 265.5625 418.285156 266.46875 418.101562 267.375 C 417.742188 268.273438 417.558594 269.367188 417.378906 270.632812 C 417.167969 272.089844 417.230469 273.539062 417.558594 274.976562 L 423.71875 312.480469 C 423.898438 313.753906 423.898438 315.382812 423.359375 317.011719 C 422.996094 318.648438 422.089844 320.273438 421 322.078125 C 419.921875 323.714844 418.285156 325.167969 416.289062 326.613281 C 414.296875 328.058594 411.945312 328.964844 409.226562 329.6875 C 406.328125 330.421875 403.792969 330.601562 401.433594 330.238281 C 399.265625 329.898438 397.269531 329.113281 395.453125 327.886719 C 393.855469 326.898438 392.527344 325.628906 391.464844 324.082031 C 390.566406 322.625 389.84375 321.171875 389.660156 319.910156 L 382.597656 278.609375 Z M 430.246094 269.898438 C 430.109375 268.851562 429.75 267.882812 429.167969 267 C 428.664062 266.140625 428.0625 265.355469 427.355469 264.648438 C 426.902344 264.015625 426.355469 263.472656 425.71875 263.019531 C 425.179688 262.472656 424.996094 262.105469 424.8125 261.933594 C 425.726562 261.75 426.441406 261.566406 427.355469 261.566406 C 428.253906 261.566406 429.167969 261.566406 429.890625 261.75 C 430.796875 261.75 431.703125 261.933594 432.425781 261.933594 C 433.332031 261.933594 434.054688 261.933594 434.957031 261.75 C 435.691406 261.566406 436.414062 261.210938 437.320312 260.84375 C 438.222656 260.476562 439.128906 259.9375 440.035156 259.398438 C 440.941406 258.851562 441.847656 258.484375 442.753906 257.945312 C 443.65625 257.578125 444.378906 257.222656 444.929688 257.039062 C 445.050781 257.78125 444.992188 258.503906 444.746094 259.214844 C 444.5625 259.9375 444.199219 260.660156 443.832031 261.566406 C 443.050781 263.679688 442.8125 265.855469 443.117188 268.089844 L 450.363281 309.9375 C 450.546875 310.671875 450.71875 311.574219 451.269531 312.300781 L 452.898438 314.476562 C 453.445312 315.199219 453.976562 315.738281 454.34375 316.46875 C 454.890625 317.011719 455.074219 317.734375 455.257812 318.273438 C 454.257812 318.617188 453.230469 318.800781 452.175781 318.820312 C 451.261719 318.820312 450.179688 319.003906 449.265625 319.003906 C 448.367188 319.003906 447.28125 319.003906 446.375 319.179688 C 445.292969 319.179688 444.199219 319.359375 443.117188 319.726562 C 442.570312 319.910156 441.847656 320.085938 441.304688 320.265625 C 440.757812 320.449219 440.035156 320.816406 439.488281 321 C 438.863281 321.347656 438.199219 321.589844 437.492188 321.722656 C 436.769531 321.894531 436.230469 322.261719 435.5 322.445312 C 435.5 322.078125 435.5 321.53125 435.863281 320.816406 C 436.046875 320.085938 436.414062 319.179688 436.585938 318.273438 C 436.953125 317.367188 437.136719 316.460938 437.320312 315.554688 C 437.5 314.648438 437.675781 313.925781 437.5 313.386719 Z M 469.738281 314.292969 C 469.5625 313.746094 469.738281 313.023438 470.105469 312.300781 C 470.46875 311.574219 470.652344 310.851562 471.183594 309.949219 C 471.570312 309.066406 471.875 308.160156 472.097656 307.222656 C 472.339844 306.269531 472.402344 305.304688 472.28125 304.332031 C 471.734375 301.25 466.847656 266.460938 466.296875 263.203125 C 466.316406 262.695312 466.132812 262.273438 465.757812 261.933594 C 465.394531 261.566406 465.035156 261.390625 464.488281 261.566406 C 463.632812 261.859375 462.90625 262.34375 462.3125 263.019531 C 461.683594 263.847656 461.203125 264.753906 460.863281 265.738281 C 460.476562 266.875 460.113281 268.019531 459.785156 269.175781 C 459.417969 270.449219 459.238281 271.535156 458.871094 272.441406 C 458.511719 273.523438 458.332031 274.253906 457.964844 274.976562 C 457.597656 275.699219 457.242188 276.058594 456.886719 276.246094 C 456.519531 274.070312 455.972656 271.894531 455.613281 269.726562 C 455.097656 267.570312 454.675781 265.394531 454.34375 263.203125 L 453.800781 261.027344 C 453.621094 260.304688 453.253906 259.753906 453.070312 259.03125 C 452.75 258.398438 452.507812 257.734375 452.347656 257.039062 L 451.808594 254.871094 C 452.289062 254.683594 452.773438 254.683594 453.253906 254.871094 C 453.800781 254.871094 454.34375 255.042969 454.707031 255.042969 C 455.179688 255.195312 455.660156 255.253906 456.152344 255.226562 L 457.609375 255.226562 C 458.871094 254.871094 459.960938 254.6875 461.046875 254.320312 C 462.128906 253.964844 466.664062 252.328125 467.753906 251.96875 C 468.816406 251.582031 469.902344 251.277344 471.007812 251.054688 C 472.28125 250.699219 473.371094 250.515625 474.632812 250.515625 L 478.070312 250.515625 C 479.160156 250.515625 480.429688 250.515625 481.519531 250.339844 C 482.601562 250.339844 483.871094 250.160156 484.960938 249.792969 C 485.507812 249.609375 486.230469 249.4375 486.769531 249.070312 L 488.40625 247.992188 C 488.949219 247.617188 489.488281 247.257812 490.035156 246.894531 C 490.578125 246.535156 491.117188 246.355469 491.480469 246.171875 L 491.480469 250.699219 C 491.480469 252.152344 491.300781 253.605469 491.300781 255.050781 L 491.300781 259.582031 C 491.300781 261.027344 491.480469 262.835938 491.847656 264.464844 C 492.03125 265.199219 492.203125 266.101562 492.386719 267.007812 C 492.570312 267.914062 492.753906 268.820312 493.109375 269.910156 C 492.570312 270.082031 492.03125 269.726562 491.664062 269.175781 C 490.988281 268.511719 490.503906 267.726562 490.210938 266.824219 C 489.671875 265.910156 489.128906 264.832031 488.398438 263.75 C 487.839844 262.65625 487.175781 261.628906 486.40625 260.667969 C 485.714844 259.84375 484.929688 259.121094 484.054688 258.492188 C 483.148438 257.945312 482.242188 257.945312 481.15625 258.125 C 480.796875 258.308594 480.429688 258.492188 480.074219 258.851562 C 479.707031 259.214844 479.707031 259.765625 479.707031 260.121094 C 480.25 263.742188 486.046875 297.625 486.414062 299.976562 C 486.589844 300.890625 486.953125 301.789062 487.492188 302.695312 C 488.042969 303.609375 488.765625 304.332031 489.488281 305.054688 C 490.210938 305.777344 490.757812 306.5 491.300781 307.230469 C 491.847656 307.953125 492.214844 308.675781 492.386719 309.398438 C 491.480469 309.582031 490.578125 309.765625 489.488281 309.765625 L 482.792969 309.765625 C 481.703125 309.765625 480.429688 309.949219 479.34375 310.304688 C 478.4375 310.488281 477.714844 310.851562 476.808594 311.21875 C 476.042969 311.570312 475.316406 311.992188 474.632812 312.480469 L 472.464844 313.5625 C 471.375 313.925781 470.46875 314.109375 469.738281 314.292969 Z M 499.640625 261.390625 C 499.148438 258.78125 499.207031 256.183594 499.824219 253.597656 C 500.371094 251.308594 501.398438 249.257812 502.898438 247.441406 C 504.351562 245.628906 505.980469 244.175781 507.972656 242.914062 C 509.96875 241.644531 511.960938 240.917969 514.3125 240.371094 C 516.492188 239.832031 518.84375 239.648438 521.019531 239.832031 C 523.195312 240.015625 525.191406 240.738281 527 241.824219 C 528.8125 242.90625 530.441406 244.359375 531.710938 246.355469 C 532.976562 248.347656 533.878906 250.699219 534.246094 253.414062 L 538.050781 277.335938 C 538.410156 280.054688 538.410156 282.585938 537.867188 284.945312 C 537.371094 287.34375 536.464844 289.578125 535.152344 291.644531 C 533.878906 293.636719 532.253906 295.449219 530.257812 296.902344 C 528.265625 298.347656 526.09375 299.4375 523.734375 299.976562 C 521.742188 300.527344 519.574219 300.707031 517.578125 300.707031 C 515.554688 300.589844 513.621094 300.105469 511.78125 299.253906 C 509.964844 298.367188 508.394531 297.15625 507.070312 295.632812 C 505.6875 293.789062 504.78125 291.738281 504.351562 289.476562 Z M 521.203125 256.132812 C 521.019531 255.226562 520.835938 254.320312 520.480469 253.78125 C 520.113281 253.058594 519.746094 252.703125 519.390625 252.335938 C 519.023438 251.96875 518.476562 251.789062 517.9375 251.605469 C 517.453125 251.421875 516.972656 251.421875 516.492188 251.605469 C 515.914062 251.773438 515.371094 252.015625 514.863281 252.335938 C 514.234375 252.75 513.75 253.292969 513.410156 253.964844 C 512.996094 254.644531 512.695312 255.371094 512.503906 256.140625 C 512.320312 257.046875 512.320312 257.953125 512.503906 258.859375 L 516.847656 285.304688 C 517.214844 286.757812 517.9375 287.839844 519.023438 288.378906 C 520.113281 288.925781 521.203125 289.109375 522.097656 288.742188 C 522.679688 288.585938 523.226562 288.34375 523.734375 288.019531 C 524.25 287.691406 524.675781 287.269531 525.007812 286.757812 C 525.324219 286.246094 525.566406 285.699219 525.730469 285.121094 C 525.914062 284.398438 525.914062 283.675781 525.730469 282.953125 L 521.203125 256.140625 Z M 521.203125 256.132812 " fill-opacity="1" fill-rule="nonzero"/></svg>