<svg xmlns="http://www.w3.org/2000/svg" xmlns:xlink="http://www.w3.org/1999/xlink" width="1024" zoomAndPan="magnify" viewBox="0 0 768 767.999994" height="1024" preserveAspectRatio="xMidYMid meet" version="1.0"><defs><clipPath id="31d583ea93"><path d="M 40.976562 322.332031 L 187 322.332031 L 187 442 L 40.976562 442 Z M 40.976562 322.332031 " clip-rule="nonzero"/></clipPath><clipPath id="be3e67950a"><path d="M 713 346 L 727.226562 346 L 727.226562 361 L 713 361 Z M 713 346 " clip-rule="nonzero"/></clipPath></defs><g clip-path="url(#31d583ea93)"><path fill="#000000" d="M 119.816406 339.316406 L 121.34375 338.523438 L 122.957031 337.796875 L 124.707031 337.152344 L 126.511719 336.550781 L 128.402344 336.085938 L 130.34375 335.683594 L 132.375 335.355469 L 134.453125 335.128906 L 136.523438 334.992188 L 138.652344 334.941406 L 140.820312 334.992188 L 142.941406 335.128906 L 145.109375 335.355469 L 147.238281 335.734375 L 149.308594 336.1875 L 151.386719 336.738281 L 153.417969 337.378906 L 155.410156 338.171875 L 157.300781 339.039062 L 159.140625 340.046875 L 160.855469 341.164062 L 162.519531 342.394531 L 164.035156 343.777344 L 165.457031 345.25 L 166.757812 346.859375 L 167.90625 348.605469 L 168.925781 350.492188 L 169.808594 352.476562 L 170.503906 354.589844 L 171.007812 356.890625 L 171.320312 359.277344 L 171.472656 361.867188 L 172.53125 362.132812 L 173.539062 362.507812 L 174.460938 363.011719 L 175.34375 363.566406 L 176.175781 364.257812 L 176.871094 365 L 177.5625 365.816406 L 178.15625 366.695312 L 178.671875 367.652344 L 179.125 368.667969 L 179.542969 369.726562 L 179.871094 370.832031 L 180.097656 371.988281 L 180.273438 373.132812 L 180.425781 374.339844 L 180.460938 375.519531 L 180.460938 376.765625 L 180.425781 377.972656 L 180.273438 379.164062 L 180.097656 380.359375 L 179.820312 381.554688 L 179.492188 382.710938 L 179.125 383.816406 L 178.671875 384.910156 L 178.15625 385.929688 L 177.5625 386.945312 L 176.90625 387.863281 L 176.214844 388.695312 L 175.480469 389.472656 L 174.648438 390.214844 L 173.769531 390.804688 L 172.859375 391.359375 L 173.769531 391.359375 L 174.648438 391.398438 L 175.519531 391.449219 L 176.351562 391.597656 L 177.195312 391.773438 L 177.929688 391.949219 L 178.671875 392.175781 L 179.351562 392.464844 L 180.046875 392.792969 L 180.703125 393.105469 L 181.292969 393.472656 L 182.402344 394.300781 L 182.910156 394.753906 L 183.375 395.21875 L 183.828125 395.734375 L 184.246094 396.238281 L 184.625 396.738281 L 184.988281 397.242188 L 185.316406 397.796875 L 185.582031 398.347656 L 185.859375 398.953125 L 186.097656 399.503906 L 186.273438 400.109375 L 186.464844 400.648438 L 186.601562 401.253906 L 186.691406 401.804688 L 186.742188 402.398438 L 186.792969 402.960938 L 186.84375 403.554688 L 186.792969 404.105469 L 186.742188 404.660156 L 186.601562 405.855469 L 186.363281 407.011719 L 186.097656 408.105469 L 185.769531 409.160156 L 185.40625 410.128906 L 184.988281 411.097656 L 184.484375 412.011719 L 183.980469 412.84375 L 183.414062 413.636719 L 182.769531 414.414062 L 182.125 415.105469 L 181.433594 415.695312 L 180.652344 416.300781 L 179.871094 416.804688 L 179.039062 417.253906 L 178.15625 417.683594 L 177.285156 418.046875 L 176.3125 418.375 L 175.304688 418.589844 L 174.285156 418.789062 L 173.214844 418.914062 L 172.117188 418.964844 L 171.007812 418.964844 L 169.847656 418.914062 L 168.648438 418.828125 L 167.449219 418.636719 L 166.152344 418.375 L 164.902344 418.085938 L 163.566406 417.722656 L 162.230469 417.320312 L 160.894531 416.804688 L 159.507812 416.25 L 159.191406 419.292969 L 158.8125 422.269531 L 158.535156 423.703125 L 158.171875 425.085938 L 157.980469 425.777344 L 157.765625 426.417969 L 157.476562 427.074219 L 157.199219 427.664062 L 156.886719 428.304688 L 156.507812 428.859375 L 156.140625 429.460938 L 155.726562 430.003906 L 155.222656 430.503906 L 154.714844 431.019531 L 154.160156 431.484375 L 153.570312 431.9375 L 152.914062 432.351562 L 152.21875 432.769531 L 151.4375 433.132812 L 150.65625 433.511719 L 149.773438 433.824219 L 148.839844 434.113281 L 147.832031 434.339844 L 146.773438 434.566406 L 145.902344 434.703125 L 145.019531 434.792969 L 144.1875 434.84375 L 143.355469 434.792969 L 142.574219 434.742188 L 141.792969 434.617188 L 141.0625 434.464844 L 140.355469 434.238281 L 139.675781 434.011719 L 139.019531 433.6875 L 138.375 433.371094 L 137.785156 432.996094 L 137.214844 432.59375 L 136.660156 432.125 L 136.117188 431.675781 L 135.601562 431.160156 L 135.136719 430.605469 L 134.683594 430.050781 L 134.214844 429.460938 L 133.847656 428.859375 L 133.433594 428.21875 L 133.066406 427.527344 L 132.753906 426.871094 L 132.425781 426.144531 L 132.148438 425.453125 L 131.871094 424.722656 L 131.59375 423.980469 L 131.367188 423.253906 L 130.988281 421.730469 L 130.671875 420.160156 L 129.789062 420.625 L 128.917969 421.039062 L 127.988281 421.492188 L 127.027344 421.867188 L 126.109375 422.269531 L 125.085938 422.648438 L 124.117188 422.960938 L 123.109375 423.289062 L 122.074219 423.566406 L 121.066406 423.84375 L 120.054688 424.082031 L 118.996094 424.308594 L 117.976562 424.484375 L 116.917969 424.621094 L 115.894531 424.722656 L 114.886719 424.8125 L 111.886719 424.8125 L 110.914062 424.722656 L 109.957031 424.585938 L 109.023438 424.394531 L 108.089844 424.207031 L 107.222656 423.929688 L 106.386719 423.617188 L 105.570312 423.253906 L 104.722656 422.824219 L 103.992188 422.371094 L 103.25 421.820312 L 102.554688 421.265625 L 101.914062 420.625 L 101.320312 419.933594 L 98.960938 421 L 96.707031 422.09375 L 94.535156 423.203125 L 92.40625 424.394531 L 90.425781 425.601562 L 88.449219 426.835938 L 86.554688 428.167969 L 84.652344 429.5 L 82.8125 430.882812 L 80.96875 432.253906 L 79.117188 433.734375 L 77.3125 435.257812 L 73.582031 438.4375 L 69.660156 441.78125 L 69.15625 437.054688 L 68.550781 432.628906 L 67.757812 428.445312 L 66.9375 424.484375 L 66.015625 420.800781 L 64.996094 417.320312 L 63.886719 414 L 62.777344 410.90625 L 61.542969 407.964844 L 60.28125 405.210938 L 59.042969 402.636719 L 57.707031 400.144531 L 56.410156 397.796875 L 55.074219 395.546875 L 53.738281 393.382812 L 52.4375 391.308594 L 49.902344 387.347656 L 47.546875 383.539062 L 46.449219 381.691406 L 45.429688 379.808594 L 44.507812 377.921875 L 43.636719 375.984375 L 42.894531 374.0625 L 42.25 372.027344 L 41.734375 369.964844 L 41.367188 367.800781 L 41.089844 365.539062 L 40.988281 363.148438 L 41.039062 360.660156 L 41.28125 358.046875 L 41.507812 356.285156 L 41.820312 354.539062 L 42.148438 352.894531 L 42.617188 351.234375 L 43.070312 349.660156 L 43.636719 348.101562 L 44.230469 346.632812 L 44.871094 345.160156 L 45.617188 343.777344 L 46.347656 342.394531 L 47.179688 341.113281 L 48.050781 339.820312 L 48.933594 338.625 L 49.902344 337.429688 L 50.914062 336.324219 L 51.933594 335.21875 L 53.042969 334.160156 L 54.152344 333.195312 L 55.300781 332.226562 L 56.511719 331.308594 L 57.757812 330.441406 L 58.996094 329.597656 L 60.28125 328.820312 L 61.628906 328.089844 L 62.964844 327.398438 L 64.351562 326.757812 L 65.777344 326.105469 L 67.203125 325.5625 L 68.640625 325.011719 L 70.113281 324.546875 L 71.640625 324.082031 L 73.117188 323.664062 L 75.15625 323.210938 L 77.085938 322.847656 L 79.078125 322.570312 L 81.007812 322.433594 L 82.898438 322.332031 L 84.738281 322.332031 L 86.59375 322.472656 L 88.449219 322.609375 L 90.199219 322.886719 L 91.953125 323.210938 L 93.605469 323.578125 L 95.269531 324.042969 L 96.882812 324.546875 L 98.445312 325.136719 L 99.972656 325.738281 L 101.460938 326.429688 L 102.882812 327.121094 L 104.269531 327.851562 L 105.570312 328.644531 L 106.816406 329.472656 L 108.003906 330.300781 L 109.125 331.171875 L 110.183594 332.050781 L 111.191406 332.96875 L 112.113281 333.835938 L 112.996094 334.765625 L 113.777344 335.683594 L 114.46875 336.601562 L 115.113281 337.519531 L 115.617188 338.4375 L 116.136719 339.316406 L 116.5 340.183594 L 116.640625 340.371094 L 116.816406 340.511719 L 117.003906 340.5625 L 117.195312 340.609375 L 117.421875 340.609375 L 117.609375 340.5625 L 117.835938 340.460938 L 118.0625 340.371094 L 118.996094 339.871094 Z M 119.816406 339.316406 " fill-opacity="1" fill-rule="evenodd"/></g><path fill="#ec008c" d="M 102.015625 355.558594 L 104.824219 354.085938 L 107.914062 352.378906 L 111.191406 350.628906 L 114.609375 348.933594 L 116.3125 348.101562 L 118.027344 347.324219 L 119.726562 346.632812 L 121.441406 345.992188 L 123.109375 345.488281 L 124.707031 345.023438 L 125.539062 344.835938 L 126.335938 344.695312 L 127.066406 344.609375 L 127.847656 344.507812 L 129.148438 344.421875 L 130.445312 344.382812 L 132.980469 344.382812 L 134.214844 344.46875 L 135.464844 344.558594 L 136.660156 344.660156 L 137.871094 344.835938 L 139.070312 345.074219 L 140.214844 345.300781 L 141.375 345.613281 L 142.4375 345.941406 L 143.546875 346.304688 L 144.566406 346.722656 L 145.574219 347.1875 L 146.546875 347.6875 L 147.46875 348.242188 L 148.347656 348.882812 L 149.167969 349.535156 L 149.964844 350.214844 L 150.695312 350.957031 L 151.386719 351.785156 L 152.03125 352.617188 L 152.636719 353.535156 L 153.140625 354.503906 L 153.605469 355.46875 L 154.023438 356.578125 L 154.339844 357.671875 L 154.628906 358.828125 L 154.804688 360.070312 L 154.945312 361.351562 L 154.980469 362.6875 L 154.390625 363.050781 L 153.785156 363.425781 L 153.191406 363.890625 L 152.585938 364.394531 L 151.980469 364.949219 L 151.4375 365.5 L 150.832031 366.144531 L 150.328125 366.835938 L 149.773438 367.511719 L 149.269531 368.265625 L 148.804688 369.035156 L 148.386719 369.8125 L 147.972656 370.644531 L 147.65625 371.472656 L 147.378906 372.300781 L 147.089844 373.183594 L 146.910156 371.574219 L 146.632812 369.914062 L 146.230469 368.265625 L 145.765625 366.59375 L 145.488281 365.777344 L 145.199219 365 L 144.882812 364.207031 L 144.566406 363.425781 L 144.1875 362.6875 L 143.824219 361.90625 L 143.40625 361.214844 L 143.042969 360.523438 L 142.574219 359.832031 L 142.121094 359.242188 L 141.65625 358.601562 L 141.1875 358.046875 L 140.683594 357.53125 L 140.128906 357.027344 L 139.613281 356.578125 L 139.070312 356.148438 L 138.464844 355.785156 L 137.871094 355.46875 L 137.265625 355.230469 L 136.660156 355.003906 L 136.019531 354.867188 L 135.375 354.777344 L 134.683594 354.726562 L 134.039062 354.777344 L 133.382812 354.867188 L 132.789062 354.96875 L 132.199219 355.144531 L 131.628906 355.371094 L 131.074219 355.609375 L 130.585938 355.871094 L 130.066406 356.199219 L 129.5625 356.578125 L 129.097656 356.980469 L 128.679688 357.40625 L 128.265625 357.859375 L 127.898438 358.363281 L 127.53125 358.914062 L 127.207031 359.519531 L 126.929688 360.109375 L 126.648438 360.761719 L 126.460938 361.402344 L 126.246094 362.09375 L 126.109375 362.835938 L 125.957031 363.601562 L 125.917969 364.394531 L 125.867188 365.175781 L 125.867188 366.003906 L 125.917969 366.871094 L 125.957031 367.75 L 126.109375 368.667969 L 126.285156 369.636719 L 126.460938 370.554688 L 126.738281 371.574219 L 127.066406 372.542969 L 127.445312 373.597656 L 127.847656 374.617188 L 126.648438 374.0625 L 125.453125 373.546875 L 124.253906 373.09375 L 123.007812 372.679688 L 121.707031 372.300781 L 120.472656 372.027344 L 119.1875 371.761719 L 117.886719 371.523438 L 116.589844 371.386719 L 115.304688 371.296875 L 114.054688 371.246094 L 112.769531 371.207031 L 111.507812 371.246094 L 110.308594 371.386719 L 109.125 371.523438 L 107.964844 371.710938 L 106.816406 371.9375 L 105.695312 372.265625 L 104.636719 372.578125 L 103.628906 372.992188 L 102.695312 373.410156 L 101.773438 373.925781 L 100.941406 374.464844 L 100.160156 375.066406 L 99.429688 375.710938 L 98.773438 376.402344 L 98.167969 377.140625 L 97.714844 377.921875 L 97.296875 378.75 L 96.96875 379.617188 L 96.742188 380.585938 L 96.605469 381.554688 L 96.515625 382.660156 L 96.554688 383.765625 L 96.65625 384.875 L 96.742188 385.425781 L 96.882812 385.929688 L 97.019531 386.445312 L 97.210938 386.984375 L 97.386719 387.488281 L 97.675781 387.953125 L 97.953125 388.46875 L 98.269531 388.921875 L 98.597656 389.386719 L 99.011719 389.839844 L 99.46875 390.304688 L 99.933594 390.71875 L 101.042969 391.546875 L 101.6875 391.914062 L 102.378906 392.277344 L 103.125 392.640625 L 103.90625 392.96875 L 104.726562 393.296875 L 105.65625 393.609375 L 106.617188 393.886719 L 107.636719 394.164062 L 108.695312 394.402344 L 109.855469 394.617188 L 111.089844 394.804688 L 112.351562 394.992188 L 111.191406 395.371094 L 110.082031 395.773438 L 109.023438 396.238281 L 108.003906 396.691406 L 107.042969 397.15625 L 106.160156 397.671875 L 105.328125 398.171875 L 104.511719 398.675781 L 103.765625 399.230469 L 103.074219 399.769531 L 102.429688 400.375 L 101.875 400.976562 L 101.320312 401.582031 L 100.804688 402.171875 L 100.347656 402.8125 L 99.972656 403.464844 L 99.605469 404.105469 L 99.289062 404.796875 L 99.0625 405.4375 L 98.824219 406.128906 L 98.632812 406.820312 L 98.496094 407.5 L 98.40625 408.242188 L 98.359375 408.933594 L 98.359375 409.664062 L 98.40625 410.40625 L 98.496094 411.144531 L 98.597656 411.886719 L 98.734375 412.617188 L 98.960938 413.347656 L 99.203125 414.089844 L 99.429688 414.816406 L 97.714844 415.421875 L 95.925781 416.164062 L 94.121094 416.941406 L 92.265625 417.871094 L 90.425781 418.828125 L 88.625 419.882812 L 86.78125 421.039062 L 84.980469 422.183594 L 83.175781 423.429688 L 81.476562 424.671875 L 79.773438 425.917969 L 78.144531 427.199219 L 76.570312 428.496094 L 75.109375 429.738281 L 73.722656 431.019531 L 72.421875 432.214844 L 72.195312 428.445312 L 71.816406 424.863281 L 71.375 421.453125 L 70.769531 418.238281 L 70.078125 415.195312 L 69.332031 412.253906 L 68.449219 409.488281 L 67.53125 406.871094 L 66.519531 404.332031 L 65.449219 401.945312 L 64.402344 399.59375 L 63.28125 397.382812 L 62.132812 395.21875 L 60.988281 393.15625 L 59.789062 391.132812 L 58.628906 389.148438 L 57.46875 387.222656 L 56.371094 385.289062 L 55.300781 383.390625 L 54.242188 381.453125 L 53.269531 379.582031 L 52.351562 377.644531 L 51.480469 375.671875 L 50.734375 373.683594 L 50.042969 371.609375 L 49.4375 369.5 L 48.984375 367.285156 L 48.65625 365.035156 L 48.429688 362.648438 L 48.378906 360.210938 L 48.464844 357.582031 L 48.707031 354.867188 L 49.070312 352.652344 L 49.726562 350.492188 L 50.597656 348.417969 L 51.65625 346.496094 L 52.917969 344.609375 L 54.378906 342.863281 L 55.992188 341.164062 L 57.757812 339.59375 L 59.636719 338.171875 L 61.667969 336.828125 L 63.796875 335.632812 L 65.964844 334.527344 L 68.222656 333.570312 L 70.582031 332.691406 L 72.9375 332 L 75.335938 331.445312 L 77.691406 330.996094 L 80.085938 330.707031 L 82.433594 330.566406 L 84.742188 330.566406 L 87.007812 330.753906 L 89.214844 331.082031 L 91.296875 331.585938 L 93.277344 332.226562 L 95.179688 333.054688 L 96.933594 334.023438 L 98.496094 335.21875 L 99.933594 336.550781 L 101.183594 338.121094 L 102.242188 339.820312 L 103.074219 341.753906 L 103.664062 343.867188 L 103.714844 344.28125 L 103.714844 344.660156 L 103.664062 345.023438 L 103.578125 345.339844 L 103.488281 345.664062 L 103.300781 345.992188 L 103.125 346.253906 L 102.933594 346.542969 L 102.378906 346.996094 L 101.773438 347.460938 L 101.132812 347.878906 L 100.386719 348.292969 L 99.65625 348.707031 L 98.914062 349.160156 L 98.167969 349.625 L 97.488281 350.175781 L 97.160156 350.453125 L 96.882812 350.769531 L 96.554688 351.09375 L 96.328125 351.460938 L 96.101562 351.835938 L 95.875 352.238281 L 95.683594 352.703125 L 95.546875 353.167969 L 95.496094 353.359375 L 95.457031 353.585938 L 95.457031 353.761719 L 95.496094 353.949219 L 95.597656 354.363281 L 95.785156 354.726562 L 96.0625 355.054688 L 96.378906 355.371094 L 96.792969 355.644531 L 97.210938 355.871094 L 97.714844 356.0625 L 98.269531 356.199219 L 98.824219 356.289062 L 99.429688 356.289062 L 100.070312 356.25 L 100.714844 356.109375 L 101.359375 355.871094 Z M 102.015625 355.558594 " fill-opacity="1" fill-rule="evenodd"/><path fill="#fff200" d="M 145.070312 383.441406 L 145.761719 383.765625 L 146.40625 384.183594 L 146.960938 384.597656 L 147.429688 385.050781 L 147.84375 385.515625 L 148.160156 386.015625 L 148.4375 386.53125 L 148.613281 387.085938 L 149.128906 386.808594 L 149.632812 386.582031 L 150.1875 386.40625 L 150.695312 386.269531 L 151.25 386.128906 L 151.804688 386.082031 L 152.308594 386.042969 L 152.863281 386.003906 L 153.972656 386.082031 L 154.5625 386.128906 L 155.117188 386.21875 L 156.226562 386.496094 L 157.339844 386.859375 L 157.941406 387.136719 L 158.546875 387.5 L 159.101562 387.964844 L 159.65625 388.519531 L 159.886719 388.796875 L 160.113281 389.109375 L 160.339844 389.386719 L 160.527344 389.714844 L 160.667969 390.078125 L 160.804688 390.40625 L 160.90625 390.769531 L 160.957031 391.097656 L 162.53125 390.492188 L 163.957031 389.851562 L 165.34375 389.160156 L 166.578125 388.367188 L 167.738281 387.589844 L 168.800781 386.757812 L 169.769531 385.878906 L 170.691406 385 L 171.484375 384.082031 L 172.214844 383.113281 L 172.808594 382.132812 L 173.363281 381.175781 L 173.828125 380.222656 L 174.195312 379.203125 L 174.523438 378.183594 L 174.75 377.179688 L 174.890625 376.210938 L 174.976562 375.195312 L 174.976562 374.226562 L 174.925781 373.257812 L 174.789062 372.328125 L 174.613281 371.410156 L 174.382812 370.542969 L 174.058594 369.710938 L 173.691406 368.882812 L 173.222656 368.105469 L 172.769531 367.414062 L 172.214844 366.722656 L 171.609375 366.078125 L 170.96875 365.527344 L 170.273438 365.023438 L 169.53125 364.558594 L 168.660156 364.195312 L 167.828125 363.917969 L 166.957031 363.765625 L 166.074219 363.679688 L 165.15625 363.730469 L 164.234375 363.867188 L 163.3125 364.054688 L 162.394531 364.371094 L 161.472656 364.746094 L 160.554688 365.164062 L 159.632812 365.675781 L 158.710938 366.269531 L 157.792969 366.910156 L 156.871094 367.550781 L 155.988281 368.292969 L 155.105469 369.070312 L 154.238281 369.902344 L 153.402344 370.730469 L 152.585938 371.609375 L 151.804688 372.527344 L 151.019531 373.445312 L 150.277344 374.363281 L 149.585938 375.332031 L 148.941406 376.25 L 148.285156 377.21875 L 147.691406 378.136719 L 147.136719 379.101562 L 146.632812 380.019531 L 146.179688 380.886719 L 145.75 381.769531 L 145.4375 382.648438 L 145.109375 383.425781 Z M 160.945312 395.21875 L 160.894531 395.597656 L 160.84375 395.960938 L 160.703125 396.273438 L 160.566406 396.652344 L 160.375 397.015625 L 160.1875 397.332031 L 159.734375 398.058594 L 159.140625 398.699219 L 158.5 399.34375 L 157.765625 399.984375 L 157.023438 400.574219 L 156.191406 401.128906 L 155.359375 401.644531 L 154.527344 402.132812 L 153.695312 402.546875 L 152.863281 402.925781 L 152.082031 403.238281 L 151.335938 403.515625 L 150.65625 403.691406 L 151.058594 404.347656 L 151.5625 404.988281 L 152.117188 405.628906 L 152.710938 406.28125 L 153.453125 406.910156 L 154.199219 407.5625 L 155.03125 408.253906 L 155.863281 408.894531 L 156.796875 409.550781 L 157.765625 410.152344 L 158.777344 410.746094 L 159.785156 411.347656 L 160.84375 411.902344 L 161.902344 412.402344 L 163.011719 412.855469 L 164.121094 413.320312 L 165.230469 413.734375 L 167.449219 414.390625 L 168.558594 414.617188 L 169.65625 414.804688 L 170.726562 414.941406 L 171.789062 414.980469 L 172.847656 414.980469 L 173.816406 414.878906 L 174.777344 414.703125 L 175.707031 414.464844 L 176.578125 414.101562 L 177.410156 413.671875 L 178.191406 413.121094 L 178.886719 412.53125 L 179.578125 411.800781 L 180.410156 410.605469 L 181.144531 409.410156 L 181.746094 408.253906 L 182.214844 407.148438 L 182.480469 406.042969 L 182.707031 404.988281 L 182.757812 403.96875 L 182.707031 402.960938 L 182.566406 401.996094 L 182.339844 401.078125 L 181.960938 400.195312 L 181.496094 399.367188 L 180.992188 398.574219 L 180.347656 397.847656 L 179.65625 397.15625 L 178.875 396.5 L 178.042969 395.949219 L 177.171875 395.445312 L 176.199219 394.929688 L 175.179688 394.566406 L 174.121094 394.199219 L 173.011719 393.925781 L 171.902344 393.734375 L 170.753906 393.546875 L 169.554688 393.496094 L 168.359375 393.496094 L 167.109375 393.585938 L 165.863281 393.722656 L 164.613281 393.960938 L 163.414062 394.277344 L 162.167969 394.640625 L 160.917969 395.144531 Z M 148.285156 404.9375 L 147.640625 405.074219 L 147 405.261719 L 146.355469 405.453125 L 145.664062 405.679688 L 144.328125 406.230469 L 142.988281 406.871094 L 141.792969 407.464844 L 140.734375 408.105469 L 139.902344 408.621094 L 139.347656 409.035156 L 138.652344 409.953125 L 138.046875 410.921875 L 137.542969 411.839844 L 137.078125 412.804688 L 136.660156 413.761719 L 136.332031 414.691406 L 136.054688 415.660156 L 135.867188 416.628906 L 135.675781 417.59375 L 135.589844 418.527344 L 135.550781 419.441406 L 135.589844 420.359375 L 135.640625 421.226562 L 135.777344 422.109375 L 135.917969 422.988281 L 136.144531 423.816406 L 136.371094 424.597656 L 136.648438 425.375 L 136.976562 426.117188 L 137.339844 426.808594 L 137.757812 427.449219 L 138.171875 428.105469 L 138.640625 428.65625 L 139.15625 429.160156 L 139.660156 429.664062 L 140.214844 430.078125 L 140.769531 430.441406 L 141.375 430.71875 L 141.96875 430.996094 L 142.625 431.171875 L 143.265625 431.261719 L 143.910156 431.308594 L 145.160156 431.308594 L 146.304688 431.121094 L 147.363281 430.882812 L 148.375 430.519531 L 149.34375 430.117188 L 150.265625 429.5625 L 151.097656 428.960938 L 151.828125 428.269531 L 152.523438 427.488281 L 153.164062 426.695312 L 153.71875 425.828125 L 154.222656 424.863281 L 154.640625 423.894531 L 154.96875 422.875 L 155.246094 421.871094 L 155.472656 420.761719 L 155.558594 419.707031 L 155.660156 418.601562 L 155.609375 417.457031 L 155.523438 416.351562 L 155.332031 415.246094 L 155.105469 414.152344 L 154.777344 413.042969 L 154.375 411.988281 L 153.910156 410.921875 L 153.355469 409.953125 L 152.710938 408.984375 L 151.96875 408.066406 L 151.183594 407.1875 L 150.300781 406.355469 L 149.332031 405.617188 L 148.261719 404.921875 Z M 137.214844 407.601562 L 136.886719 408.191406 L 136.421875 408.832031 L 135.917969 409.472656 L 135.324219 410.128906 L 134.582031 410.820312 L 133.796875 411.5625 L 132.964844 412.253906 L 132.035156 412.945312 L 131.0625 413.671875 L 130.003906 414.363281 L 128.945312 415.003906 L 127.785156 415.648438 L 126.625 416.300781 L 125.425781 416.890625 L 124.179688 417.445312 L 122.929688 417.945312 L 121.632812 418.449219 L 120.382812 418.863281 L 119.097656 419.230469 L 117.796875 419.507812 L 116.5 419.730469 L 115.25 419.871094 L 114.015625 419.957031 L 112.769531 419.910156 L 111.609375 419.808594 L 110.410156 419.621094 L 109.300781 419.304688 L 108.242188 418.890625 L 107.234375 418.386719 L 106.261719 417.734375 L 105.339844 416.953125 L 104.523438 416.074219 L 103.878906 415.246094 L 103.375 414.414062 L 103.007812 413.535156 L 102.730469 412.65625 L 102.59375 411.839844 L 102.542969 410.957031 L 102.644531 410.078125 L 102.78125 409.199219 L 103.058594 408.316406 L 103.425781 407.4375 L 103.839844 406.558594 L 104.394531 405.691406 L 104.988281 404.859375 L 105.683594 404.03125 L 106.476562 403.203125 L 107.347656 402.421875 L 108.265625 401.644531 L 109.238281 400.863281 L 110.296875 400.121094 L 111.40625 399.429688 L 112.566406 398.738281 L 113.765625 398.097656 L 115.050781 397.445312 L 116.335938 396.839844 L 117.683594 396.289062 L 119.109375 395.785156 L 120.484375 395.332031 L 121.960938 394.867188 L 123.433594 394.503906 L 124.960938 394.136719 L 126.472656 393.863281 L 128 393.636719 L 125.640625 393.585938 L 123.195312 393.585938 L 120.710938 393.496094 L 118.214844 393.410156 L 116.964844 393.320312 L 115.769531 393.234375 L 114.558594 393.09375 L 113.359375 392.894531 L 112.214844 392.71875 L 111.054688 392.527344 L 109.945312 392.253906 L 108.882812 391.976562 L 107.875 391.710938 L 106.90625 391.335938 L 105.984375 390.917969 L 105.101562 390.503906 L 104.320312 390.003906 L 103.589844 389.5 L 102.945312 388.910156 L 102.339844 388.253906 L 101.835938 387.5625 L 101.421875 386.785156 L 101.054688 385.992188 L 100.828125 385.125 L 100.6875 384.15625 L 100.636719 383.152344 L 100.6875 382.082031 L 100.867188 380.9375 L 101.054688 380.210938 L 101.421875 379.46875 L 101.875 378.828125 L 102.429688 378.222656 L 103.070312 377.671875 L 103.855469 377.167969 L 104.6875 376.703125 L 105.605469 376.300781 L 106.628906 375.933594 L 107.738281 375.660156 L 108.847656 375.382812 L 110.042969 375.195312 L 111.292969 375.105469 L 112.539062 375.019531 L 113.878906 375.019531 L 115.214844 375.105469 L 116.539062 375.242188 L 117.886719 375.433594 L 119.273438 375.710938 L 120.609375 376.035156 L 121.945312 376.449219 L 123.285156 376.953125 L 124.632812 377.507812 L 125.867188 378.148438 L 127.117188 378.839844 L 128.3125 379.667969 L 129.421875 380.535156 L 130.53125 381.464844 L 131.492188 382.523438 L 132.460938 383.628906 L 133.292969 384.875 L 134.074219 386.15625 L 133.519531 386.984375 L 133.066406 387.765625 L 132.703125 388.492188 L 132.425781 389.234375 L 132.195312 389.925781 L 132.058594 390.617188 L 131.921875 391.257812 L 131.921875 392.503906 L 131.957031 393.058594 L 132.097656 393.648438 L 132.234375 394.199219 L 132.410156 394.753906 L 132.636719 395.359375 L 132.878906 395.910156 L 133.15625 396.464844 L 134.402344 398.714844 L 135.640625 401.203125 L 135.917969 401.894531 L 136.195312 402.625 L 136.421875 403.351562 L 136.660156 404.09375 L 136.851562 404.921875 L 136.988281 405.753906 L 137.128906 406.621094 L 137.175781 407.550781 Z M 143.820312 383.125 L 143.40625 382.9375 L 142.941406 382.847656 L 142.433594 382.761719 L 141.878906 382.710938 L 141.289062 382.761719 L 140.644531 382.761719 L 140.039062 382.847656 L 139.382812 382.9375 L 138.742188 383.125 L 138.136719 383.265625 L 137.542969 383.503906 L 136.9375 383.730469 L 136.433594 383.957031 L 135.980469 384.230469 L 135.5625 384.507812 L 135.199219 384.835938 L 134.730469 384.007812 L 134.226562 383.175781 L 133.773438 382.308594 L 133.308594 381.390625 L 132.890625 380.472656 L 132.476562 379.503906 L 132.058594 378.539062 L 131.691406 377.53125 L 131.316406 376.527344 L 131 375.507812 L 130.683594 374.539062 L 130.394531 373.535156 L 130.167969 372.515625 L 129.976562 371.511719 L 129.789062 370.542969 L 129.652344 369.535156 L 129.5625 368.605469 L 129.472656 367.636719 L 129.472656 365.890625 L 129.523438 365.023438 L 129.664062 364.230469 L 129.800781 363.453125 L 130.042969 362.761719 L 130.269531 362.070312 L 130.597656 361.480469 L 130.960938 360.875 L 131.378906 360.371094 L 131.84375 359.957031 L 132.398438 359.59375 L 133.003906 359.265625 L 133.699219 359.039062 L 134.390625 358.863281 L 135.121094 358.8125 L 135.816406 358.8125 L 136.457031 358.902344 L 137.152344 359.089844 L 137.757812 359.367188 L 138.414062 359.695312 L 139.019531 360.109375 L 139.5625 360.574219 L 140.117188 361.128906 L 140.621094 361.71875 L 141.125 362.410156 L 141.589844 363.089844 L 142.058594 363.878906 L 142.421875 364.710938 L 142.839844 365.589844 L 143.152344 366.46875 L 143.46875 367.4375 L 143.757812 368.40625 L 143.984375 369.460938 L 144.214844 370.515625 L 144.402344 371.574219 L 144.539062 372.679688 L 144.640625 373.785156 L 144.691406 374.929688 L 144.691406 377.28125 L 144.605469 378.425781 L 144.515625 379.617188 L 144.328125 380.8125 L 144.136719 381.96875 L 143.859375 383.164062 Z M 143.820312 383.125 " fill-opacity="1" fill-rule="evenodd"/><path fill="#ec008c" d="M 145.902344 390.480469 L 146.683594 389.976562 L 147.519531 389.425781 L 148.386719 388.921875 L 149.308594 388.46875 L 149.773438 388.265625 L 150.226562 388.140625 L 150.695312 388.003906 L 151.109375 387.863281 L 151.566406 387.816406 L 152.03125 387.765625 L 152.460938 387.765625 L 152.863281 387.816406 L 153.328125 387.914062 L 153.785156 388.039062 L 154.164062 388.179688 L 154.578125 388.316406 L 154.894531 388.542969 L 155.222656 388.730469 L 155.550781 388.972656 L 155.828125 389.234375 L 156.105469 389.523438 L 156.332031 389.789062 L 156.507812 390.117188 L 156.695312 390.429688 L 157.023438 391.082031 L 157.25 391.773438 L 157.390625 392.515625 L 157.441406 393.246094 L 157.441406 393.988281 L 157.339844 394.714844 L 157.199219 395.40625 L 156.972656 396.046875 L 156.695312 396.691406 L 156.367188 397.242188 L 156.003906 397.757812 L 155.636719 398.210938 L 155.222656 398.675781 L 154.804688 399.089844 L 154.339844 399.503906 L 153.882812 399.871094 L 153.367188 400.234375 L 152.863281 400.5625 L 151.804688 401.203125 L 150.65625 401.753906 L 149.496094 402.257812 L 148.285156 402.773438 L 145.851562 403.78125 L 143.355469 404.886719 L 142.160156 405.488281 L 141.011719 406.167969 L 140.40625 406.546875 L 139.851562 406.910156 L 139.347656 407.324219 L 138.792969 407.789062 L 138.792969 407.148438 L 138.742188 406.546875 L 138.652344 405.941406 L 138.554688 405.351562 L 138.289062 404.144531 L 137.960938 403.039062 L 137.59375 401.945312 L 137.128906 400.886719 L 136.660156 399.871094 L 136.207031 398.863281 L 135.691406 397.847656 L 135.289062 396.929688 L 134.871094 396 L 134.503906 395.082031 L 134.179688 394.164062 L 133.988281 393.296875 L 133.902344 392.882812 L 133.851562 392.464844 L 133.851562 391.597656 L 133.949219 390.855469 L 134.078125 390.164062 L 134.265625 389.472656 L 134.503906 388.882812 L 134.785156 388.230469 L 135.136719 387.675781 L 135.515625 387.171875 L 135.929688 386.660156 L 136.382812 386.207031 L 136.902344 385.789062 L 137.457031 385.425781 L 138.046875 385.097656 L 138.652344 384.824219 L 139.296875 384.597656 L 139.992188 384.40625 L 140.734375 384.269531 L 141.378906 384.230469 L 142.523438 384.230469 L 143.09375 384.320312 L 143.582031 384.40625 L 144.101562 384.546875 L 144.566406 384.734375 L 144.96875 384.960938 L 145.347656 385.238281 L 145.714844 385.515625 L 146.042969 385.789062 L 146.308594 386.15625 L 146.585938 386.480469 L 146.773438 386.847656 L 146.960938 387.261719 L 147.140625 387.675781 L 147.140625 387.816406 L 147.050781 388.003906 L 146.960938 388.140625 L 146.773438 388.316406 L 146.257812 388.644531 L 145.714844 388.921875 L 145.109375 389.234375 L 144.566406 389.5625 L 144.378906 389.738281 L 144.238281 389.890625 L 144.136719 390.066406 L 144.101562 390.253906 L 144.101562 390.390625 L 144.136719 390.480469 L 144.238281 390.582031 L 144.328125 390.667969 L 144.515625 390.757812 L 144.78125 390.804688 L 145.070312 390.804688 L 145.398438 390.757812 L 145.664062 390.617188 Z M 145.902344 390.480469 " fill-opacity="1" fill-rule="evenodd"/><path fill="#ec008c" d="M 247.105469 358.941406 C 247.105469 362.855469 247.136719 366.609375 247.152344 368.890625 L 221.089844 332.867188 L 212.917969 332.867188 L 212.917969 382.09375 L 221.015625 382.09375 L 221.015625 355.949219 C 221.015625 352.019531 220.957031 347.976562 220.914062 345.535156 L 247.441406 382.09375 L 255.117188 382.09375 L 255.117188 332.867188 L 247.09375 332.867188 L 247.09375 358.941406 Z M 247.105469 358.941406 " fill-opacity="1" fill-rule="nonzero"/><path fill="#ec008c" d="M 284.539062 366.074219 C 284.539062 368.371094 284.003906 375.894531 277.066406 375.894531 C 272.691406 375.894531 270.910156 373.570312 270.910156 367.878906 L 270.910156 347.703125 L 262.882812 347.703125 L 262.882812 368.152344 C 262.882812 373.050781 263.707031 376.429688 265.460938 378.785156 C 267.621094 381.527344 270.792969 382.871094 275.195312 382.871094 C 279.007812 382.871094 282.46875 381.371094 284.730469 378.855469 L 284.773438 382.105469 L 292.652344 382.105469 L 292.652344 347.703125 L 284.554688 347.703125 L 284.554688 366.074219 Z M 284.539062 366.074219 " fill-opacity="1" fill-rule="nonzero"/><path fill="#ec008c" d="M 315.210938 347.140625 C 312.082031 347.140625 309.414062 348.554688 307.617188 351.097656 L 307.664062 347.773438 L 299.550781 347.773438 L 299.550781 382.105469 L 307.648438 382.105469 L 307.648438 364.976562 C 307.648438 360.296875 308.964844 357.886719 309.515625 357.105469 C 310.097656 356.355469 311.71875 354.605469 314.371094 354.605469 C 315.628906 354.605469 316.746094 354.824219 317.6875 355.242188 L 317.832031 355.300781 L 318.933594 355.300781 L 319.425781 347.976562 L 318.960938 347.773438 C 318.960938 347.773438 317.542969 347.152344 315.195312 347.152344 Z M 315.210938 347.140625 " fill-opacity="1" fill-rule="nonzero"/><path fill="#ec008c" d="M 339.75 362.636719 C 338.546875 362.160156 337.445312 361.785156 336.054688 361.292969 L 335.257812 361.019531 C 332.117188 360.023438 329.289062 358.941406 329.289062 356.789062 C 329.289062 353.855469 332.144531 353.40625 333.855469 353.40625 C 336.648438 353.40625 339.722656 354.707031 341.675781 356.730469 L 342.285156 357.367188 L 345.878906 352.078125 L 345.488281 351.660156 C 342.632812 348.613281 338.78125 347.140625 333.710938 347.140625 C 328.015625 347.140625 321.875 350.316406 321.875 357.277344 C 321.875 361.089844 323.757812 363.964844 327.449219 365.800781 C 328.652344 366.449219 329.40625 366.695312 330.652344 367.101562 C 331.058594 367.230469 331.523438 367.390625 332.070312 367.578125 C 332.347656 367.679688 332.679688 367.78125 333.042969 367.878906 C 335.433594 368.617188 339.027344 369.742188 339.027344 372.371094 C 339.027344 375.851562 335.503906 376.375 333.417969 376.375 C 330.679688 376.375 326.640625 374.84375 324.25 371.925781 L 323.699219 371.246094 L 319.585938 376.230469 L 319.933594 376.675781 C 323.003906 380.648438 327.769531 382.84375 333.347656 382.84375 C 337.230469 382.84375 340.472656 381.804688 342.980469 379.769531 C 345.371094 377.761719 346.644531 374.988281 346.644531 371.738281 C 346.644531 369.179688 345.660156 366.882812 343.792969 365.136719 C 342.574219 363.921875 340.734375 363.042969 339.734375 362.621094 Z M 339.75 362.636719 " fill-opacity="1" fill-rule="nonzero"/><path fill="#ec008c" d="M 366.898438 347.140625 C 356.785156 347.140625 349.441406 354.605469 349.441406 364.890625 C 349.441406 375.636719 356.382812 382.859375 366.695312 382.859375 C 372.78125 382.859375 378.066406 380.996094 381.558594 377.601562 L 381.675781 377.5 L 382.195312 377.066406 L 378.632812 372.171875 L 378.066406 372.53125 C 377.980469 372.589844 377.851562 372.675781 377.691406 372.792969 C 376.488281 373.644531 372.851562 376.230469 367.535156 376.230469 C 362.21875 376.230469 358.265625 372.792969 357.683594 367.203125 L 382.964844 367.203125 L 383.035156 366.582031 C 383.035156 366.507812 383.253906 364.863281 383.253906 363.578125 C 383.253906 353.898438 376.53125 347.140625 366.898438 347.140625 Z M 366.683594 353.351562 C 372.246094 353.351562 375.039062 357.796875 375.429688 361.335938 L 357.742188 361.335938 C 358.222656 357.871094 360.84375 353.351562 366.683594 353.351562 Z M 366.683594 353.351562 " fill-opacity="1" fill-rule="nonzero"/><path fill="#ec008c" d="M 438.785156 358.941406 C 438.785156 362.855469 438.808594 366.609375 438.824219 368.890625 L 412.765625 332.867188 L 404.59375 332.867188 L 404.59375 382.09375 L 412.691406 382.09375 L 412.691406 355.949219 C 412.691406 352.019531 412.632812 347.976562 412.589844 345.535156 L 439.113281 382.09375 L 446.792969 382.09375 L 446.792969 332.867188 L 438.769531 332.867188 L 438.769531 358.941406 Z M 438.785156 358.941406 " fill-opacity="1" fill-rule="nonzero"/><path fill="#ec008c" d="M 481.386719 372.542969 C 481.296875 372.601562 481.167969 372.6875 481.007812 372.804688 C 479.804688 373.65625 476.171875 376.242188 470.855469 376.242188 C 465.539062 376.242188 461.582031 372.804688 461.003906 367.214844 L 486.28125 367.214844 L 486.355469 366.59375 C 486.355469 366.523438 486.574219 364.875 486.574219 363.589844 C 486.574219 353.914062 479.851562 347.152344 470.21875 347.152344 C 460.105469 347.152344 452.761719 354.621094 452.761719 364.902344 C 452.761719 375.648438 459.703125 382.871094 470.015625 382.871094 C 476.097656 382.871094 481.386719 381.007812 484.875 377.613281 L 484.996094 377.511719 L 485.515625 377.078125 L 481.949219 372.183594 Z M 461.089844 361.351562 C 461.566406 357.882812 464.1875 353.363281 470.03125 353.363281 C 475.59375 353.363281 478.386719 357.8125 478.777344 361.351562 Z M 461.089844 361.351562 " fill-opacity="1" fill-rule="nonzero"/><path fill="#ec008c" d="M 521.820312 347.773438 L 512.574219 347.773438 L 504.539062 359.097656 L 496.496094 347.773438 L 487.328125 347.773438 L 499.742188 364.066406 L 485.777344 382.09375 L 495.109375 382.09375 L 504.539062 369.222656 L 513.96875 382.09375 L 523.296875 382.09375 L 509.332031 364.066406 Z M 521.820312 347.773438 " fill-opacity="1" fill-rule="nonzero"/><path fill="#ec008c" d="M 542.828125 375.074219 C 542.828125 375.074219 541.476562 375.753906 539.753906 375.753906 C 538.03125 375.753906 537.4375 375.234375 536.976562 374.453125 C 536.277344 373.195312 536.234375 371.390625 536.234375 368.777344 L 536.234375 354.59375 L 544.160156 354.59375 L 544.160156 347.832031 L 536.234375 347.832031 L 536.234375 337.996094 L 528.136719 337.996094 L 528.136719 347.832031 L 523.269531 347.832031 L 523.269531 354.59375 L 528.136719 354.59375 L 528.136719 368.90625 C 528.136719 374.136719 528.398438 376.851562 529.921875 379.132812 C 531.585938 381.632812 534.074219 382.84375 537.523438 382.84375 C 540.972656 382.84375 543.742188 381.730469 543.855469 381.675781 L 544.320312 381.472656 L 543.785156 374.554688 L 542.828125 375.042969 Z M 542.828125 375.074219 " fill-opacity="1" fill-rule="nonzero"/><path fill="#ec008c" d="M 598.179688 339.296875 C 596.078125 337.359375 590.070312 332.867188 579.769531 332.867188 L 564.601562 332.867188 L 564.601562 382.09375 L 579.769531 382.09375 C 590.070312 382.09375 596.078125 377.601562 598.179688 375.664062 C 601.671875 372.460938 605.84375 366.695312 605.84375 357.480469 C 605.84375 348.265625 601.671875 342.503906 598.179688 339.296875 Z M 592.066406 370.609375 C 590.386719 372.199219 586.558594 374.84375 579.78125 374.84375 L 572.785156 374.84375 L 572.785156 340.03125 L 579.78125 340.03125 C 586.574219 340.03125 590.398438 342.691406 592.066406 344.265625 C 595.699219 347.6875 597.542969 352.136719 597.542969 357.464844 C 597.542969 362.753906 595.699219 367.15625 592.066406 370.59375 Z M 592.066406 370.609375 " fill-opacity="1" fill-rule="nonzero"/><path fill="#ec008c" d="M 627.3125 347.140625 C 616.75 347.140625 609.089844 354.664062 609.089844 365.035156 C 609.089844 375.363281 616.75 382.859375 627.3125 382.859375 C 637.871094 382.859375 645.464844 375.363281 645.464844 365.035156 C 645.464844 354.664062 637.832031 347.140625 627.3125 347.140625 Z M 627.3125 375.753906 C 621.386719 375.753906 617.257812 371.261719 617.257812 364.832031 C 617.257812 358.449219 621.386719 353.984375 627.3125 353.984375 C 633.238281 353.984375 637.292969 358.449219 637.292969 364.832031 C 637.292969 371.261719 633.191406 375.753906 627.3125 375.753906 Z M 627.3125 375.753906 " fill-opacity="1" fill-rule="nonzero"/><path fill="#ec008c" d="M 666.800781 347.140625 C 656.242188 347.140625 648.578125 354.664062 648.578125 365.035156 C 648.578125 375.363281 656.242188 382.859375 666.800781 382.859375 C 677.363281 382.859375 684.953125 375.363281 684.953125 365.035156 C 684.953125 354.664062 677.320312 347.140625 666.800781 347.140625 Z M 666.800781 375.753906 C 660.875 375.753906 656.746094 371.261719 656.746094 364.832031 C 656.746094 358.449219 660.875 353.984375 666.800781 353.984375 C 672.726562 353.984375 676.785156 358.449219 676.785156 364.832031 C 676.785156 371.261719 672.683594 375.753906 666.800781 375.753906 Z M 666.800781 375.753906 " fill-opacity="1" fill-rule="nonzero"/><path fill="#ec008c" d="M 709.0625 347.761719 C 709.0625 347.761719 707.640625 347.140625 705.296875 347.140625 C 702.167969 347.140625 699.5 348.554688 697.707031 351.097656 L 697.746094 347.773438 L 689.632812 347.773438 L 689.632812 382.105469 L 697.734375 382.105469 L 697.734375 364.976562 C 697.734375 360.296875 699.050781 357.886719 699.601562 357.105469 C 700.179688 356.355469 701.804688 354.605469 704.457031 354.605469 C 705.714844 354.605469 706.832031 354.824219 707.769531 355.242188 L 707.917969 355.300781 L 709.015625 355.300781 L 709.511719 347.976562 L 709.046875 347.773438 Z M 709.0625 347.761719 " fill-opacity="1" fill-rule="nonzero"/><g clip-path="url(#be3e67950a)"><path fill="#ec008c" d="M 720.316406 346.417969 C 716.464844 346.417969 713.4375 349.421875 713.4375 353.277344 C 713.4375 357.132812 716.449219 360.136719 720.316406 360.136719 C 724.1875 360.136719 727.214844 357.132812 727.214844 353.277344 C 727.214844 349.421875 724.1875 346.417969 720.316406 346.417969 Z M 721.390625 351.761719 C 721.390625 352.253906 721.1875 352.585938 720.230469 352.585938 L 719.578125 352.585938 L 719.578125 350.9375 L 720.230469 350.9375 C 721.1875 350.9375 721.390625 351.269531 721.390625 351.777344 Z M 722.054688 354.042969 C 722.605469 353.8125 723.519531 353.207031 723.519531 351.730469 C 723.519531 350.144531 722.359375 349.160156 720.492188 349.160156 L 717.503906 349.160156 L 717.503906 357.394531 L 719.59375 357.394531 L 719.59375 354.359375 L 719.96875 354.359375 L 721.59375 357.394531 L 723.851562 357.394531 C 722.910156 358.1875 721.691406 358.652344 720.347656 358.652344 C 717.320312 358.652344 714.957031 356.28125 714.957031 353.277344 C 714.957031 350.273438 717.332031 347.90625 720.347656 347.90625 C 723.363281 347.90625 725.738281 350.273438 725.738281 353.277344 C 725.738281 354.882812 725.070312 356.296875 723.984375 357.277344 L 722.070312 354.042969 Z M 722.054688 354.042969 " fill-opacity="1" fill-rule="nonzero"/></g><path fill="#464647" d="M 236.226562 427.964844 L 235.894531 429.394531 C 234.546875 429.929688 233.488281 430.320312 232.75 430.566406 C 232.011719 430.8125 231.242188 430.941406 230.476562 430.941406 C 229.273438 430.941406 228.375 430.625 227.78125 430.015625 C 227.1875 429.410156 226.882812 428.628906 226.882812 427.71875 C 226.882812 427.386719 226.914062 427.027344 226.96875 426.636719 C 227.027344 426.246094 227.128906 425.769531 227.261719 425.234375 L 229.460938 416.871094 C 229.621094 416.238281 229.753906 415.644531 229.851562 415.125 C 229.953125 414.605469 229.996094 414.1875 229.996094 413.867188 C 229.996094 412.871094 229.765625 412.078125 229.289062 411.484375 C 228.808594 410.90625 228.101562 410.605469 227.171875 410.605469 C 226.246094 410.605469 225.1875 410.90625 224.085938 411.527344 C 222.988281 412.136719 221.929688 413 220.929688 414.113281 L 217.121094 430.566406 L 212.917969 430.566406 L 219.609375 401.722656 C 219.683594 401.375 219.742188 401.085938 219.800781 400.839844 C 219.855469 400.59375 219.871094 400.347656 219.871094 400.074219 C 219.871094 399.539062 219.785156 399.121094 219.597656 398.832031 C 219.421875 398.542969 219.164062 398.328125 218.828125 398.167969 C 218.539062 398.039062 218.148438 397.9375 217.65625 397.894531 C 217.164062 397.851562 216.671875 397.792969 216.164062 397.734375 L 216.480469 396.363281 L 224.839844 395.871094 L 225.074219 396.203125 L 221.480469 411.6875 L 221.566406 411.6875 C 223.101562 410.445312 224.476562 409.507812 225.679688 408.871094 C 226.882812 408.234375 228.257812 407.917969 229.796875 407.917969 C 231.230469 407.917969 232.34375 408.335938 233.15625 409.160156 C 233.96875 409.984375 234.359375 411.082031 234.359375 412.425781 C 234.359375 412.699219 234.316406 413.175781 234.226562 413.855469 C 234.140625 414.53125 234.011719 415.226562 233.835938 415.890625 L 231.953125 423.082031 C 231.839844 423.5625 231.707031 424.109375 231.578125 424.730469 C 231.445312 425.351562 231.375 425.828125 231.375 426.175781 C 231.375 427.027344 231.5625 427.605469 231.9375 427.90625 C 232.316406 428.210938 232.925781 428.371094 233.777344 428.371094 C 234.070312 428.371094 234.472656 428.328125 235.011719 428.226562 C 235.546875 428.125 235.953125 428.023438 236.242188 427.921875 Z M 236.226562 427.964844 " fill-opacity="1" fill-rule="nonzero"/><path fill="#464647" d="M 259.914062 416.757812 C 259.914062 418.519531 259.609375 420.28125 259.015625 422.042969 C 258.421875 423.804688 257.550781 425.351562 256.40625 426.679688 C 255.25 428.050781 253.871094 429.164062 252.234375 429.988281 C 250.613281 430.8125 248.730469 431.230469 246.585938 431.230469 C 244.09375 431.230469 242.082031 430.4375 240.53125 428.832031 C 238.980469 427.230469 238.199219 425.078125 238.199219 422.375 C 238.199219 420.382812 238.53125 418.535156 239.183594 416.816406 C 239.835938 415.097656 240.71875 413.578125 241.835938 412.28125 C 242.964844 410.980469 244.339844 409.925781 246.007812 409.132812 C 247.671875 408.335938 249.453125 407.933594 251.382812 407.933594 C 254.046875 407.933594 256.132812 408.742188 257.640625 410.359375 C 259.144531 411.976562 259.898438 414.101562 259.898438 416.742188 Z M 255.335938 415.90625 C 255.335938 413.78125 254.960938 412.191406 254.207031 411.125 C 253.453125 410.054688 252.367188 409.535156 250.933594 409.535156 C 249.6875 409.535156 248.511719 409.910156 247.410156 410.675781 C 246.3125 411.441406 245.367188 412.683594 244.574219 414.402344 C 243.964844 415.703125 243.515625 417.148438 243.226562 418.738281 C 242.933594 420.324219 242.804688 421.796875 242.804688 423.140625 C 242.804688 425.277344 243.179688 426.898438 243.921875 427.996094 C 244.660156 429.09375 245.773438 429.640625 247.28125 429.640625 C 248.613281 429.640625 249.800781 429.222656 250.832031 428.382812 C 251.859375 427.546875 252.699219 426.492188 253.351562 425.207031 C 253.988281 423.949219 254.496094 422.507812 254.828125 420.886719 C 255.164062 419.269531 255.351562 417.609375 255.351562 415.90625 Z M 255.335938 415.90625 " fill-opacity="1" fill-rule="nonzero"/><path fill="#464647" d="M 299.460938 428.039062 L 299.128906 429.46875 C 297.753906 430.015625 296.636719 430.40625 295.8125 430.625 C 294.988281 430.839844 294.277344 430.941406 293.695312 430.941406 C 292.496094 430.941406 291.597656 430.625 290.988281 430.015625 C 290.394531 429.394531 290.089844 428.628906 290.089844 427.722656 C 290.089844 427.386719 290.117188 427.027344 290.175781 426.636719 C 290.234375 426.246094 290.335938 425.769531 290.464844 425.238281 L 292.683594 416.875 C 292.84375 416.238281 292.988281 415.644531 293.074219 415.125 C 293.160156 414.605469 293.21875 414.1875 293.21875 413.867188 C 293.21875 412.871094 293 412.078125 292.566406 411.484375 C 292.132812 410.90625 291.453125 410.605469 290.507812 410.605469 C 289.511719 410.605469 288.539062 410.835938 287.570312 411.3125 C 286.613281 411.789062 285.527344 412.65625 284.324219 413.957031 L 280.382812 430.566406 L 276.210938 430.566406 L 279.746094 415.589844 C 279.820312 415.253906 279.890625 414.910156 279.964844 414.546875 C 280.035156 414.1875 280.066406 413.914062 280.066406 413.726562 C 280.066406 412.757812 279.820312 411.992188 279.339844 411.441406 C 278.863281 410.894531 278.152344 410.621094 277.210938 410.621094 C 276.355469 410.621094 275.429688 410.835938 274.402344 411.253906 C 273.371094 411.671875 272.183594 412.640625 270.835938 414.113281 L 266.996094 430.566406 L 262.796875 430.566406 L 266.171875 416.035156 C 266.289062 415.515625 266.402344 414.953125 266.519531 414.359375 C 266.636719 413.769531 266.695312 413.25 266.695312 412.828125 C 266.695312 411.960938 266.546875 411.386719 266.273438 411.109375 C 265.984375 410.835938 265.433594 410.691406 264.609375 410.691406 C 264.273438 410.691406 263.855469 410.75 263.332031 410.878906 C 262.8125 411.007812 262.40625 411.109375 262.128906 411.183594 L 262.464844 409.738281 C 263.636719 409.21875 264.679688 408.828125 265.578125 408.570312 C 266.476562 408.308594 267.257812 408.179688 267.910156 408.179688 C 269.113281 408.179688 269.96875 408.496094 270.476562 409.160156 C 270.980469 409.808594 271.242188 410.691406 271.269531 411.816406 L 271.402344 411.816406 C 273.167969 410.429688 274.617188 409.433594 275.746094 408.84375 C 276.878906 408.25 278.238281 407.949219 279.804688 407.949219 C 281.136719 407.949219 282.207031 408.335938 283.050781 409.101562 C 283.875 409.867188 284.351562 410.835938 284.453125 412.007812 L 284.542969 412.007812 C 286.136719 410.675781 287.554688 409.664062 288.800781 408.972656 C 290.046875 408.28125 291.496094 407.949219 293.144531 407.949219 C 294.582031 407.949219 295.679688 408.367188 296.449219 409.1875 C 297.21875 410.011719 297.609375 411.109375 297.609375 412.453125 C 297.609375 412.726562 297.566406 413.203125 297.476562 413.882812 C 297.390625 414.5625 297.261719 415.253906 297.085938 415.921875 L 295.1875 423.113281 C 295.058594 423.589844 294.929688 424.140625 294.8125 424.761719 C 294.695312 425.382812 294.636719 425.859375 294.636719 426.203125 C 294.636719 427.054688 294.8125 427.632812 295.175781 427.9375 C 295.535156 428.242188 296.144531 428.398438 297 428.398438 C 297.289062 428.398438 297.695312 428.355469 298.230469 428.285156 C 298.765625 428.210938 299.1875 428.125 299.460938 428.007812 Z M 299.460938 428.039062 " fill-opacity="1" fill-rule="nonzero"/><path fill="#464647" d="M 320.832031 412.613281 C 320.832031 414.199219 320.339844 415.558594 319.339844 416.699219 C 318.339844 417.839844 316.890625 418.738281 314.992188 419.414062 C 313.601562 419.921875 312.195312 420.339844 310.761719 420.644531 C 309.34375 420.960938 307.765625 421.21875 306.039062 421.421875 C 306.039062 423.777344 306.476562 425.582031 307.359375 426.839844 C 308.242188 428.097656 309.515625 428.703125 311.210938 428.703125 C 312.703125 428.703125 314.035156 428.328125 315.179688 427.574219 C 316.324219 426.824219 317.457031 425.710938 318.554688 424.238281 L 319.832031 425.179688 C 318.628906 427 317.136719 428.457031 315.339844 429.539062 C 313.542969 430.625 311.675781 431.171875 309.75 431.171875 C 307.097656 431.171875 305.070312 430.4375 303.679688 428.949219 C 302.289062 427.460938 301.578125 425.367188 301.578125 422.652344 C 301.578125 420.773438 301.867188 418.96875 302.460938 417.261719 C 303.054688 415.558594 303.925781 413.984375 305.054688 412.570312 C 306.171875 411.183594 307.519531 410.054688 309.125 409.203125 C 310.734375 408.351562 312.515625 407.933594 314.457031 407.933594 C 316.617188 407.933594 318.207031 408.367188 319.253906 409.246094 C 320.296875 410.128906 320.816406 411.238281 320.816406 412.597656 Z M 316.703125 412.046875 C 316.703125 411.472656 316.617188 411.007812 316.457031 410.675781 C 316.296875 410.34375 316.078125 410.097656 315.832031 409.925781 C 315.558594 409.753906 315.28125 409.636719 314.976562 409.59375 C 314.675781 409.550781 314.371094 409.519531 314.050781 409.519531 C 312.253906 409.519531 310.589844 410.503906 309.082031 412.46875 C 307.5625 414.433594 306.605469 416.886719 306.199219 419.820312 C 307.242188 419.675781 308.429688 419.457031 309.75 419.183594 C 311.066406 418.910156 312.152344 418.546875 313.023438 418.101562 C 314.269531 417.464844 315.195312 416.640625 315.804688 415.628906 C 316.414062 414.621094 316.71875 413.433594 316.71875 412.046875 Z M 316.703125 412.046875 " fill-opacity="1" fill-rule="nonzero"/><path fill="#464647" d="M 342.820312 431.1875 C 340.199219 431.1875 338.128906 430.421875 336.605469 428.90625 C 335.085938 427.386719 334.332031 425.207031 334.332031 422.40625 C 334.332031 420.542969 334.621094 418.75 335.203125 417.03125 C 335.78125 415.3125 336.578125 413.796875 337.621094 412.46875 C 338.664062 411.140625 339.96875 410.054688 341.546875 409.203125 C 343.125 408.351562 344.878906 407.933594 346.820312 407.933594 C 348.964844 407.933594 350.585938 408.378906 351.703125 409.289062 C 352.816406 410.199219 353.382812 411.328125 353.382812 412.699219 C 353.382812 413.722656 353.136719 414.632812 352.65625 415.414062 C 352.179688 416.195312 351.441406 416.585938 350.46875 416.585938 C 349.660156 416.585938 349.050781 416.382812 348.644531 415.976562 C 348.238281 415.574219 348.035156 415.125 348.035156 414.632812 C 348.035156 414.144531 348.195312 413.507812 348.527344 412.683594 C 348.863281 411.859375 349.109375 411.195312 349.296875 410.691406 C 349.136719 410.285156 348.761719 409.996094 348.195312 409.808594 C 347.632812 409.621094 347.039062 409.535156 346.414062 409.535156 C 344.371094 409.535156 342.617188 410.71875 341.140625 413.089844 C 339.664062 415.457031 338.925781 418.359375 338.925781 421.785156 C 338.925781 423.90625 339.402344 425.582031 340.359375 426.839844 C 341.316406 428.082031 342.605469 428.703125 344.210938 428.703125 C 345.660156 428.703125 346.964844 428.3125 348.09375 427.53125 C 349.226562 426.753906 350.3125 425.65625 351.339844 424.238281 L 352.628906 425.179688 C 351.601562 426.808594 350.195312 428.210938 348.414062 429.394531 C 346.632812 430.578125 344.777344 431.171875 342.835938 431.171875 Z M 342.820312 431.1875 " fill-opacity="1" fill-rule="nonzero"/><path fill="#464647" d="M 369.1875 427.605469 L 369.027344 427.605469 C 368.695312 427.878906 368.304688 428.210938 367.855469 428.628906 C 367.40625 429.035156 366.867188 429.4375 366.246094 429.800781 C 365.667969 430.175781 365.03125 430.492188 364.332031 430.769531 C 363.652344 431.042969 362.898438 431.1875 362.089844 431.1875 C 359.914062 431.1875 358.21875 430.40625 356.988281 428.859375 C 355.757812 427.316406 355.132812 425.179688 355.132812 422.492188 C 355.132812 420.644531 355.480469 418.835938 356.164062 417.089844 C 356.859375 415.34375 357.800781 413.765625 359.015625 412.382812 C 360.175781 411.050781 361.539062 409.984375 363.132812 409.160156 C 364.710938 408.351562 366.347656 407.933594 368.027344 407.933594 C 369.085938 407.933594 370.101562 408.078125 371.070312 408.351562 C 372.039062 408.625 372.792969 408.957031 373.34375 409.320312 L 377.472656 408.265625 L 377.75 408.597656 L 374.328125 423.054688 C 374.214844 423.515625 374.082031 424.082031 373.953125 424.746094 C 373.824219 425.410156 373.765625 425.898438 373.765625 426.21875 C 373.765625 427.070312 373.9375 427.648438 374.300781 427.9375 C 374.664062 428.238281 375.269531 428.382812 376.125 428.382812 C 376.414062 428.382812 376.820312 428.339844 377.34375 428.253906 C 377.863281 428.167969 378.269531 428.066406 378.558594 427.964844 L 378.226562 429.394531 C 376.878906 429.929688 375.863281 430.320312 375.214844 430.566406 C 374.5625 430.8125 373.75 430.925781 372.808594 430.925781 C 371.722656 430.925781 370.867188 430.609375 370.246094 429.988281 C 369.621094 429.367188 369.273438 428.558594 369.214844 427.589844 Z M 372.417969 413.433594 C 372.417969 412.945312 372.359375 412.46875 372.257812 412.019531 C 372.15625 411.570312 371.9375 411.152344 371.605469 410.761719 C 371.300781 410.386719 370.894531 410.085938 370.375 409.867188 C 369.851562 409.652344 369.1875 409.535156 368.390625 409.535156 C 367.304688 409.535156 366.230469 409.894531 365.203125 410.617188 C 364.175781 411.339844 363.234375 412.292969 362.421875 413.507812 C 361.640625 414.648438 361 416.019531 360.507812 417.636719 C 360.015625 419.257812 359.769531 420.886719 359.769531 422.550781 C 359.769531 423.460938 359.828125 424.269531 359.929688 424.976562 C 360.03125 425.683594 360.234375 426.320312 360.539062 426.910156 C 360.828125 427.476562 361.234375 427.921875 361.769531 428.238281 C 362.304688 428.558594 362.988281 428.71875 363.8125 428.71875 C 364.636719 428.71875 365.523438 428.484375 366.449219 428.007812 C 367.363281 427.53125 368.40625 426.710938 369.550781 425.523438 L 372.433594 413.464844 Z M 372.417969 413.433594 " fill-opacity="1" fill-rule="nonzero"/><path fill="#464647" d="M 400.378906 411.585938 C 400.378906 412.003906 400.320312 412.46875 400.203125 412.957031 C 400.085938 413.449219 399.914062 413.867188 399.683594 414.199219 C 399.40625 414.605469 399.117188 414.910156 398.796875 415.125 C 398.480469 415.34375 398.015625 415.441406 397.421875 415.441406 C 396.609375 415.441406 396.003906 415.242188 395.597656 414.835938 C 395.191406 414.433594 394.988281 413.984375 394.988281 413.492188 C 394.988281 413.03125 395.105469 412.511719 395.320312 411.933594 C 395.539062 411.355469 395.785156 410.792969 396.015625 410.214844 C 395.84375 410.214844 395.539062 410.257812 395.132812 410.359375 C 394.726562 410.460938 394.21875 410.648438 393.640625 410.9375 C 393.0625 411.226562 392.394531 411.644531 391.65625 412.207031 C 390.917969 412.769531 390.136719 413.535156 389.292969 414.476562 L 385.671875 430.523438 L 381.488281 430.523438 L 384.761719 415.992188 C 384.832031 415.628906 384.949219 415.097656 385.078125 414.375 C 385.222656 413.652344 385.296875 413.132812 385.296875 412.785156 C 385.296875 411.949219 385.152344 411.382812 384.875 411.109375 C 384.585938 410.820312 384.023438 410.691406 383.167969 410.691406 C 382.832031 410.691406 382.414062 410.75 381.90625 410.863281 C 381.398438 410.980469 381.007812 411.066406 380.71875 411.140625 L 381.050781 409.707031 C 382.226562 409.1875 383.253906 408.796875 384.152344 408.539062 C 385.050781 408.277344 385.816406 408.164062 386.46875 408.164062 C 387.671875 408.164062 388.527344 408.480469 389.035156 409.144531 C 389.542969 409.796875 389.800781 410.777344 389.800781 412.078125 L 389.933594 412.078125 C 391.714844 410.53125 393.0625 409.464844 393.988281 408.855469 C 394.914062 408.25 395.871094 407.933594 396.871094 407.933594 C 397.347656 407.933594 397.8125 407.988281 398.261719 408.105469 C 398.710938 408.222656 399.089844 408.421875 399.40625 408.710938 C 399.738281 409.03125 399.984375 409.390625 400.128906 409.796875 C 400.277344 410.199219 400.363281 410.808594 400.363281 411.570312 Z M 400.378906 411.585938 " fill-opacity="1" fill-rule="nonzero"/><path fill="#464647" d="M 420.222656 412.613281 C 420.222656 414.199219 419.730469 415.558594 418.730469 416.699219 C 417.730469 417.839844 416.285156 418.738281 414.386719 419.414062 C 412.996094 419.921875 411.589844 420.339844 410.15625 420.644531 C 408.734375 420.960938 407.15625 421.21875 405.433594 421.421875 C 405.433594 423.777344 405.867188 425.582031 406.75 426.839844 C 407.621094 428.082031 408.910156 428.703125 410.605469 428.703125 C 412.097656 428.703125 413.429688 428.328125 414.574219 427.574219 C 415.71875 426.824219 416.847656 425.710938 417.949219 424.238281 L 419.222656 425.179688 C 418.023438 427 416.527344 428.457031 414.734375 429.539062 C 412.9375 430.625 411.066406 431.171875 409.140625 431.171875 C 406.488281 431.171875 404.460938 430.4375 403.070312 428.949219 C 401.664062 427.476562 400.96875 425.367188 400.96875 422.652344 C 400.96875 420.773438 401.261719 418.96875 401.855469 417.261719 C 402.449219 415.558594 403.316406 413.984375 404.449219 412.570312 C 405.5625 411.183594 406.910156 410.054688 408.519531 409.203125 C 410.125 408.351562 411.90625 407.933594 413.847656 407.933594 C 416.007812 407.933594 417.601562 408.367188 418.644531 409.246094 C 419.6875 410.128906 420.210938 411.238281 420.210938 412.597656 Z M 416.09375 412.046875 C 416.09375 411.472656 416.007812 411.007812 415.847656 410.675781 C 415.6875 410.34375 415.472656 410.097656 415.226562 409.925781 C 414.949219 409.753906 414.675781 409.636719 414.371094 409.59375 C 414.066406 409.550781 413.761719 409.519531 413.445312 409.519531 C 411.648438 409.519531 409.980469 410.503906 408.476562 412.46875 C 406.953125 414.433594 405.996094 416.886719 405.589844 419.820312 C 406.636719 419.675781 407.824219 419.457031 409.140625 419.183594 C 410.460938 418.910156 411.546875 418.546875 412.414062 418.101562 C 413.660156 417.464844 414.589844 416.640625 415.195312 415.628906 C 415.804688 414.621094 416.109375 413.433594 416.109375 412.046875 Z M 416.09375 412.046875 " fill-opacity="1" fill-rule="nonzero"/><path fill="#464647" d="M 440.359375 431.230469 C 438.144531 431.230469 436.304688 430.839844 434.828125 430.058594 C 433.351562 429.28125 432.609375 428.253906 432.609375 426.984375 C 432.609375 426.390625 432.828125 425.828125 433.261719 425.308594 C 433.699219 424.789062 434.234375 424.527344 434.855469 424.527344 C 435.480469 424.527344 435.941406 424.671875 436.304688 424.945312 C 436.667969 425.222656 436.957031 425.554688 437.175781 425.914062 C 437.40625 426.304688 437.597656 426.765625 437.769531 427.300781 C 437.941406 427.835938 438.085938 428.28125 438.203125 428.617188 C 438.4375 428.875 438.742188 429.105469 439.128906 429.324219 C 439.519531 429.539062 440.101562 429.640625 440.855469 429.640625 C 442.476562 429.640625 443.695312 429.234375 444.535156 428.425781 C 445.359375 427.617188 445.78125 426.519531 445.78125 425.148438 C 445.78125 424.136719 445.386719 423.316406 444.605469 422.707031 C 443.820312 422.101562 442.664062 421.539062 441.132812 421.03125 C 440.578125 420.859375 439.929688 420.585938 439.171875 420.210938 C 438.421875 419.832031 437.828125 419.445312 437.375 419.023438 C 436.839844 418.546875 436.410156 417.96875 436.074219 417.320312 C 435.742188 416.671875 435.578125 415.890625 435.578125 414.980469 C 435.578125 413.058594 436.433594 411.414062 438.160156 410.011719 C 439.882812 408.609375 441.984375 407.917969 444.488281 407.917969 C 445.070312 407.917969 445.707031 407.945312 446.375 408.003906 C 447.042969 408.0625 447.792969 408.234375 448.605469 408.496094 C 449.316406 408.742188 449.910156 409.085938 450.402344 409.5625 C 450.890625 410.039062 451.140625 410.648438 451.140625 411.382812 C 451.140625 411.992188 450.9375 412.554688 450.519531 413.058594 C 450.097656 413.566406 449.5625 413.8125 448.894531 413.8125 C 448.34375 413.8125 447.882812 413.695312 447.519531 413.449219 C 447.15625 413.203125 446.867188 412.886719 446.621094 412.480469 C 446.375 412.078125 446.183594 411.644531 446.039062 411.183594 C 445.894531 410.71875 445.722656 410.257812 445.550781 409.808594 C 445.261719 409.695312 445.011719 409.609375 444.78125 409.5625 C 444.546875 409.519531 444.257812 409.492188 443.882812 409.492188 C 442.417969 409.492188 441.304688 409.882812 440.550781 410.675781 C 439.796875 411.457031 439.417969 412.394531 439.417969 413.476562 C 439.417969 414.5625 439.765625 415.3125 440.449219 415.847656 C 441.132812 416.382812 442.261719 416.929688 443.820312 417.492188 C 445.867188 418.230469 447.347656 419.066406 448.253906 420.007812 C 449.183594 420.945312 449.632812 422.117188 449.632812 423.503906 C 449.632812 425.769531 448.765625 427.632812 447.011719 429.0625 C 445.261719 430.492188 443.054688 431.199219 440.390625 431.199219 Z M 440.359375 431.230469 " fill-opacity="1" fill-rule="nonzero"/><path fill="#464647" d="M 472.433594 412.613281 C 472.433594 414.199219 471.941406 415.558594 470.941406 416.699219 C 469.945312 417.839844 468.496094 418.738281 466.597656 419.414062 C 465.207031 419.921875 463.800781 420.339844 462.367188 420.644531 C 460.945312 420.960938 459.367188 421.21875 457.644531 421.421875 C 457.644531 423.777344 458.078125 425.582031 458.960938 426.839844 C 459.847656 428.097656 461.121094 428.703125 462.816406 428.703125 C 464.308594 428.703125 465.640625 428.328125 466.785156 427.574219 C 467.929688 426.824219 469.058594 425.710938 470.160156 424.238281 L 471.4375 425.179688 C 470.234375 427 468.742188 428.457031 466.945312 429.539062 C 465.148438 430.625 463.277344 431.171875 461.351562 431.171875 C 458.703125 431.171875 456.675781 430.4375 455.285156 428.949219 C 453.890625 427.460938 453.183594 425.367188 453.183594 422.652344 C 453.183594 420.773438 453.472656 418.96875 454.066406 417.261719 C 454.660156 415.558594 455.53125 413.984375 456.660156 412.570312 C 457.773438 411.183594 459.125 410.054688 460.730469 409.203125 C 462.339844 408.351562 464.121094 407.933594 466.0625 407.933594 C 468.21875 407.933594 469.8125 408.367188 470.855469 409.246094 C 471.898438 410.128906 472.417969 411.238281 472.417969 412.597656 Z M 468.289062 412.046875 C 468.289062 411.472656 468.207031 411.007812 468.042969 410.675781 C 467.886719 410.34375 467.671875 410.097656 467.421875 409.925781 C 467.144531 409.753906 466.871094 409.636719 466.566406 409.59375 C 466.261719 409.550781 465.957031 409.519531 465.640625 409.519531 C 463.847656 409.519531 462.175781 410.503906 460.671875 412.46875 C 459.148438 414.433594 458.195312 416.886719 457.789062 419.820312 C 458.832031 419.675781 460.023438 419.457031 461.339844 419.183594 C 462.660156 418.910156 463.742188 418.546875 464.613281 418.101562 C 465.859375 417.464844 466.785156 416.640625 467.394531 415.628906 C 468 414.621094 468.304688 413.433594 468.304688 412.046875 Z M 468.289062 412.046875 " fill-opacity="1" fill-rule="nonzero"/><path fill="#464647" d="M 494.585938 411.585938 C 494.585938 412.003906 494.53125 412.46875 494.410156 412.957031 C 494.292969 413.449219 494.121094 413.867188 493.890625 414.199219 C 493.617188 414.605469 493.328125 414.910156 493.007812 415.125 C 492.6875 415.34375 492.222656 415.441406 491.628906 415.441406 C 490.820312 415.441406 490.210938 415.242188 489.808594 414.835938 C 489.398438 414.433594 489.199219 413.984375 489.199219 413.492188 C 489.199219 413.03125 489.3125 412.511719 489.527344 411.933594 C 489.746094 411.355469 489.992188 410.792969 490.222656 410.214844 C 490.050781 410.214844 489.746094 410.257812 489.339844 410.359375 C 488.933594 410.460938 488.429688 410.648438 487.847656 410.9375 C 487.269531 411.226562 486.601562 411.644531 485.863281 412.207031 C 485.125 412.769531 484.34375 413.535156 483.503906 414.476562 L 479.878906 430.523438 L 475.691406 430.523438 L 478.96875 415.992188 C 479.042969 415.628906 479.160156 415.097656 479.285156 414.375 C 479.433594 413.652344 479.503906 413.132812 479.503906 412.785156 C 479.503906 411.949219 479.359375 411.382812 479.085938 411.109375 C 478.796875 410.820312 478.230469 410.691406 477.375 410.691406 C 477.042969 410.691406 476.621094 410.75 476.113281 410.863281 C 475.609375 410.980469 475.214844 411.066406 474.925781 411.140625 L 475.261719 409.707031 C 476.433594 409.1875 477.460938 408.796875 478.359375 408.539062 C 479.257812 408.277344 480.027344 408.164062 480.675781 408.164062 C 481.878906 408.164062 482.738281 408.480469 483.242188 409.144531 C 483.75 409.796875 484.007812 410.777344 484.007812 412.078125 L 484.140625 412.078125 C 485.921875 410.53125 487.269531 409.464844 488.195312 408.855469 C 489.125 408.25 490.082031 407.933594 491.078125 407.933594 C 491.558594 407.933594 492.019531 407.988281 492.472656 408.105469 C 492.917969 408.222656 493.296875 408.421875 493.617188 408.710938 C 493.945312 409.03125 494.195312 409.390625 494.339844 409.796875 C 494.484375 410.199219 494.570312 410.808594 494.570312 411.570312 Z M 494.585938 411.585938 " fill-opacity="1" fill-rule="nonzero"/><path fill="#464647" d="M 518.386719 412.09375 C 518.386719 414.359375 518.039062 416.671875 517.355469 419.011719 C 516.660156 421.351562 515.722656 423.402344 514.535156 425.148438 C 513.316406 426.953125 511.867188 428.429688 510.199219 429.554688 C 508.519531 430.679688 506.679688 431.246094 504.679688 431.246094 C 502.683594 431.246094 501.160156 430.695312 499.988281 429.613281 C 498.8125 428.527344 498.234375 427.070312 498.234375 425.25 C 498.234375 424.902344 498.277344 424.511719 498.367188 424.082031 C 498.449219 423.648438 498.507812 423.359375 498.539062 423.199219 L 500.492188 416.019531 C 500.640625 415.441406 500.769531 414.867188 500.886719 414.300781 C 501.003906 413.738281 501.058594 413.246094 501.058594 412.828125 C 501.058594 411.992188 500.914062 411.425781 500.625 411.152344 C 500.335938 410.863281 499.757812 410.734375 498.902344 410.734375 C 498.582031 410.734375 498.160156 410.792969 497.625 410.921875 C 497.089844 411.050781 496.683594 411.152344 496.410156 411.226562 L 496.742188 409.796875 C 497.914062 409.273438 498.945312 408.871094 499.855469 408.597656 C 500.769531 408.320312 501.496094 408.175781 502.03125 408.175781 C 503.230469 408.175781 504.117188 408.453125 504.695312 409 C 505.273438 409.550781 505.5625 410.359375 505.5625 411.398438 C 505.5625 411.703125 505.535156 412.0625 505.492188 412.480469 C 505.4375 412.902344 505.347656 413.378906 505.214844 413.882812 L 503.058594 422.246094 C 502.914062 422.808594 502.796875 423.359375 502.726562 423.878906 C 502.652344 424.398438 502.609375 424.746094 502.609375 424.890625 C 502.609375 425.667969 502.742188 426.304688 502.988281 426.78125 C 503.230469 427.273438 503.550781 427.648438 503.914062 427.90625 C 504.273438 428.167969 504.667969 428.339844 505.085938 428.441406 C 505.503906 428.542969 505.957031 428.601562 506.402344 428.601562 C 507.417969 428.601562 508.476562 428.285156 509.566406 427.632812 C 510.648438 427 511.59375 426.160156 512.402344 425.121094 C 513.285156 423.992188 513.996094 422.75 514.535156 421.363281 C 515.070312 419.976562 515.34375 418.449219 515.34375 416.773438 C 515.34375 415.875 515.210938 415.183594 514.964844 414.691406 C 514.71875 414.199219 514.445312 413.78125 514.140625 413.421875 C 513.835938 413.046875 513.5625 412.65625 513.316406 412.25 C 513.070312 411.847656 512.9375 411.253906 512.9375 410.519531 C 512.9375 409.664062 513.226562 409.015625 513.792969 408.566406 C 514.355469 408.121094 514.964844 407.890625 515.589844 407.890625 C 516.472656 407.890625 517.167969 408.25 517.660156 408.957031 C 518.167969 409.664062 518.417969 410.691406 518.417969 412.035156 Z M 518.386719 412.09375 " fill-opacity="1" fill-rule="nonzero"/><path fill="#464647" d="M 531.84375 428.125 L 531.511719 429.554688 C 530.136719 430.105469 529.035156 430.492188 528.207031 430.710938 C 527.382812 430.925781 526.6875 431.027344 526.09375 431.027344 C 524.894531 431.027344 523.996094 430.710938 523.402344 430.105469 C 522.808594 429.496094 522.503906 428.71875 522.503906 427.808594 C 522.503906 427.460938 522.53125 427.097656 522.585938 426.722656 C 522.644531 426.347656 522.75 425.886719 522.875 425.308594 L 525.253906 415.777344 C 525.371094 415.253906 525.488281 414.691406 525.601562 414.101562 C 525.71875 413.507812 525.777344 412.988281 525.777344 412.570312 C 525.777344 411.730469 525.628906 411.183594 525.355469 410.894531 C 525.082031 410.617188 524.515625 410.472656 523.660156 410.472656 C 523.328125 410.472656 522.890625 410.53125 522.339844 410.632812 C 521.792969 410.734375 521.382812 410.820312 521.09375 410.90625 L 521.429688 409.476562 C 522.601562 408.957031 523.648438 408.566406 524.574219 408.308594 C 525.503906 408.046875 526.238281 407.933594 526.773438 407.933594 C 528.007812 407.933594 528.890625 408.222656 529.441406 408.8125 C 529.988281 409.390625 530.265625 410.1875 530.265625 411.167969 C 530.265625 411.441406 530.234375 411.804688 530.179688 412.265625 C 530.121094 412.726562 530.035156 413.191406 529.90625 413.652344 L 527.515625 423.183594 C 527.367188 423.761719 527.238281 424.339844 527.121094 424.902344 C 527.003906 425.46875 526.949219 425.929688 526.949219 426.277344 C 526.949219 427.128906 527.136719 427.707031 527.515625 428.023438 C 527.890625 428.34375 528.511719 428.5 529.367188 428.5 C 529.65625 428.5 530.0625 428.457031 530.582031 428.386719 C 531.109375 428.3125 531.527344 428.226562 531.800781 428.109375 Z M 533.441406 399.46875 C 533.441406 400.320312 533.164062 401.058594 532.613281 401.691406 C 532.0625 402.328125 531.367188 402.644531 530.539062 402.644531 C 529.773438 402.644531 529.121094 402.34375 528.570312 401.734375 C 528.019531 401.128906 527.746094 400.4375 527.746094 399.671875 C 527.746094 398.847656 528.019531 398.140625 528.570312 397.519531 C 529.121094 396.898438 529.789062 396.59375 530.539062 396.59375 C 531.398438 396.59375 532.089844 396.882812 532.625 397.460938 C 533.164062 398.039062 533.441406 398.703125 533.441406 399.46875 Z M 533.441406 399.46875 " fill-opacity="1" fill-rule="nonzero"/><path fill="#464647" d="M 542.359375 431.1875 C 539.738281 431.1875 537.667969 430.421875 536.144531 428.90625 C 534.628906 427.386719 533.871094 425.207031 533.871094 422.40625 C 533.871094 420.542969 534.164062 418.75 534.742188 417.03125 C 535.320312 415.3125 536.121094 413.796875 537.160156 412.46875 C 538.203125 411.140625 539.507812 410.054688 541.089844 409.203125 C 542.664062 408.351562 544.417969 407.933594 546.363281 407.933594 C 548.507812 407.933594 550.128906 408.378906 551.242188 409.289062 C 552.355469 410.199219 552.925781 411.328125 552.925781 412.699219 C 552.925781 413.722656 552.675781 414.632812 552.199219 415.414062 C 551.722656 416.195312 550.980469 416.585938 550.007812 416.585938 C 549.199219 416.585938 548.589844 416.382812 548.1875 415.976562 C 547.78125 415.574219 547.578125 415.125 547.578125 414.632812 C 547.578125 414.144531 547.738281 413.507812 548.070312 412.683594 C 548.402344 411.859375 548.648438 411.195312 548.835938 410.691406 C 548.679688 410.285156 548.300781 409.996094 547.738281 409.808594 C 547.171875 409.621094 546.578125 409.535156 545.953125 409.535156 C 543.910156 409.535156 542.160156 410.71875 540.679688 413.089844 C 539.203125 415.457031 538.46875 418.359375 538.46875 421.785156 C 538.46875 423.90625 538.945312 425.582031 539.902344 426.839844 C 540.855469 428.082031 542.144531 428.703125 543.753906 428.703125 C 545.203125 428.703125 546.503906 428.3125 547.632812 427.53125 C 548.765625 426.753906 549.851562 425.65625 550.878906 424.238281 L 552.167969 425.179688 C 551.144531 426.808594 549.734375 428.210938 547.953125 429.394531 C 546.171875 430.578125 544.320312 431.171875 542.375 431.171875 Z M 542.359375 431.1875 " fill-opacity="1" fill-rule="nonzero"/><path fill="#464647" d="M 573.929688 412.613281 C 573.929688 414.199219 573.4375 415.558594 572.4375 416.699219 C 571.4375 417.839844 569.992188 418.738281 568.089844 419.414062 C 566.703125 419.921875 565.296875 420.339844 563.859375 420.644531 C 562.441406 420.960938 560.863281 421.21875 559.136719 421.421875 C 559.136719 423.777344 559.574219 425.582031 560.457031 426.839844 C 561.339844 428.097656 562.617188 428.703125 564.308594 428.703125 C 565.804688 428.703125 567.132812 428.328125 568.277344 427.574219 C 569.425781 426.824219 570.554688 425.710938 571.65625 424.238281 L 572.929688 425.179688 C 571.726562 427 570.234375 428.457031 568.4375 429.539062 C 566.640625 430.625 564.773438 431.171875 562.847656 431.171875 C 560.195312 431.171875 558.167969 430.4375 556.773438 428.949219 C 555.386719 427.460938 554.679688 425.367188 554.679688 422.652344 C 554.679688 420.773438 554.96875 418.96875 555.5625 417.261719 C 556.15625 415.558594 557.023438 413.984375 558.152344 412.570312 C 559.269531 411.183594 560.613281 410.054688 562.222656 409.203125 C 563.832031 408.351562 565.613281 407.933594 567.554688 407.933594 C 569.714844 407.933594 571.304688 408.367188 572.351562 409.246094 C 573.394531 410.128906 573.914062 411.238281 573.914062 412.597656 Z M 569.800781 412.046875 C 569.800781 411.472656 569.714844 411.007812 569.554688 410.675781 C 569.394531 410.34375 569.175781 410.097656 568.929688 409.925781 C 568.65625 409.753906 568.378906 409.636719 568.078125 409.59375 C 567.773438 409.550781 567.46875 409.519531 567.148438 409.519531 C 565.351562 409.519531 563.6875 410.503906 562.179688 412.46875 C 560.660156 414.433594 559.707031 416.886719 559.296875 419.820312 C 560.339844 419.675781 561.527344 419.457031 562.847656 419.183594 C 564.164062 418.910156 565.253906 418.546875 566.121094 418.101562 C 567.367188 417.464844 568.292969 416.640625 568.902344 415.628906 C 569.511719 414.621094 569.8125 413.433594 569.8125 412.046875 Z M 569.800781 412.046875 " fill-opacity="1" fill-rule="nonzero"/><path fill="#464647" d="M 582.898438 431.230469 C 580.679688 431.230469 578.84375 430.839844 577.363281 430.058594 C 575.886719 429.28125 575.144531 428.253906 575.144531 426.984375 C 575.144531 426.390625 575.363281 425.828125 575.800781 425.308594 C 576.230469 424.789062 576.769531 424.527344 577.394531 424.527344 C 578.011719 424.527344 578.480469 424.671875 578.84375 424.945312 C 579.203125 425.222656 579.492188 425.554688 579.710938 425.914062 C 579.941406 426.304688 580.128906 426.765625 580.304688 427.300781 C 580.476562 427.835938 580.625 428.28125 580.738281 428.617188 C 580.96875 428.875 581.273438 429.105469 581.664062 429.324219 C 582.058594 429.539062 582.636719 429.640625 583.390625 429.640625 C 585.011719 429.640625 586.230469 429.234375 587.070312 428.425781 C 587.894531 427.617188 588.316406 426.519531 588.316406 425.148438 C 588.316406 424.136719 587.925781 423.316406 587.144531 422.707031 C 586.359375 422.101562 585.199219 421.539062 583.664062 421.03125 C 583.113281 420.859375 582.460938 420.585938 581.710938 420.210938 C 580.953125 419.832031 580.359375 419.445312 579.914062 419.023438 C 579.378906 418.546875 578.941406 417.96875 578.609375 417.320312 C 578.277344 416.671875 578.117188 415.890625 578.117188 414.980469 C 578.117188 413.058594 578.96875 411.414062 580.695312 410.011719 C 582.421875 408.609375 584.519531 407.917969 587.027344 407.917969 C 587.605469 407.917969 588.242188 407.945312 588.910156 408.003906 C 589.574219 408.0625 590.332031 408.234375 591.140625 408.496094 C 591.851562 408.742188 592.445312 409.085938 592.9375 409.5625 C 593.429688 410.039062 593.675781 410.648438 593.675781 411.382812 C 593.675781 411.992188 593.472656 412.554688 593.050781 413.058594 C 592.632812 413.566406 592.097656 413.8125 591.429688 413.8125 C 590.878906 413.8125 590.414062 413.695312 590.054688 413.449219 C 589.691406 413.203125 589.402344 412.886719 589.15625 412.480469 C 588.910156 412.078125 588.71875 411.644531 588.578125 411.183594 C 588.429688 410.71875 588.257812 410.257812 588.082031 409.808594 C 587.792969 409.695312 587.546875 409.609375 587.316406 409.5625 C 587.085938 409.519531 586.796875 409.492188 586.417969 409.492188 C 584.953125 409.492188 583.839844 409.882812 583.085938 410.675781 C 582.332031 411.457031 581.957031 412.394531 581.957031 413.476562 C 581.957031 414.5625 582.304688 415.3125 582.984375 415.847656 C 583.664062 416.382812 584.792969 416.929688 586.359375 417.492188 C 588.402344 418.230469 589.878906 419.066406 590.792969 420.007812 C 591.71875 420.945312 592.167969 422.117188 592.167969 423.503906 C 592.167969 425.769531 591.296875 427.632812 589.546875 429.0625 C 587.792969 430.492188 585.59375 431.199219 582.925781 431.199219 Z M 582.898438 431.230469 " fill-opacity="1" fill-rule="nonzero"/></svg>