<svg xmlns="http://www.w3.org/2000/svg" xmlns:xlink="http://www.w3.org/1999/xlink" width="1024" zoomAndPan="magnify" viewBox="0 0 768 767.999994" height="1024" preserveAspectRatio="xMidYMid meet" version="1.0"><path fill="#ce102c" d="M 243.054688 360.1875 L 221.710938 360.1875 L 221.710938 348.296875 L 281.023438 348.296875 L 281.023438 360.1875 L 259.769531 360.1875 L 259.769531 417.515625 L 243.054688 417.515625 Z M 243.054688 360.1875 " fill-opacity="1" fill-rule="nonzero"/><path fill="#ce102c" d="M 292.761719 348.296875 L 323.972656 348.296875 C 333.222656 348.296875 339.890625 349.449219 344.070312 351.667969 C 348.160156 353.886719 350.296875 357.703125 350.296875 362.9375 L 350.296875 375.09375 C 350.296875 379.175781 348.871094 382.371094 345.9375 384.679688 C 343.09375 386.988281 339.179688 388.496094 334.464844 389.117188 L 354.5625 417.601562 L 335.355469 417.601562 L 317.125 390.359375 L 309.390625 390.359375 L 309.390625 417.515625 L 292.761719 417.515625 Z M 323.707031 379.355469 C 327.621094 379.355469 330.289062 378.824219 331.710938 377.847656 C 333.132812 376.78125 333.84375 374.828125 333.84375 371.8125 L 333.84375 366.929688 C 333.84375 364.359375 333.042969 362.582031 331.53125 361.695312 C 330.019531 360.71875 327.351562 360.277344 323.707031 360.277344 L 309.390625 360.277344 L 309.390625 379.445312 L 323.707031 379.445312 Z M 323.707031 379.355469 " fill-opacity="1" fill-rule="nonzero"/><path fill="#ce102c" d="M 386.753906 348.296875 L 407.027344 348.296875 L 432.015625 417.515625 L 415.121094 417.515625 L 408.894531 399.320312 L 383.550781 399.320312 L 377.503906 417.515625 L 361.054688 417.515625 Z M 405.339844 388.230469 L 396.535156 362.226562 L 396.089844 362.226562 L 387.289062 388.230469 Z M 405.339844 388.230469 " fill-opacity="1" fill-rule="nonzero"/><path fill="#ce102c" d="M 441.886719 348.296875 L 458.515625 348.296875 L 458.515625 417.515625 L 441.886719 417.515625 Z M 441.886719 348.296875 " fill-opacity="1" fill-rule="nonzero"/><path fill="#ce102c" d="M 475.679688 348.296875 L 492.574219 348.296875 L 526.097656 395.507812 L 526.097656 348.296875 L 540.949219 348.296875 L 540.949219 417.515625 L 524.050781 417.515625 L 490.527344 369.503906 L 490.527344 417.515625 L 475.679688 417.515625 Z M 475.679688 348.296875 " fill-opacity="1" fill-rule="nonzero"/><path fill="#ce102c" d="M 558.019531 348.296875 L 574.738281 348.296875 L 574.738281 417.515625 L 558.109375 417.515625 L 558.109375 348.296875 Z M 558.019531 348.296875 " fill-opacity="1" fill-rule="nonzero"/><path fill="#ce102c" d="M 591.808594 348.296875 L 608.707031 348.296875 L 642.230469 395.507812 L 642.230469 348.296875 L 657.082031 348.296875 L 657.082031 417.515625 L 640.1875 417.515625 L 606.664062 369.503906 L 606.664062 417.515625 L 591.808594 417.515625 Z M 591.808594 348.296875 " fill-opacity="1" fill-rule="nonzero"/><path fill="#ce102c" d="M 695.585938 418.046875 C 692.5625 417.691406 689.539062 417.070312 686.515625 416.273438 C 683.316406 415.382812 680.648438 414.230469 678.601562 412.808594 C 676.554688 411.390625 674.867188 409.4375 673.621094 407.132812 C 672.375 404.644531 671.664062 401.808594 671.664062 398.613281 L 671.664062 369.769531 C 671.664062 366.308594 672.375 363.117188 673.800781 360.363281 C 675.222656 357.523438 677.179688 355.304688 679.578125 353.710938 C 681.890625 352.199219 684.5625 350.957031 687.757812 349.894531 C 690.960938 348.828125 694.074219 348.117188 697.097656 347.761719 C 699.675781 347.496094 702.789062 347.320312 706.433594 347.320312 C 716.304688 347.320312 725.644531 348.03125 734.625 349.539062 L 734.625 362.140625 C 726.351562 360.1875 716.929688 359.121094 706.433594 359.121094 C 694.429688 359.121094 688.382812 362.582031 688.382812 369.59375 L 688.382812 397.457031 C 688.382812 400.832031 689.984375 403.316406 693.273438 404.734375 C 696.472656 406.15625 701.457031 406.863281 707.945312 406.863281 C 711.414062 406.863281 715.148438 406.332031 719.148438 405.269531 L 719.148438 389.027344 L 707.859375 389.027344 L 707.859375 378.203125 L 735.066406 378.203125 L 735.066406 414.140625 C 731.511719 415.382812 726.976562 416.449219 721.464844 417.335938 C 715.949219 418.222656 710.882812 418.578125 706.257812 418.578125 C 702.167969 418.578125 698.609375 418.402344 695.585938 418.046875 Z M 695.585938 418.046875 " fill-opacity="1" fill-rule="nonzero"/><path fill="#ce102c" d="M 186.765625 334.542969 C 186.765625 328.152344 181.605469 323.003906 175.203125 323.003906 L 49.910156 323.003906 C 43.507812 323.003906 38.351562 328.152344 38.351562 334.542969 L 38.351562 431.359375 C 38.351562 437.746094 43.507812 442.894531 49.910156 442.894531 L 175.203125 442.894531 C 181.605469 442.894531 186.765625 437.746094 186.765625 431.359375 Z M 186.765625 334.542969 " fill-opacity="1" fill-rule="evenodd"/><path fill="#888a8d" d="M 175.203125 323.003906 C 181.605469 323.003906 186.765625 328.152344 186.765625 334.542969 L 186.765625 431.359375 C 186.765625 437.746094 181.605469 442.894531 175.203125 442.894531 L 49.910156 442.894531 C 43.507812 442.894531 38.351562 437.746094 38.351562 431.359375 L 38.351562 334.542969 C 38.351562 328.152344 43.507812 323.003906 49.910156 323.003906 Z M 175.203125 318.125 L 49.910156 318.125 C 40.839844 318.125 33.460938 325.488281 33.460938 334.542969 L 33.460938 431.359375 C 33.460938 440.410156 40.839844 447.773438 49.910156 447.773438 L 175.203125 447.773438 C 184.273438 447.773438 191.65625 440.410156 191.65625 431.359375 L 191.65625 334.542969 C 191.566406 325.488281 184.273438 318.125 175.203125 318.125 Z M 175.203125 318.125 " fill-opacity="1" fill-rule="nonzero"/><path fill="#ffffff" d="M 63.78125 342.617188 C 80.855469 342.707031 96.238281 341.019531 106.820312 347.144531 C 113.402344 350.957031 118.472656 356.015625 121.851562 362.582031 C 134.921875 387.875 117.757812 417.425781 94.105469 419.554688 C 83.96875 420.441406 75.34375 419.820312 63.515625 419.734375 C 63.515625 394.265625 63.515625 368.707031 63.515625 343.238281 C 63.515625 342.972656 63.515625 342.707031 63.78125 342.617188 Z M 82.101562 360.453125 C 82.101562 374.386719 82.101562 388.40625 82.101562 402.339844 C 91.171875 402.960938 97.308594 401.894531 101.929688 396.75 C 111.625 386.101562 108.246094 363.382812 93.574219 360.1875 C 90.015625 359.390625 86.8125 359.921875 82.367188 359.742188 C 82.011719 359.832031 82.101562 360.1875 82.101562 360.453125 Z M 82.101562 360.453125 " fill-opacity="1" fill-rule="evenodd"/><path fill="#ffffff" d="M 156.976562 347.144531 C 156.976562 364.179688 156.976562 381.21875 156.976562 398.257812 C 152.707031 398.257812 148.527344 398.257812 144.257812 398.257812 C 144.167969 390.625 144.347656 380.152344 144.257812 371.191406 C 144.257812 368.261719 144.527344 364.535156 143.636719 363.027344 C 142.214844 360.542969 138.300781 361.695312 135.457031 361.339844 C 135.457031 359.300781 135.457031 357.347656 135.457031 355.308594 C 141.679688 354.0625 146.125 351.046875 149.683594 347.144531 C 152.085938 347.144531 154.574219 347.144531 156.976562 347.144531 Z M 156.976562 347.144531 " fill-opacity="1" fill-rule="evenodd"/><path fill="#ffffff" d="M 169.246094 408.375 L 134.386719 408.375 L 134.386719 419.464844 L 169.246094 419.464844 Z M 169.246094 408.375 " fill-opacity="1" fill-rule="nonzero"/></svg>