<svg xmlns="http://www.w3.org/2000/svg" xmlns:xlink="http://www.w3.org/1999/xlink" width="1024" zoomAndPan="magnify" viewBox="0 0 768 767.999994" height="1024" preserveAspectRatio="xMidYMid meet" version="1.0"><defs><clipPath id="abedc576dd"><path d="M 258 335.835938 L 311 335.835938 L 311 407 L 258 407 Z M 258 335.835938 " clip-rule="nonzero"/></clipPath><clipPath id="1584cf7f6f"><path d="M 426 335.835938 L 456 335.835938 L 456 407 L 426 407 Z M 426 335.835938 " clip-rule="nonzero"/></clipPath><clipPath id="bc02148beb"><path d="M 659 361 L 712 361 L 712 431.835938 L 659 431.835938 Z M 659 361 " clip-rule="nonzero"/></clipPath><clipPath id="af1491ecb4"><path d="M 40 335.835938 L 93 335.835938 L 93 407 L 40 407 Z M 40 335.835938 " clip-rule="nonzero"/></clipPath></defs><g clip-path="url(#abedc576dd)"><path fill="#00b1e1" d="M 258.324219 396.269531 L 258.324219 336.457031 C 258.3125 336.300781 258.359375 336.160156 258.460938 336.042969 C 258.558594 335.921875 258.6875 335.851562 258.84375 335.835938 L 271.417969 335.835938 C 271.585938 335.847656 271.730469 335.910156 271.847656 336.027344 C 271.964844 336.148438 272.03125 336.289062 272.042969 336.457031 L 272.042969 389.757812 C 272.050781 390.070312 272.085938 390.375 272.152344 390.679688 C 272.21875 390.980469 272.3125 391.273438 272.4375 391.558594 C 272.558594 391.84375 272.707031 392.117188 272.882812 392.371094 C 273.058594 392.628906 273.253906 392.867188 273.472656 393.085938 C 273.695312 393.304688 273.933594 393.5 274.191406 393.675781 C 274.449219 393.847656 274.71875 393.996094 275.003906 394.121094 C 275.292969 394.242188 275.585938 394.335938 275.890625 394.402344 C 276.195312 394.46875 276.503906 394.507812 276.8125 394.515625 L 291.667969 394.515625 C 291.984375 394.515625 292.296875 394.488281 292.609375 394.425781 C 292.917969 394.367188 293.21875 394.277344 293.511719 394.160156 C 293.804688 394.042969 294.085938 393.898438 294.351562 393.726562 C 294.613281 393.550781 294.859375 393.355469 295.085938 393.136719 C 295.3125 392.914062 295.515625 392.675781 295.691406 392.414062 C 295.871094 392.15625 296.023438 391.878906 296.148438 391.589844 C 296.273438 391.300781 296.367188 391 296.433594 390.695312 C 296.5 390.386719 296.539062 390.074219 296.542969 389.757812 L 296.542969 378.160156 C 296.546875 377.835938 296.523438 377.515625 296.464844 377.199219 C 296.40625 376.878906 296.316406 376.570312 296.195312 376.269531 C 296.078125 375.96875 295.929688 375.683594 295.75 375.414062 C 295.574219 375.144531 295.375 374.894531 295.144531 374.660156 C 294.917969 374.429688 294.671875 374.226562 294.402344 374.042969 C 294.136719 373.863281 293.851562 373.707031 293.554688 373.582031 C 293.253906 373.457031 292.949219 373.359375 292.628906 373.296875 C 292.3125 373.230469 291.992188 373.199219 291.667969 373.199219 L 278.679688 373.199219 C 278.367188 373.199219 278.160156 373.09375 278.160156 372.679688 L 278.160156 361.722656 C 278.160156 361.410156 278.367188 360.984375 278.679688 360.984375 L 299.550781 360.984375 C 300.257812 360.980469 300.957031 361.046875 301.652344 361.183594 C 302.34375 361.316406 303.019531 361.519531 303.671875 361.789062 C 304.324219 362.058594 304.945312 362.390625 305.53125 362.785156 C 306.117188 363.175781 306.660156 363.621094 307.160156 364.125 C 307.65625 364.625 308.097656 365.167969 308.488281 365.757812 C 308.875 366.347656 309.203125 366.96875 309.464844 367.621094 C 309.730469 368.273438 309.925781 368.949219 310.058594 369.640625 C 310.1875 370.332031 310.246094 371.03125 310.234375 371.734375 L 310.234375 396.261719 C 310.230469 396.953125 310.15625 397.636719 310.015625 398.316406 C 309.875 398.996094 309.667969 399.652344 309.394531 400.292969 C 309.125 400.929688 308.792969 401.535156 308.402344 402.105469 C 308.007812 402.679688 307.566406 403.207031 307.070312 403.691406 C 306.574219 404.179688 306.035156 404.609375 305.453125 404.988281 C 304.871094 405.367188 304.253906 405.6875 303.609375 405.945312 C 302.964844 406.203125 302.300781 406.394531 301.617188 406.523438 C 300.933594 406.652344 300.246094 406.710938 299.550781 406.703125 L 268.824219 406.703125 C 268.136719 406.699219 267.457031 406.628906 266.78125 406.492188 C 266.109375 406.355469 265.457031 406.15625 264.820312 405.890625 C 264.1875 405.628906 263.585938 405.304688 263.015625 404.925781 C 262.441406 404.546875 261.914062 404.113281 261.429688 403.628906 C 260.941406 403.144531 260.507812 402.621094 260.125 402.050781 C 259.742188 401.484375 259.414062 400.886719 259.148438 400.253906 C 258.882812 399.625 258.679688 398.972656 258.542969 398.300781 C 258.402344 397.632812 258.332031 396.953125 258.324219 396.269531 Z M 258.324219 396.269531 " fill-opacity="1" fill-rule="nonzero"/></g><path fill="#00b1e1" d="M 314.53125 406.109375 L 314.53125 371.75 C 314.53125 371.050781 314.59375 370.363281 314.730469 369.675781 C 314.863281 368.992188 315.0625 368.328125 315.328125 367.683594 C 315.59375 367.039062 315.917969 366.425781 316.304688 365.84375 C 316.691406 365.265625 317.128906 364.726562 317.621094 364.230469 C 318.113281 363.734375 318.648438 363.292969 319.226562 362.902344 C 319.808594 362.511719 320.417969 362.183594 321.0625 361.914062 C 321.707031 361.644531 322.371094 361.4375 323.058594 361.296875 C 323.742188 361.15625 324.433594 361.085938 325.132812 361.082031 L 365.84375 361.082031 C 366.011719 361.089844 366.152344 361.15625 366.273438 361.273438 C 366.390625 361.390625 366.457031 361.535156 366.464844 361.703125 L 366.464844 396.167969 C 366.464844 396.863281 366.394531 397.554688 366.257812 398.238281 C 366.121094 398.921875 365.917969 399.585938 365.648438 400.230469 C 365.378906 400.875 365.046875 401.484375 364.65625 402.066406 C 364.265625 402.644531 363.820312 403.175781 363.320312 403.667969 C 362.824219 404.15625 362.28125 404.59375 361.699219 404.976562 C 361.113281 405.363281 360.496094 405.683594 359.847656 405.945312 C 359.195312 406.207031 358.527344 406.402344 357.839844 406.53125 C 357.152344 406.660156 356.457031 406.71875 355.757812 406.710938 L 315.175781 406.710938 C 315.003906 406.722656 314.851562 406.671875 314.722656 406.550781 C 314.597656 406.433594 314.53125 406.285156 314.53125 406.109375 Z M 347.769531 394.613281 C 348.089844 394.613281 348.40625 394.582031 348.71875 394.519531 C 349.035156 394.460938 349.339844 394.367188 349.636719 394.246094 C 349.929688 394.125 350.210938 393.972656 350.480469 393.796875 C 350.746094 393.621094 350.992188 393.417969 351.21875 393.191406 C 351.445312 392.964844 351.648438 392.722656 351.824219 392.457031 C 352.003906 392.191406 352.152344 391.910156 352.277344 391.617188 C 352.398438 391.320312 352.492188 391.015625 352.554688 390.703125 C 352.617188 390.390625 352.648438 390.074219 352.648438 389.757812 L 352.648438 373.917969 C 352.660156 373.761719 352.613281 373.625 352.515625 373.503906 C 352.414062 373.382812 352.285156 373.316406 352.128906 373.296875 L 333.121094 373.296875 C 332.800781 373.296875 332.484375 373.328125 332.171875 373.390625 C 331.855469 373.453125 331.550781 373.546875 331.257812 373.667969 C 330.960938 373.789062 330.679688 373.941406 330.414062 374.117188 C 330.148438 374.292969 329.902344 374.496094 329.675781 374.722656 C 329.449219 374.945312 329.246094 375.191406 329.066406 375.457031 C 328.890625 375.722656 328.738281 376.003906 328.617188 376.296875 C 328.496094 376.59375 328.402344 376.894531 328.339844 377.207031 C 328.277344 377.523438 328.246094 377.835938 328.246094 378.15625 L 328.246094 393.992188 C 328.257812 394.160156 328.320312 394.304688 328.441406 394.421875 C 328.558594 394.539062 328.703125 394.605469 328.871094 394.613281 Z M 347.769531 394.613281 " fill-opacity="1" fill-rule="nonzero"/><path fill="#00b1e1" d="M 370.65625 406.109375 L 370.65625 371.75 C 370.652344 371.050781 370.71875 370.363281 370.855469 369.675781 C 370.988281 368.992188 371.1875 368.328125 371.453125 367.683594 C 371.71875 367.039062 372.042969 366.425781 372.429688 365.847656 C 372.8125 365.265625 373.253906 364.726562 373.746094 364.230469 C 374.238281 363.738281 374.773438 363.292969 375.351562 362.902344 C 375.929688 362.511719 376.542969 362.183594 377.1875 361.914062 C 377.832031 361.644531 378.496094 361.4375 379.183594 361.296875 C 379.867188 361.15625 380.558594 361.085938 381.257812 361.082031 L 421.964844 361.082031 C 422.132812 361.089844 422.273438 361.15625 422.394531 361.273438 C 422.511719 361.390625 422.578125 361.535156 422.585938 361.703125 L 422.585938 396.167969 C 422.585938 396.863281 422.519531 397.554688 422.382812 398.238281 C 422.242188 398.917969 422.039062 399.582031 421.769531 400.226562 C 421.503906 400.867188 421.171875 401.480469 420.78125 402.058594 C 420.390625 402.636719 419.949219 403.167969 419.453125 403.660156 C 418.953125 404.148438 418.414062 404.585938 417.832031 404.96875 C 417.246094 405.355469 416.632812 405.675781 415.984375 405.9375 C 415.335938 406.199219 414.667969 406.398438 413.980469 406.527344 C 413.292969 406.65625 412.601562 406.71875 411.902344 406.710938 L 371.277344 406.710938 C 371.105469 406.71875 370.960938 406.660156 370.835938 406.542969 C 370.714844 406.425781 370.652344 406.28125 370.652344 406.109375 Z M 403.894531 394.613281 C 404.214844 394.613281 404.53125 394.582031 404.84375 394.519531 C 405.160156 394.457031 405.464844 394.367188 405.757812 394.246094 C 406.054688 394.121094 406.335938 393.972656 406.601562 393.796875 C 406.867188 393.617188 407.113281 393.417969 407.339844 393.191406 C 407.566406 392.964844 407.769531 392.71875 407.945312 392.457031 C 408.125 392.191406 408.273438 391.910156 408.398438 391.613281 C 408.519531 391.320312 408.613281 391.015625 408.675781 390.703125 C 408.738281 390.390625 408.769531 390.074219 408.769531 389.757812 L 408.769531 373.917969 C 408.78125 373.761719 408.738281 373.625 408.636719 373.503906 C 408.535156 373.382812 408.40625 373.316406 408.253906 373.296875 L 389.246094 373.296875 C 388.925781 373.296875 388.609375 373.328125 388.292969 373.390625 C 387.980469 373.453125 387.675781 373.546875 387.378906 373.667969 C 387.085938 373.789062 386.804688 373.941406 386.539062 374.117188 C 386.269531 374.292969 386.023438 374.496094 385.800781 374.722656 C 385.574219 374.945312 385.371094 375.191406 385.191406 375.457031 C 385.015625 375.722656 384.863281 376.003906 384.742188 376.296875 C 384.621094 376.59375 384.527344 376.894531 384.464844 377.207031 C 384.402344 377.523438 384.371094 377.835938 384.371094 378.15625 L 384.371094 393.992188 C 384.382812 394.160156 384.445312 394.304688 384.566406 394.421875 C 384.683594 394.539062 384.828125 394.605469 384.992188 394.613281 Z M 403.894531 394.613281 " fill-opacity="1" fill-rule="nonzero"/><g clip-path="url(#1584cf7f6f)"><path fill="#00b1e1" d="M 455.742188 395.238281 L 455.742188 406.195312 C 455.742188 406.503906 455.640625 406.710938 455.222656 406.710938 L 437.359375 406.710938 C 436.660156 406.710938 435.964844 406.644531 435.277344 406.507812 C 434.589844 406.371094 433.925781 406.167969 433.277344 405.898438 C 432.632812 405.628906 432.015625 405.300781 431.4375 404.910156 C 430.855469 404.519531 430.316406 404.078125 429.824219 403.582031 C 429.332031 403.085938 428.890625 402.546875 428.507812 401.964844 C 428.121094 401.378906 427.796875 400.765625 427.53125 400.117188 C 427.269531 399.472656 427.074219 398.804688 426.941406 398.121094 C 426.8125 397.433594 426.75 396.742188 426.753906 396.042969 L 426.753906 336.453125 C 426.765625 336.285156 426.828125 336.140625 426.949219 336.023438 C 427.066406 335.90625 427.210938 335.839844 427.378906 335.832031 L 439.949219 335.832031 C 440.109375 335.847656 440.234375 335.914062 440.335938 336.035156 C 440.4375 336.15625 440.484375 336.296875 440.46875 336.453125 L 440.46875 354.472656 C 440.46875 354.886719 440.78125 354.992188 441.195312 354.992188 L 453.5625 354.992188 C 453.761719 355.003906 453.929688 355.078125 454.070312 355.21875 C 454.207031 355.359375 454.28125 355.53125 454.289062 355.726562 L 454.289062 366.664062 C 454.289062 366.972656 453.875 367.179688 453.5625 367.179688 L 441.195312 367.179688 C 441.011719 367.171875 440.851562 367.230469 440.710938 367.347656 C 440.570312 367.46875 440.492188 367.617188 440.46875 367.800781 L 440.46875 389.757812 C 440.472656 390.078125 440.507812 390.394531 440.570312 390.710938 C 440.636719 391.023438 440.734375 391.328125 440.863281 391.621094 C 440.988281 391.914062 441.144531 392.195312 441.328125 392.457031 C 441.511719 392.722656 441.71875 392.964844 441.949219 393.183594 C 442.183594 393.40625 442.433594 393.601562 442.707031 393.773438 C 442.976562 393.945312 443.265625 394.089844 443.566406 394.203125 C 443.863281 394.316406 444.171875 394.398438 444.492188 394.453125 C 444.808594 394.503906 445.128906 394.523438 445.449219 394.515625 L 455.203125 394.515625 C 455.640625 394.515625 455.742188 394.9375 455.742188 395.238281 Z M 455.742188 395.238281 " fill-opacity="1" fill-rule="nonzero"/></g><path fill="#00b1e1" d="M 474.757812 397.511719 L 474.757812 370.289062 C 474.753906 369.683594 474.808594 369.085938 474.925781 368.492188 C 475.042969 367.898438 475.214844 367.320312 475.445312 366.761719 C 475.679688 366.203125 475.960938 365.671875 476.296875 365.167969 C 476.636719 364.664062 477.019531 364.199219 477.449219 363.769531 C 477.875 363.34375 478.34375 362.960938 478.847656 362.625 C 479.355469 362.289062 479.886719 362.007812 480.449219 361.777344 C 481.011719 361.546875 481.589844 361.375 482.183594 361.257812 C 482.78125 361.140625 483.382812 361.085938 483.988281 361.089844 L 517.433594 361.089844 C 518.039062 361.089844 518.640625 361.148438 519.234375 361.269531 C 519.828125 361.386719 520.402344 361.5625 520.964844 361.792969 C 521.523438 362.027344 522.054688 362.308594 522.558594 362.644531 C 523.0625 362.980469 523.527344 363.363281 523.957031 363.789062 C 524.382812 364.214844 524.765625 364.679688 525.101562 365.183594 C 525.441406 365.683594 525.726562 366.214844 525.957031 366.773438 C 526.191406 367.328125 526.363281 367.902344 526.484375 368.496094 C 526.605469 369.085938 526.664062 369.6875 526.664062 370.289062 L 526.664062 381.890625 C 526.664062 382.199219 526.355469 382.40625 525.925781 382.40625 L 513.5625 382.40625 C 513.40625 382.417969 513.265625 382.375 513.144531 382.273438 C 513.023438 382.171875 512.957031 382.046875 512.941406 381.890625 L 512.941406 378.167969 C 512.941406 377.839844 512.910156 377.519531 512.84375 377.199219 C 512.78125 376.878906 512.6875 376.570312 512.5625 376.269531 C 512.4375 375.96875 512.285156 375.679688 512.101562 375.410156 C 511.921875 375.140625 511.714844 374.890625 511.484375 374.660156 C 511.253906 374.429688 511 374.222656 510.730469 374.042969 C 510.457031 373.859375 510.171875 373.707031 509.871094 373.582031 C 509.566406 373.457031 509.257812 373.363281 508.9375 373.300781 C 508.617188 373.238281 508.292969 373.207031 507.964844 373.207031 L 493.417969 373.207031 C 493.089844 373.207031 492.769531 373.238281 492.449219 373.300781 C 492.128906 373.363281 491.816406 373.457031 491.515625 373.582031 C 491.210938 373.707031 490.925781 373.859375 490.65625 374.042969 C 490.382812 374.222656 490.132812 374.429688 489.898438 374.660156 C 489.667969 374.890625 489.460938 375.140625 489.28125 375.410156 C 489.097656 375.683594 488.945312 375.96875 488.820312 376.269531 C 488.695312 376.570312 488.601562 376.878906 488.539062 377.199219 C 488.472656 377.519531 488.441406 377.839844 488.441406 378.167969 L 488.441406 389.742188 C 488.449219 390.066406 488.484375 390.382812 488.550781 390.699219 C 488.621094 391.011719 488.71875 391.316406 488.84375 391.613281 C 488.972656 391.910156 489.128906 392.1875 489.308594 392.453125 C 489.492188 392.71875 489.699219 392.964844 489.929688 393.191406 C 490.160156 393.414062 490.410156 393.617188 490.679688 393.792969 C 490.949219 393.96875 491.234375 394.117188 491.535156 394.238281 C 491.832031 394.359375 492.140625 394.449219 492.457031 394.511719 C 492.777344 394.574219 493.09375 394.601562 493.417969 394.601562 L 525.929688 394.601562 C 526.34375 394.601562 526.667969 394.808594 526.667969 395.222656 L 526.667969 406.226562 C 526.667969 406.535156 526.359375 406.742188 525.929688 406.742188 L 484 406.742188 C 483.390625 406.75 482.785156 406.699219 482.1875 406.585938 C 481.585938 406.476562 481.003906 406.304688 480.4375 406.074219 C 479.875 405.847656 479.339844 405.5625 478.828125 405.226562 C 478.320312 404.890625 477.851562 404.507812 477.417969 404.078125 C 476.988281 403.648438 476.605469 403.183594 476.265625 402.675781 C 475.929688 402.167969 475.648438 401.632812 475.417969 401.070312 C 475.1875 400.507812 475.015625 399.925781 474.902344 399.332031 C 474.789062 398.734375 474.738281 398.128906 474.746094 397.523438 Z M 474.757812 397.511719 " fill-opacity="1" fill-rule="nonzero"/><path fill="#00b1e1" d="M 530.871094 396.273438 L 530.871094 371.648438 C 530.871094 370.949219 530.941406 370.257812 531.078125 369.574219 C 531.214844 368.890625 531.417969 368.226562 531.6875 367.582031 C 531.957031 366.941406 532.289062 366.328125 532.679688 365.75 C 533.070312 365.171875 533.515625 364.636719 534.015625 364.148438 C 534.511719 363.65625 535.054688 363.21875 535.640625 362.835938 C 536.222656 362.453125 536.839844 362.128906 537.488281 361.871094 C 538.140625 361.609375 538.808594 361.414062 539.496094 361.285156 C 540.183594 361.15625 540.878906 361.09375 541.578125 361.101562 L 572.324219 361.101562 C 573.015625 361.101562 573.703125 361.167969 574.382812 361.304688 C 575.0625 361.4375 575.722656 361.640625 576.363281 361.90625 C 577 362.167969 577.609375 362.496094 578.183594 362.878906 C 578.761719 363.265625 579.292969 363.703125 579.78125 364.195312 C 580.269531 364.683594 580.703125 365.21875 581.085938 365.792969 C 581.46875 366.371094 581.789062 366.976562 582.050781 367.617188 C 582.3125 368.257812 582.507812 368.917969 582.636719 369.59375 C 582.769531 370.273438 582.828125 370.957031 582.824219 371.648438 L 582.824219 406.320312 C 582.824219 406.628906 582.71875 406.734375 582.515625 406.734375 L 569.835938 406.734375 C 569.628906 406.734375 569.003906 406.632812 569.003906 406.320312 L 569.003906 378.054688 C 569.011719 377.75 568.984375 377.445312 568.929688 377.140625 C 568.875 376.839844 568.792969 376.542969 568.679688 376.257812 C 568.570312 375.96875 568.433594 375.695312 568.269531 375.4375 C 568.105469 375.175781 567.917969 374.933594 567.707031 374.710938 C 567.496094 374.484375 567.265625 374.28125 567.015625 374.101562 C 566.765625 373.921875 566.5 373.769531 566.21875 373.636719 C 565.941406 373.507812 565.652344 373.40625 565.351562 373.332031 C 565.050781 373.257812 564.75 373.214844 564.441406 373.199219 L 549.582031 373.199219 C 549.261719 373.199219 548.945312 373.230469 548.632812 373.289062 C 548.316406 373.351562 548.011719 373.445312 547.71875 373.566406 C 547.421875 373.6875 547.140625 373.839844 546.875 374.015625 C 546.609375 374.191406 546.359375 374.394531 546.132812 374.621094 C 545.90625 374.84375 545.707031 375.089844 545.527344 375.355469 C 545.351562 375.621094 545.199219 375.902344 545.078125 376.195312 C 544.957031 376.492188 544.863281 376.796875 544.800781 377.109375 C 544.738281 377.421875 544.707031 377.738281 544.707031 378.054688 L 544.707031 389.757812 C 544.703125 390.078125 544.730469 390.390625 544.792969 390.703125 C 544.851562 391.015625 544.941406 391.316406 545.0625 391.613281 C 545.1875 391.90625 545.335938 392.183594 545.515625 392.445312 C 545.695312 392.710938 545.898438 392.953125 546.125 393.175781 C 546.351562 393.398438 546.601562 393.59375 546.871094 393.765625 C 547.136719 393.9375 547.417969 394.082031 547.71875 394.195312 C 548.015625 394.3125 548.320312 394.394531 548.632812 394.449219 C 548.949219 394.503906 549.265625 394.523438 549.582031 394.515625 L 562.570312 394.515625 C 562.882812 394.515625 562.984375 394.824219 562.984375 395.25 L 562.984375 406.332031 C 562.984375 406.640625 562.882812 406.746094 562.570312 406.746094 L 541.550781 406.746094 C 540.855469 406.75 540.167969 406.683594 539.484375 406.554688 C 538.800781 406.421875 538.140625 406.226562 537.496094 405.964844 C 536.851562 405.703125 536.238281 405.382812 535.660156 405.003906 C 535.078125 404.621094 534.539062 404.1875 534.042969 403.703125 C 533.550781 403.21875 533.105469 402.6875 532.714844 402.117188 C 532.324219 401.542969 531.992188 400.9375 531.71875 400.300781 C 531.445312 399.664062 531.238281 399.003906 531.097656 398.328125 C 530.953125 397.648438 530.878906 396.964844 530.871094 396.273438 Z M 530.871094 396.273438 " fill-opacity="1" fill-rule="nonzero"/><path fill="#00b1e1" d="M 586.972656 406.113281 L 586.972656 361.410156 C 586.972656 361.207031 587.078125 361.101562 587.183594 361.101562 L 645.015625 361.101562 C 645.714844 361.101562 646.410156 361.171875 647.09375 361.308594 C 647.78125 361.445312 648.449219 361.648438 649.09375 361.917969 C 649.742188 362.183594 650.355469 362.515625 650.9375 362.90625 C 651.519531 363.292969 652.054688 363.738281 652.546875 364.234375 C 653.042969 364.730469 653.480469 365.269531 653.867188 365.851562 C 654.253906 366.433594 654.578125 367.050781 654.839844 367.695312 C 655.105469 368.34375 655.300781 369.007812 655.433594 369.695312 C 655.5625 370.378906 655.625 371.074219 655.617188 371.769531 L 655.617188 406.105469 C 655.628906 406.1875 655.621094 406.273438 655.59375 406.355469 C 655.566406 406.4375 655.523438 406.507812 655.460938 406.570312 C 655.402344 406.628906 655.328125 406.675781 655.246094 406.703125 C 655.164062 406.730469 655.078125 406.738281 654.992188 406.722656 L 642.523438 406.722656 C 642.351562 406.730469 642.203125 406.671875 642.078125 406.550781 C 641.953125 406.425781 641.894531 406.277344 641.902344 406.105469 L 641.902344 378.148438 C 641.902344 377.828125 641.871094 377.511719 641.808594 377.195312 C 641.746094 376.882812 641.652344 376.578125 641.527344 376.28125 C 641.40625 375.988281 641.253906 375.707031 641.074219 375.441406 C 640.894531 375.175781 640.695312 374.929688 640.464844 374.703125 C 640.238281 374.480469 639.992188 374.277344 639.722656 374.101562 C 639.457031 373.921875 639.171875 373.773438 638.875 373.652344 C 638.578125 373.53125 638.273438 373.441406 637.960938 373.378906 C 637.644531 373.316406 637.328125 373.289062 637.003906 373.289062 L 628.390625 373.289062 C 628.265625 373.300781 628.195312 373.367188 628.183594 373.496094 L 628.183594 406.109375 C 628.191406 406.285156 628.132812 406.433594 628.007812 406.558594 C 627.886719 406.679688 627.738281 406.738281 627.5625 406.730469 L 614.988281 406.730469 C 614.816406 406.738281 614.667969 406.679688 614.542969 406.554688 C 614.421875 406.433594 614.363281 406.285156 614.367188 406.109375 L 614.367188 378.152344 C 614.367188 377.835938 614.335938 377.519531 614.273438 377.207031 C 614.210938 376.894531 614.117188 376.589844 613.996094 376.292969 C 613.875 376 613.722656 375.71875 613.546875 375.453125 C 613.367188 375.191406 613.164062 374.945312 612.9375 374.71875 C 612.710938 374.492188 612.464844 374.292969 612.199219 374.113281 C 611.933594 373.9375 611.652344 373.789062 611.355469 373.664062 C 611.0625 373.542969 610.757812 373.453125 610.441406 373.390625 C 610.128906 373.328125 609.8125 373.296875 609.492188 373.296875 L 600.878906 373.296875 C 600.75 373.304688 600.679688 373.375 600.671875 373.503906 L 600.671875 406.117188 C 600.683594 406.203125 600.675781 406.285156 600.648438 406.367188 C 600.621094 406.449219 600.578125 406.523438 600.515625 406.582031 C 600.457031 406.644531 600.382812 406.6875 600.300781 406.714844 C 600.21875 406.742188 600.136719 406.75 600.050781 406.738281 L 587.582031 406.738281 C 587.496094 406.75 587.414062 406.738281 587.332031 406.710938 C 587.253906 406.679688 587.183594 406.636719 587.121094 406.574219 C 587.0625 406.515625 587.019531 406.441406 586.996094 406.363281 C 586.96875 406.28125 586.960938 406.199219 586.972656 406.113281 Z M 586.972656 406.113281 " fill-opacity="1" fill-rule="nonzero"/><g clip-path="url(#bc02148beb)"><path fill="#00b1e1" d="M 659.820312 431.214844 L 659.820312 371.605469 C 659.824219 370.914062 659.898438 370.230469 660.035156 369.550781 C 660.175781 368.871094 660.378906 368.214844 660.644531 367.574219 C 660.914062 366.9375 661.242188 366.332031 661.628906 365.757812 C 662.015625 365.179688 662.453125 364.648438 662.945312 364.160156 C 663.4375 363.671875 663.972656 363.234375 664.550781 362.851562 C 665.125 362.464844 665.738281 362.140625 666.378906 361.875 C 667.019531 361.609375 667.679688 361.40625 668.359375 361.269531 C 669.042969 361.132812 669.730469 361.0625 670.425781 361.0625 L 701.152344 361.0625 C 701.847656 361.0625 702.535156 361.132812 703.214844 361.269531 C 703.894531 361.40625 704.554688 361.609375 705.199219 361.875 C 705.835938 362.140625 706.445312 362.464844 707.023438 362.851562 C 707.597656 363.234375 708.132812 363.671875 708.625 364.160156 C 709.113281 364.652344 709.554688 365.183594 709.941406 365.757812 C 710.324219 366.332031 710.652344 366.9375 710.917969 367.578125 C 711.1875 368.214844 711.386719 368.875 711.527344 369.550781 C 711.664062 370.230469 711.734375 370.914062 711.734375 371.605469 L 711.734375 396.128906 C 711.734375 396.820312 711.664062 397.507812 711.527344 398.183594 C 711.390625 398.863281 711.1875 399.519531 710.921875 400.160156 C 710.652344 400.796875 710.328125 401.402344 709.941406 401.976562 C 709.554688 402.554688 709.113281 403.085938 708.625 403.574219 C 708.132812 404.0625 707.597656 404.5 707.023438 404.886719 C 706.445312 405.269531 705.835938 405.59375 705.199219 405.859375 C 704.554688 406.128906 703.894531 406.328125 703.214844 406.464844 C 702.535156 406.601562 701.847656 406.671875 701.152344 406.675781 L 680.28125 406.675781 C 680.113281 406.664062 679.972656 406.601562 679.855469 406.484375 C 679.734375 406.363281 679.671875 406.222656 679.660156 406.054688 L 679.660156 395.097656 C 679.671875 394.929688 679.734375 394.789062 679.855469 394.667969 C 679.972656 394.550781 680.113281 394.488281 680.28125 394.476562 L 693.164062 394.476562 C 693.484375 394.476562 693.800781 394.445312 694.117188 394.382812 C 694.429688 394.320312 694.734375 394.230469 695.03125 394.105469 C 695.328125 393.984375 695.609375 393.835938 695.875 393.65625 C 696.140625 393.480469 696.386719 393.28125 696.613281 393.054688 C 696.839844 392.828125 697.039062 392.582031 697.21875 392.316406 C 697.394531 392.050781 697.546875 391.773438 697.667969 391.476562 C 697.792969 391.183594 697.882812 390.878906 697.945312 390.566406 C 698.007812 390.253906 698.039062 389.9375 698.039062 389.617188 L 698.039062 378.019531 C 698.039062 377.699219 698.007812 377.382812 697.945312 377.070312 C 697.882812 376.757812 697.792969 376.453125 697.667969 376.160156 C 697.546875 375.867188 697.394531 375.585938 697.21875 375.320312 C 697.042969 375.054688 696.839844 374.808594 696.613281 374.585938 C 696.386719 374.359375 696.140625 374.15625 695.875 373.980469 C 695.609375 373.804688 695.328125 373.652344 695.03125 373.53125 C 694.734375 373.410156 694.429688 373.316406 694.117188 373.253906 C 693.804688 373.191406 693.484375 373.160156 693.164062 373.160156 L 678.414062 373.160156 C 678.09375 373.160156 677.777344 373.191406 677.464844 373.253906 C 677.148438 373.316406 676.84375 373.410156 676.550781 373.53125 C 676.253906 373.652344 675.972656 373.800781 675.707031 373.980469 C 675.441406 374.15625 675.195312 374.359375 674.96875 374.582031 C 674.742188 374.808594 674.539062 375.054688 674.363281 375.320312 C 674.183594 375.585938 674.035156 375.867188 673.910156 376.160156 C 673.789062 376.453125 673.695312 376.757812 673.632812 377.070312 C 673.570312 377.382812 673.539062 377.699219 673.539062 378.019531 L 673.539062 431.21875 C 673.550781 431.304688 673.542969 431.386719 673.511719 431.464844 C 673.484375 431.546875 673.441406 431.617188 673.378906 431.679688 C 673.320312 431.738281 673.25 431.785156 673.167969 431.8125 C 673.085938 431.839844 673.003906 431.847656 672.917969 431.839844 L 660.46875 431.839844 C 660.289062 431.851562 660.136719 431.796875 660.007812 431.671875 C 659.878906 431.546875 659.820312 431.398438 659.824219 431.21875 Z M 659.820312 431.214844 " fill-opacity="1" fill-rule="nonzero"/></g><g clip-path="url(#af1491ecb4)"><path fill="#00b1e1" d="M 40.90625 396.269531 L 40.90625 336.457031 C 40.894531 336.300781 40.9375 336.164062 41.035156 336.042969 C 41.136719 335.921875 41.261719 335.855469 41.417969 335.835938 L 53.992188 335.835938 C 54.160156 335.847656 54.300781 335.910156 54.421875 336.027344 C 54.539062 336.148438 54.605469 336.289062 54.613281 336.457031 L 54.613281 389.757812 C 54.621094 390.070312 54.660156 390.375 54.726562 390.675781 C 54.792969 390.980469 54.886719 391.273438 55.007812 391.558594 C 55.132812 391.84375 55.28125 392.113281 55.453125 392.371094 C 55.628906 392.628906 55.824219 392.867188 56.046875 393.085938 C 56.265625 393.304688 56.503906 393.5 56.761719 393.675781 C 57.019531 393.847656 57.292969 393.996094 57.578125 394.117188 C 57.863281 394.242188 58.15625 394.335938 58.460938 394.402344 C 58.765625 394.46875 59.074219 394.503906 59.382812 394.515625 L 74.238281 394.515625 C 74.554688 394.515625 74.871094 394.488281 75.179688 394.425781 C 75.492188 394.367188 75.792969 394.28125 76.085938 394.160156 C 76.378906 394.042969 76.660156 393.898438 76.921875 393.726562 C 77.1875 393.550781 77.433594 393.355469 77.660156 393.136719 C 77.886719 392.914062 78.085938 392.675781 78.265625 392.414062 C 78.445312 392.15625 78.597656 391.878906 78.722656 391.589844 C 78.847656 391.300781 78.941406 391 79.007812 390.695312 C 79.074219 390.386719 79.109375 390.074219 79.117188 389.757812 L 79.117188 378.160156 C 79.121094 377.835938 79.09375 377.515625 79.035156 377.199219 C 78.976562 376.878906 78.890625 376.570312 78.769531 376.269531 C 78.648438 375.96875 78.5 375.683594 78.324219 375.414062 C 78.148438 375.144531 77.945312 374.894531 77.71875 374.660156 C 77.492188 374.429688 77.246094 374.226562 76.976562 374.042969 C 76.710938 373.863281 76.425781 373.707031 76.128906 373.582031 C 75.828125 373.457031 75.519531 373.359375 75.203125 373.296875 C 74.886719 373.230469 74.5625 373.199219 74.238281 373.199219 L 61.261719 373.199219 C 60.949219 373.199219 60.742188 373.09375 60.742188 372.679688 L 60.742188 361.722656 C 60.742188 361.410156 60.949219 360.984375 61.261719 360.984375 L 82.132812 360.984375 C 82.839844 360.980469 83.539062 361.046875 84.234375 361.183594 C 84.925781 361.316406 85.601562 361.519531 86.253906 361.789062 C 86.90625 362.058594 87.527344 362.390625 88.113281 362.785156 C 88.703125 363.175781 89.246094 363.621094 89.742188 364.125 C 90.238281 364.625 90.683594 365.167969 91.070312 365.757812 C 91.460938 366.347656 91.785156 366.96875 92.050781 367.621094 C 92.3125 368.273438 92.511719 368.949219 92.640625 369.640625 C 92.769531 370.332031 92.828125 371.03125 92.816406 371.734375 L 92.816406 396.261719 C 92.8125 396.953125 92.738281 397.640625 92.597656 398.316406 C 92.457031 398.996094 92.253906 399.65625 91.980469 400.292969 C 91.710938 400.929688 91.378906 401.535156 90.988281 402.109375 C 90.59375 402.683594 90.152344 403.210938 89.65625 403.699219 C 89.15625 404.183594 88.617188 404.617188 88.035156 404.996094 C 87.453125 405.375 86.839844 405.691406 86.195312 405.953125 C 85.550781 406.210938 84.886719 406.402344 84.203125 406.53125 C 83.515625 406.65625 82.828125 406.71875 82.132812 406.710938 L 51.386719 406.710938 C 50.699219 406.703125 50.019531 406.632812 49.347656 406.496094 C 48.675781 406.359375 48.019531 406.160156 47.386719 405.894531 C 46.753906 405.628906 46.152344 405.308594 45.582031 404.925781 C 45.011719 404.546875 44.484375 404.113281 44 403.628906 C 43.511719 403.144531 43.078125 402.621094 42.695312 402.050781 C 42.3125 401.484375 41.992188 400.882812 41.726562 400.253906 C 41.460938 399.621094 41.257812 398.972656 41.121094 398.300781 C 40.984375 397.632812 40.910156 396.953125 40.90625 396.269531 Z M 40.90625 396.269531 " fill-opacity="1" fill-rule="nonzero"/></g><path fill="#00b1e1" d="M 97.113281 396.175781 L 97.113281 361.722656 C 97.125 361.554688 97.1875 361.410156 97.308594 361.292969 C 97.425781 361.175781 97.570312 361.109375 97.738281 361.101562 L 110.207031 361.101562 C 110.382812 361.09375 110.53125 361.152344 110.652344 361.277344 C 110.777344 361.398438 110.835938 361.546875 110.828125 361.722656 L 110.828125 389.757812 C 110.828125 390.074219 110.859375 390.390625 110.921875 390.703125 C 110.984375 391.015625 111.078125 391.320312 111.199219 391.617188 C 111.324219 391.910156 111.472656 392.191406 111.652344 392.457031 C 111.828125 392.71875 112.03125 392.964844 112.257812 393.191406 C 112.484375 393.417969 112.730469 393.617188 112.996094 393.796875 C 113.261719 393.972656 113.542969 394.121094 113.839844 394.246094 C 114.132812 394.367188 114.4375 394.457031 114.753906 394.519531 C 115.066406 394.582031 115.382812 394.613281 115.703125 394.613281 L 133.960938 394.613281 C 134.066406 394.613281 134.167969 394.511719 134.167969 394.304688 L 134.167969 361.722656 C 134.179688 361.554688 134.242188 361.410156 134.363281 361.292969 C 134.480469 361.175781 134.625 361.109375 134.792969 361.101562 L 147.363281 361.101562 C 147.53125 361.109375 147.675781 361.175781 147.792969 361.292969 C 147.914062 361.410156 147.976562 361.554688 147.988281 361.722656 L 147.988281 396.175781 C 147.988281 396.871094 147.917969 397.5625 147.78125 398.246094 C 147.644531 398.929688 147.441406 399.59375 147.171875 400.238281 C 146.898438 400.882812 146.570312 401.492188 146.179688 402.070312 C 145.785156 402.648438 145.34375 403.183594 144.84375 403.675781 C 144.347656 404.164062 143.804688 404.601562 143.21875 404.984375 C 142.636719 405.367188 142.019531 405.691406 141.371094 405.953125 C 140.71875 406.214844 140.050781 406.410156 139.363281 406.539062 C 138.675781 406.667969 137.980469 406.726562 137.28125 406.71875 L 107.714844 406.71875 C 107.019531 406.722656 106.332031 406.65625 105.648438 406.523438 C 104.964844 406.390625 104.300781 406.191406 103.65625 405.929688 C 103.011719 405.664062 102.402344 405.339844 101.824219 404.957031 C 101.242188 404.570312 100.707031 404.132812 100.214844 403.644531 C 99.722656 403.152344 99.28125 402.621094 98.894531 402.042969 C 98.507812 401.46875 98.183594 400.859375 97.914062 400.21875 C 97.648438 399.578125 97.449219 398.914062 97.316406 398.234375 C 97.179688 397.554688 97.113281 396.867188 97.113281 396.175781 Z M 97.113281 396.175781 " fill-opacity="1" fill-rule="nonzero"/><path fill="#00b1e1" d="M 152.285156 405.597656 L 152.285156 372.164062 C 152.289062 371.433594 152.367188 370.710938 152.515625 369.996094 C 152.664062 369.28125 152.882812 368.585938 153.167969 367.914062 C 153.453125 367.242188 153.800781 366.601562 154.210938 366 C 154.621094 365.394531 155.085938 364.835938 155.609375 364.320312 C 156.128906 363.804688 156.695312 363.347656 157.304688 362.945312 C 157.914062 362.539062 158.558594 362.199219 159.238281 361.921875 C 159.914062 361.644531 160.613281 361.433594 161.332031 361.292969 C 162.050781 361.152344 162.777344 361.082031 163.507812 361.082031 L 183.238281 361.082031 C 183.390625 361.082031 183.535156 361.113281 183.675781 361.171875 C 183.8125 361.230469 183.933594 361.3125 184.042969 361.417969 C 184.148438 361.527344 184.230469 361.648438 184.289062 361.785156 C 184.347656 361.925781 184.378906 362.070312 184.382812 362.21875 L 184.382812 372.027344 C 184.390625 372.1875 184.367188 372.339844 184.3125 372.488281 C 184.261719 372.636719 184.179688 372.769531 184.074219 372.886719 C 183.964844 373.003906 183.839844 373.09375 183.695312 373.160156 C 183.550781 373.226562 183.398438 373.261719 183.238281 373.269531 L 170.988281 373.269531 C 170.664062 373.265625 170.347656 373.296875 170.03125 373.359375 C 169.714844 373.421875 169.40625 373.511719 169.109375 373.632812 C 168.8125 373.757812 168.527344 373.90625 168.261719 374.085938 C 167.992188 374.261719 167.746094 374.464844 167.515625 374.691406 C 167.289062 374.917969 167.085938 375.164062 166.910156 375.433594 C 166.730469 375.699219 166.578125 375.980469 166.457031 376.277344 C 166.335938 376.574219 166.242188 376.878906 166.179688 377.195312 C 166.117188 377.511719 166.089844 377.828125 166.089844 378.148438 L 166.089844 405.585938 C 166.089844 405.738281 166.0625 405.882812 166.003906 406.023438 C 165.945312 406.160156 165.863281 406.285156 165.753906 406.390625 C 165.648438 406.496094 165.523438 406.578125 165.382812 406.636719 C 165.246094 406.695312 165.097656 406.722656 164.949219 406.722656 L 153.535156 406.722656 C 153.378906 406.734375 153.222656 406.714844 153.074219 406.660156 C 152.921875 406.609375 152.789062 406.53125 152.671875 406.425781 C 152.554688 406.316406 152.460938 406.191406 152.394531 406.050781 C 152.324219 405.90625 152.289062 405.753906 152.285156 405.597656 Z M 152.285156 405.597656 " fill-opacity="1" fill-rule="nonzero"/><path fill="#00b1e1" d="M 188.65625 406.113281 L 188.65625 361.410156 C 188.640625 361.320312 188.664062 361.242188 188.730469 361.175781 C 188.796875 361.113281 188.875 361.085938 188.96875 361.101562 L 228.71875 361.101562 C 229.417969 361.105469 230.109375 361.179688 230.796875 361.320312 C 231.480469 361.460938 232.144531 361.664062 232.789062 361.933594 C 233.433594 362.207031 234.046875 362.535156 234.625 362.925781 C 235.203125 363.316406 235.738281 363.757812 236.230469 364.253906 C 236.722656 364.75 237.164062 365.285156 237.546875 365.867188 C 237.933594 366.449219 238.261719 367.0625 238.523438 367.707031 C 238.789062 368.351562 238.988281 369.015625 239.121094 369.699219 C 239.257812 370.382812 239.324219 371.074219 239.320312 371.769531 L 239.320312 406.105469 C 239.332031 406.1875 239.324219 406.273438 239.296875 406.355469 C 239.269531 406.4375 239.226562 406.507812 239.164062 406.570312 C 239.101562 406.628906 239.03125 406.671875 238.949219 406.699219 C 238.867188 406.726562 238.785156 406.734375 238.699219 406.722656 L 226.226562 406.722656 C 226.140625 406.734375 226.058594 406.726562 225.976562 406.699219 C 225.894531 406.671875 225.824219 406.628906 225.761719 406.570312 C 225.699219 406.507812 225.65625 406.4375 225.628906 406.355469 C 225.601562 406.273438 225.59375 406.1875 225.605469 406.105469 L 225.605469 378.148438 C 225.605469 377.828125 225.574219 377.511719 225.511719 377.199219 C 225.449219 376.886719 225.355469 376.582031 225.234375 376.289062 C 225.113281 375.992188 224.960938 375.710938 224.785156 375.449219 C 224.605469 375.183594 224.402344 374.9375 224.175781 374.710938 C 223.953125 374.484375 223.703125 374.285156 223.4375 374.105469 C 223.171875 373.929688 222.890625 373.78125 222.597656 373.660156 C 222.300781 373.535156 221.996094 373.445312 221.679688 373.382812 C 221.367188 373.320312 221.050781 373.289062 220.730469 373.289062 L 202.679688 373.289062 C 202.554688 373.300781 202.484375 373.367188 202.472656 373.496094 L 202.472656 406.109375 C 202.476562 406.285156 202.417969 406.433594 202.296875 406.554688 C 202.171875 406.679688 202.023438 406.738281 201.851562 406.730469 L 189.277344 406.730469 C 189.101562 406.738281 188.953125 406.679688 188.832031 406.554688 C 188.707031 406.433594 188.648438 406.285156 188.65625 406.109375 Z M 188.65625 406.113281 " fill-opacity="1" fill-rule="nonzero"/><path fill="#00b1e1" d="M 727.230469 367.117188 C 727.238281 367.496094 727.210938 367.871094 727.144531 368.242188 C 727.082031 368.613281 726.980469 368.976562 726.84375 369.328125 C 726.707031 369.679688 726.535156 370.011719 726.332031 370.332031 C 726.128906 370.648438 725.898438 370.945312 725.636719 371.21875 C 725.375 371.488281 725.085938 371.734375 724.777344 371.949219 C 724.464844 372.164062 724.136719 372.347656 723.789062 372.5 C 723.445312 372.648438 723.085938 372.765625 722.714844 372.84375 C 722.34375 372.925781 721.972656 372.96875 721.59375 372.972656 C 721.214844 372.980469 720.839844 372.949219 720.464844 372.878906 C 720.09375 372.8125 719.730469 372.707031 719.378906 372.570312 C 719.027344 372.429688 718.695312 372.257812 718.378906 372.050781 C 718.058594 371.84375 717.765625 371.609375 717.496094 371.347656 C 717.226562 371.082031 716.984375 370.796875 716.769531 370.484375 C 716.554688 370.171875 716.375 369.84375 716.226562 369.496094 C 716.078125 369.148438 715.96875 368.789062 715.890625 368.421875 C 715.8125 368.050781 715.773438 367.679688 715.773438 367.300781 C 715.769531 366.925781 715.804688 366.550781 715.875 366.179688 C 715.949219 365.808594 716.054688 365.449219 716.199219 365.101562 C 716.34375 364.75 716.519531 364.421875 716.730469 364.105469 C 716.9375 363.792969 717.175781 363.5 717.445312 363.234375 C 717.710938 362.96875 718.003906 362.730469 718.316406 362.519531 C 718.632812 362.308594 718.964844 362.132812 719.316406 361.988281 C 719.664062 361.84375 720.023438 361.734375 720.398438 361.664062 C 720.769531 361.589844 721.144531 361.554688 721.523438 361.554688 C 721.890625 361.550781 722.261719 361.578125 722.625 361.644531 C 722.992188 361.710938 723.347656 361.8125 723.695312 361.949219 C 724.039062 362.085938 724.367188 362.253906 724.679688 362.453125 C 724.992188 362.65625 725.28125 362.886719 725.546875 363.144531 C 725.808594 363.40625 726.046875 363.6875 726.257812 363.992188 C 726.464844 364.296875 726.644531 364.621094 726.789062 364.964844 C 726.933594 365.304688 727.042969 365.65625 727.117188 366.019531 C 727.1875 366.382812 727.226562 366.75 727.230469 367.117188 Z M 717.207031 367.117188 C 717.195312 367.410156 717.214844 367.695312 717.265625 367.984375 C 717.3125 368.269531 717.390625 368.546875 717.496094 368.820312 C 717.601562 369.089844 717.734375 369.347656 717.890625 369.589844 C 718.050781 369.835938 718.230469 370.0625 718.433594 370.269531 C 718.636719 370.476562 718.859375 370.660156 719.101562 370.824219 C 719.339844 370.988281 719.597656 371.125 719.867188 371.234375 C 720.132812 371.347656 720.410156 371.429688 720.699219 371.484375 C 720.984375 371.542969 721.273438 371.566406 721.5625 371.566406 C 721.851562 371.566406 722.136719 371.539062 722.417969 371.484375 C 722.703125 371.429688 722.976562 371.347656 723.238281 371.234375 C 723.503906 371.125 723.757812 370.988281 723.992188 370.824219 C 724.230469 370.664062 724.449219 370.480469 724.648438 370.273438 C 724.847656 370.066406 725.023438 369.839844 725.175781 369.597656 C 725.328125 369.355469 725.457031 369.101562 725.558594 368.832031 C 725.660156 368.5625 725.730469 368.289062 725.773438 368.003906 C 725.816406 367.722656 725.832031 367.4375 725.820312 367.148438 C 725.828125 366.863281 725.8125 366.578125 725.765625 366.292969 C 725.71875 366.007812 725.644531 365.730469 725.542969 365.464844 C 725.4375 365.195312 725.308594 364.9375 725.15625 364.695312 C 725 364.449219 724.824219 364.226562 724.625 364.015625 C 724.425781 363.808594 724.207031 363.625 723.96875 363.460938 C 723.730469 363.296875 723.480469 363.15625 723.214844 363.042969 C 722.949219 362.929688 722.675781 362.84375 722.390625 362.785156 C 722.109375 362.726562 721.824219 362.695312 721.535156 362.695312 C 721.246094 362.691406 720.960938 362.71875 720.675781 362.777344 C 720.394531 362.832031 720.117188 362.914062 719.851562 363.027344 C 719.585938 363.136719 719.332031 363.273438 719.09375 363.4375 C 718.855469 363.597656 718.632812 363.78125 718.433594 363.988281 C 718.230469 364.195312 718.050781 364.417969 717.894531 364.660156 C 717.738281 364.902344 717.605469 365.15625 717.5 365.425781 C 717.394531 365.691406 717.316406 365.96875 717.265625 366.25 C 717.21875 366.535156 717.199219 366.820312 717.207031 367.109375 Z M 720.632812 370.035156 L 719.34375 370.035156 L 719.34375 364.472656 C 720.050781 364.351562 720.761719 364.296875 721.480469 364.308594 C 722.167969 364.246094 722.808594 364.382812 723.410156 364.722656 C 723.789062 365.042969 723.96875 365.453125 723.949219 365.949219 C 723.925781 366.269531 723.804688 366.550781 723.585938 366.789062 C 723.371094 367.027344 723.105469 367.175781 722.789062 367.230469 L 722.789062 367.292969 C 723.070312 367.40625 723.300781 367.582031 723.484375 367.824219 C 723.667969 368.066406 723.773438 368.335938 723.804688 368.636719 C 723.871094 369.121094 724.007812 369.582031 724.21875 370.023438 L 722.832031 370.023438 C 722.617188 369.589844 722.46875 369.136719 722.394531 368.660156 C 722.230469 367.996094 721.957031 367.789062 721.230469 367.789062 L 720.613281 367.789062 Z M 720.671875 366.894531 L 721.292969 366.894531 C 722 366.894531 722.582031 366.648438 722.582031 366.085938 C 722.582031 365.523438 722.207031 365.238281 721.378906 365.238281 C 721.140625 365.230469 720.902344 365.25 720.671875 365.296875 Z M 720.671875 366.894531 " fill-opacity="1" fill-rule="nonzero"/></svg>