<svg xmlns="http://www.w3.org/2000/svg" xmlns:xlink="http://www.w3.org/1999/xlink" width="1024" zoomAndPan="magnify" viewBox="0 0 768 767.999994" height="1024" preserveAspectRatio="xMidYMid meet" version="1.0"><defs><clipPath id="22b7c48add"><path d="M 38.546875 302.097656 L 729.296875 302.097656 L 729.296875 465.597656 L 38.546875 465.597656 Z M 38.546875 302.097656 " clip-rule="nonzero"/></clipPath></defs><g clip-path="url(#22b7c48add)"><path fill="#010101" d="M 108.222656 302.226562 L 54.144531 302.226562 C 39.496094 302.226562 38.15625 314.019531 38.640625 316.75 C 39.25 318.113281 39.988281 318.613281 40.839844 318.613281 C 43.160156 318.613281 42.671875 316.003906 53.167969 315.507812 L 108.222656 315.507812 C 145.699219 315.507812 170.964844 348.042969 170.964844 383.433594 C 170.964844 418.828125 146.308594 451.113281 107.976562 451.113281 L 59.761719 451.113281 C 57.320312 451.113281 55.246094 449.003906 55.246094 446.519531 L 55.246094 379.835938 C 55.246094 359.71875 62.8125 351.023438 77.949219 352.019531 C 85.515625 352.515625 91.011719 351.523438 95.039062 346.183594 C 103.21875 359.964844 88.933594 368.90625 80.511719 369.03125 C 75.996094 369.03125 77.460938 371.886719 80.878906 373.75 C 82.101562 374.371094 87.105469 377.226562 87.105469 377.226562 L 87.105469 378.097656 C 87.105469 383.933594 91.742188 388.527344 97.359375 388.527344 C 103.09375 388.527344 107.613281 383.808594 107.613281 378.097656 L 107.613281 377.226562 L 128.605469 377.226562 L 128.605469 382.320312 C 128.851562 389.273438 133.613281 394.488281 139.714844 394.988281 C 137.03125 403.679688 130.925781 410.382812 123.238281 413.613281 C 108.832031 419.699219 92.230469 418.703125 83.199219 402.683594 C 80.757812 398.339844 76.605469 399.207031 78.191406 404.671875 C 85.394531 428.636719 112.25 429.757812 126.898438 424.539062 C 151.070312 415.722656 155.097656 390.515625 153.878906 373.378906 C 153.632812 369.652344 150.582031 366.796875 146.917969 366.796875 L 99.066406 366.796875 C 106.144531 360.960938 108.710938 348.542969 102.117188 337.738281 C 99.679688 333.765625 97.113281 331.902344 93.085938 335.628906 C 87.46875 340.84375 82.101562 340.714844 76.359375 340.714844 C 54.511719 340.714844 41.328125 349.65625 41.328125 381.199219 L 41.328125 454.589844 C 41.328125 460.054688 45.722656 464.523438 51.09375 464.523438 L 107.367188 464.523438 C 156.925781 464.523438 186.46875 428.761719 186.46875 382.9375 C 186.46875 337.121094 157.292969 302.097656 108.34375 302.097656 Z M 383.488281 464.402344 C 378.117188 461.546875 374.457031 458.316406 372.257812 448.757812 C 372.136719 448.136719 371.648438 448.507812 371.527344 448.757812 C 369.816406 452.851562 369.328125 456.828125 372.503906 461.296875 C 375.675781 465.769531 382.511719 465.890625 383.367188 465.148438 C 383.613281 464.898438 383.734375 464.527344 383.367188 464.402344 Z M 284.980469 332.027344 C 280.460938 331.652344 278.753906 332.769531 278.753906 333.890625 C 278.753906 335.007812 280.707031 333.890625 280.707031 339.972656 L 280.707031 367.292969 C 276.921875 362.945312 270.207031 358.847656 260.808594 358.847656 C 243.964844 358.847656 232.246094 371.890625 232.246094 390.640625 C 232.246094 409.390625 244.085938 422.179688 260.320312 422.179688 C 276.554688 422.179688 275.457031 419.078125 280.828125 412.742188 L 280.828125 416.46875 C 280.828125 419.570312 282.292969 421.1875 285.101562 421.1875 L 285.957031 421.1875 C 288.882812 421.1875 290.351562 419.570312 290.351562 416.46875 L 290.351562 340.71875 C 290.351562 335.253906 288.519531 332.398438 284.980469 332.152344 L 284.980469 332.023438 Z M 280.707031 396.597656 C 279.605469 405.914062 271.0625 413.238281 261.175781 413.238281 C 251.289062 413.238281 242.132812 403.679688 242.132812 390.515625 C 242.132812 377.351562 249.945312 367.789062 261.417969 367.789062 C 272.894531 367.789062 277.042969 372.136719 280.707031 380.578125 L 280.707031 396.722656 Z M 423.28125 416.097656 C 430.609375 410.507812 435.125 401.566406 435.125 390.886719 C 435.125 380.207031 432.558594 375.488281 428.042969 370.023438 C 429.140625 368.90625 429.996094 367.539062 430.609375 365.554688 C 431.949219 361.332031 429.875 356.363281 427.800781 355.621094 C 426.210938 355.125 424.871094 355.621094 424.75 356.613281 L 424.75 356.863281 C 424.75 356.863281 423.160156 362.949219 419.621094 362.949219 C 415.347656 360.585938 410.34375 359.347656 404.851562 359.347656 C 387.273438 359.347656 374.457031 372.507812 374.457031 390.640625 C 374.457031 408.769531 387.273438 422.179688 404.851562 422.179688 C 422.429688 422.179688 427.066406 421.3125 427.066406 438.820312 C 427.066406 456.328125 417.910156 455.585938 406.558594 455.585938 C 395.207031 455.585938 386.785156 451.113281 382.511719 446.023438 C 379.703125 442.671875 378.972656 439.195312 378.726562 438.449219 C 377.996094 436.214844 376.042969 438.078125 376.042969 438.820312 C 376.042969 453.722656 389.714844 465.890625 406.558594 465.890625 C 423.40625 465.890625 437.078125 453.722656 437.078125 438.820312 C 437.078125 423.917969 431.582031 421.0625 423.160156 416.222656 L 423.28125 416.09375 Z M 404.851562 413.242188 C 393.132812 413.242188 384.21875 403.429688 384.21875 390.515625 C 384.21875 377.601562 392.890625 368.039062 404.851562 368.039062 C 416.8125 368.039062 425.359375 377.847656 425.359375 390.761719 C 425.359375 403.679688 416.691406 413.238281 404.851562 413.238281 Z M 333.5625 358.847656 C 315.863281 358.847656 302.921875 372.136719 302.921875 390.390625 C 302.921875 408.644531 315.742188 422.183594 333.5625 422.183594 C 351.382812 422.183594 364.082031 408.894531 364.082031 390.640625 C 364.082031 372.386719 351.261719 358.847656 333.5625 358.847656 Z M 333.5625 413.238281 C 321.722656 413.238281 312.8125 403.429688 312.8125 390.390625 C 312.8125 377.351562 321.597656 367.789062 333.5625 367.789062 C 345.527344 367.789062 354.191406 377.601562 354.191406 390.636719 C 354.191406 403.679688 345.527344 413.242188 333.5625 413.242188 Z M 515.8125 358.847656 C 498.109375 358.847656 485.171875 372.136719 485.171875 390.390625 C 485.171875 408.644531 497.988281 422.183594 515.8125 422.183594 C 533.632812 422.183594 546.328125 408.894531 546.328125 390.640625 C 546.328125 372.386719 533.511719 358.847656 515.8125 358.847656 Z M 515.8125 413.238281 C 503.972656 413.238281 495.058594 403.429688 495.058594 390.390625 C 495.058594 377.351562 503.847656 367.789062 515.8125 367.789062 C 527.773438 367.789062 536.441406 377.601562 536.441406 390.636719 C 536.441406 403.679688 527.773438 413.242188 515.8125 413.242188 Z M 708.683594 413.238281 L 708.683594 382.445312 C 708.683594 367.914062 699.40625 358.847656 684.511719 358.847656 C 669.621094 358.847656 660.21875 368.164062 660.21875 373.253906 C 660.21875 378.34375 661.5625 377.105469 662.539062 377.847656 C 663.148438 378.222656 665.101562 379.214844 666.566406 378.84375 C 666.566406 378.46875 666.566406 377.847656 667.296875 376.855469 C 670.839844 371.144531 676.699219 368.039062 683.902344 368.039062 C 691.101562 368.039062 699.160156 373.253906 699.160156 382.691406 L 699.160156 383.808594 L 698.914062 383.808594 C 670.71875 384.429688 658.144531 390.886719 658.144531 404.671875 C 658.144531 418.457031 666.078125 421.933594 678.898438 421.933594 C 691.714844 421.933594 694.523438 418.703125 699.402344 412.992188 C 699.402344 418.457031 701.480469 421.0625 705.753906 421.0625 C 709.414062 421.1875 710.757812 420.195312 710.757812 419.199219 C 710.757812 417.585938 708.804688 418.953125 708.804688 413.238281 Z M 699.160156 396.476562 C 699.160156 406.285156 690.859375 413.488281 679.507812 413.488281 C 668.152344 413.488281 667.910156 410.136719 667.910156 404.796875 C 667.910156 396.722656 676.578125 392.996094 696.839844 392.253906 L 699.28125 392.253906 L 699.28125 396.597656 Z M 726.867188 414.730469 C 726.867188 413.613281 726.136719 412.992188 724.671875 412.992188 L 723.085938 412.992188 C 722.597656 412.992188 722.351562 413.238281 722.351562 413.738281 L 722.351562 417.460938 C 722.351562 417.960938 722.597656 418.332031 722.964844 418.332031 L 723.207031 418.332031 C 723.574219 418.332031 723.816406 418.082031 723.816406 417.710938 L 723.816406 416.59375 L 724.308594 416.59375 L 725.160156 417.957031 C 725.355469 418.273438 725.640625 418.441406 726.015625 418.453125 C 726.503906 418.453125 726.867188 418.082031 726.867188 417.960938 L 725.648438 416.34375 C 726.503906 416.097656 726.867188 415.597656 726.867188 414.730469 Z M 724.550781 415.597656 L 723.695312 415.597656 L 723.695312 414.234375 L 724.550781 414.234375 C 725.160156 414.234375 725.40625 414.480469 725.40625 414.976562 C 725.40625 415.476562 725.160156 415.722656 724.550781 415.722656 Z M 724.429688 410.632812 C 721.496094 410.632812 719.421875 412.867188 719.421875 415.722656 C 719.421875 418.578125 721.496094 420.816406 724.429688 420.816406 C 727.359375 420.816406 729.433594 418.578125 729.433594 415.722656 C 729.433594 412.867188 727.359375 410.632812 724.429688 410.632812 Z M 724.429688 419.945312 C 722.109375 419.945312 720.398438 418.207031 720.398438 415.726562 C 720.398438 413.238281 721.988281 411.503906 724.429688 411.503906 C 726.867188 411.503906 728.457031 413.242188 728.457031 415.722656 C 728.457031 418.207031 726.867188 419.945312 724.429688 419.945312 Z M 589.296875 358.847656 C 580.875 358.847656 574.160156 361.953125 568.789062 368.410156 C 568.789062 362.949219 566.957031 360.214844 563.417969 359.96875 C 558.902344 359.59375 557.4375 360.710938 557.4375 361.828125 C 557.4375 362.949219 559.269531 361.828125 559.269531 367.914062 L 559.269531 439.9375 C 559.269531 443.039062 560.855469 444.65625 563.660156 444.65625 L 564.515625 444.65625 C 567.449219 444.65625 568.910156 443.039062 568.910156 439.9375 L 568.910156 413.113281 C 572.695312 417.835938 579.410156 422.179688 588.808594 422.179688 C 605.652344 422.179688 617.375 409.140625 617.375 390.390625 C 617.375 371.640625 605.53125 358.847656 589.296875 358.847656 Z M 588.199219 413.238281 C 577.457031 413.238281 568.789062 404.796875 568.789062 394.488281 L 568.789062 380.953125 C 572.453125 372.507812 579.410156 367.789062 588.441406 367.789062 C 597.476562 367.789062 607.484375 377.351562 607.484375 390.515625 C 607.484375 403.679688 599.671875 413.242188 588.199219 413.242188 Z M 477.117188 409.019531 L 476.503906 409.019531 L 476.261719 409.390625 C 474.1875 411.996094 471.5 413.363281 468.082031 413.363281 C 462.589844 413.363281 460.515625 410.257812 460.515625 401.816406 L 460.515625 366.300781 L 468.082031 366.300781 C 471.253906 366.300781 472.722656 365.058594 472.722656 362.203125 L 472.722656 361.457031 C 472.722656 358.601562 471.253906 357.359375 468.082031 357.359375 L 460.515625 357.359375 L 460.515625 341.960938 C 460.390625 338.980469 458.316406 336 454.535156 335.875 C 450.503906 335.628906 449.039062 336.621094 449.039062 337.738281 C 449.039062 339.355469 450.871094 337.738281 450.871094 343.699219 L 450.871094 357.359375 L 448.917969 357.359375 C 445.742188 357.359375 444.28125 358.601562 444.28125 361.457031 L 444.28125 362.203125 C 444.28125 364.933594 445.742188 366.300781 448.917969 366.300781 L 450.871094 366.300781 L 450.871094 402.5625 C 450.871094 415.597656 456.363281 422.054688 467.71875 422.054688 C 479.070312 422.054688 480.410156 417.960938 480.410156 413.984375 C 480.410156 410.011719 478.09375 409.140625 476.996094 409.140625 L 477.117188 409.015625 Z M 637.757812 335.128906 C 633.730469 335.128906 631.53125 337.242188 631.53125 341.339844 C 631.53125 345.4375 633.730469 347.550781 637.515625 347.550781 C 641.300781 347.550781 643.738281 345.4375 643.738281 341.339844 C 643.738281 337.242188 641.664062 335.128906 637.757812 335.128906 Z M 642.398438 367.167969 C 642.15625 362.574219 640.6875 360.214844 636.414062 359.84375 C 633.363281 359.71875 631.777344 360.214844 631.167969 360.835938 C 630.921875 361.085938 630.800781 361.582031 630.800781 361.582031 C 630.800781 362.449219 631.410156 362.328125 631.902344 363.195312 C 632.265625 363.816406 632.632812 365.058594 632.632812 367.667969 L 632.632812 416.34375 C 632.632812 419.449219 634.21875 421.0625 637.027344 421.0625 L 637.882812 421.0625 C 640.808594 421.0625 642.277344 419.449219 642.277344 416.34375 L 642.277344 367.167969 Z M 642.398438 367.167969 " fill-opacity="1" fill-rule="nonzero"/></g></svg>