<svg xmlns="http://www.w3.org/2000/svg" xmlns:xlink="http://www.w3.org/1999/xlink" width="1024" zoomAndPan="magnify" viewBox="0 0 768 767.999994" height="1024" preserveAspectRatio="xMidYMid meet" version="1.0"><defs><g/></defs><g fill="#000000" fill-opacity="1"><g transform="translate(154.767197, 381.726109)"><g><path d="M 65.625 1.828125 C 50.019531 1.828125 38.210938 -2.128906 30.203125 -10.046875 C 22.191406 -17.972656 18.1875 -29.710938 18.1875 -45.265625 L 18.1875 -127.265625 L 33.078125 -127.265625 L 33.078125 -45.4375 C 33.078125 -34.289062 35.757812 -25.929688 41.125 -20.359375 C 46.5 -14.796875 54.664062 -12.015625 65.625 -12.015625 C 87.332031 -12.015625 98.1875 -23.15625 98.1875 -45.4375 L 98.1875 -127.265625 L 113.0625 -127.265625 L 113.0625 -45.265625 C 113.0625 -29.710938 109.054688 -17.972656 101.046875 -10.046875 C 93.046875 -2.128906 81.238281 1.828125 65.625 1.828125 Z M 65.625 1.828125 "/></g></g></g><g fill="#000000" fill-opacity="1"><g transform="translate(285.942138, 381.726109)"><g><path d="M 55.625 0 L 36.03125 0 L 6.875 -127.265625 L 21.671875 -127.265625 L 45.609375 -22.015625 L 47.78125 -22.015625 L 76.34375 -127.265625 L 90.171875 -127.265625 L 118.734375 -22.015625 L 120.90625 -22.015625 L 144.921875 -127.265625 L 159.296875 -127.265625 L 130.21875 0 L 110.546875 0 L 84 -96.359375 L 82.171875 -96.359375 Z M 55.625 0 "/></g></g></g><g fill="#000000" fill-opacity="1"><g transform="translate(452.108672, 381.726109)"><g><path d="M 33.078125 0 L 19.234375 0 L 19.234375 -127.265625 L 41.4375 -127.265625 L 80 -19.5 L 81.828125 -19.5 L 120.375 -127.265625 L 141.796875 -127.265625 L 141.796875 0 L 127.609375 0 L 127.609375 -103.84375 L 125.4375 -104.1875 L 87.828125 0 L 72.9375 0 L 35.25 -104.1875 L 33.078125 -103.84375 Z M 33.078125 0 "/></g></g></g><g fill="#000000" fill-opacity="1"><g transform="translate(157.134384, 432.726107)"><g><path d="M 10.46875 0.296875 C 7.976562 0.296875 6.09375 -0.332031 4.8125 -1.59375 C 3.539062 -2.863281 2.90625 -4.738281 2.90625 -7.21875 L 2.90625 -20.296875 L 5.28125 -20.296875 L 5.28125 -7.25 C 5.28125 -5.46875 5.707031 -4.132812 6.5625 -3.25 C 7.414062 -2.363281 8.71875 -1.921875 10.46875 -1.921875 C 13.925781 -1.921875 15.65625 -3.695312 15.65625 -7.25 L 15.65625 -20.296875 L 18.03125 -20.296875 L 18.03125 -7.21875 C 18.03125 -4.738281 17.390625 -2.863281 16.109375 -1.59375 C 14.835938 -0.332031 12.957031 0.296875 10.46875 0.296875 Z M 10.46875 0.296875 "/></g></g></g><g fill="#000000" fill-opacity="1"><g transform="translate(178.045463, 432.726107)"><g><path d="M 5.40625 0 L 3.0625 0 L 3.0625 -20.296875 L 6 -20.296875 L 15.890625 -4.78125 L 16.234375 -4.84375 L 16.234375 -20.296875 L 18.5625 -20.296875 L 18.5625 0 L 16.0625 0 L 5.75 -16.578125 L 5.40625 -16.53125 Z M 5.40625 0 "/></g></g></g><g fill="#000000" fill-opacity="1"><g transform="translate(199.678091, 432.726107)"><g><path d="M 5.453125 0 L 3.0625 0 L 3.0625 -20.296875 L 5.453125 -20.296875 Z M 5.453125 0 "/></g></g></g><g fill="#000000" fill-opacity="1"><g transform="translate(208.211812, 432.726107)"><g><path d="M 15.828125 -20.296875 L 15.828125 -18.265625 L 9.484375 -18.265625 L 9.484375 0 L 7.109375 0 L 7.109375 -18.265625 L 0.75 -18.265625 L 0.75 -20.296875 Z M 15.828125 -20.296875 "/></g></g></g><g fill="#000000" fill-opacity="1"><g transform="translate(224.779709, 432.726107)"><g><path d="M 5.453125 -9.5625 L 5.453125 -1.96875 L 15.796875 -1.96875 L 15.796875 0 L 3.0625 0 L 3.0625 -20.296875 L 15.578125 -20.296875 L 15.578125 -18.3125 L 5.453125 -18.3125 L 5.453125 -11.53125 L 14.375 -11.53125 L 14.375 -9.5625 Z M 5.453125 -9.5625 "/></g></g></g><g fill="#000000" fill-opacity="1"><g transform="translate(241.916527, 432.726107)"><g><path d="M 9.625 -20.296875 C 11.6875 -20.296875 13.453125 -19.925781 14.921875 -19.1875 C 16.398438 -18.445312 17.539062 -17.320312 18.34375 -15.8125 C 19.144531 -14.3125 19.546875 -12.421875 19.546875 -10.140625 C 19.546875 -7.867188 19.144531 -5.976562 18.34375 -4.46875 C 17.539062 -2.957031 16.398438 -1.832031 14.921875 -1.09375 C 13.453125 -0.363281 11.6875 0 9.625 0 L 3.0625 0 L 3.0625 -20.296875 Z M 9.390625 -2.03125 C 11.085938 -2.03125 12.488281 -2.289062 13.59375 -2.8125 C 14.707031 -3.34375 15.550781 -4.203125 16.125 -5.390625 C 16.695312 -6.585938 16.984375 -8.171875 16.984375 -10.140625 C 16.984375 -12.117188 16.695312 -13.703125 16.125 -14.890625 C 15.550781 -16.085938 14.707031 -16.945312 13.59375 -17.46875 C 12.488281 -18 11.085938 -18.265625 9.390625 -18.265625 L 5.453125 -18.265625 L 5.453125 -2.03125 Z M 9.390625 -2.03125 "/></g></g></g><g fill="#000000" fill-opacity="1"><g transform="translate(263.479769, 432.726107)"><g/></g></g><g fill="#000000" fill-opacity="1"><g transform="translate(270.445502, 432.726107)"><g><path d="M 8.875 0 L 5.75 0 L 1.09375 -20.296875 L 3.453125 -20.296875 L 7.265625 -3.515625 L 7.625 -3.515625 L 12.171875 -20.296875 L 14.375 -20.296875 L 18.921875 -3.515625 L 19.28125 -3.515625 L 23.109375 -20.296875 L 25.390625 -20.296875 L 20.765625 0 L 17.625 0 L 13.390625 -15.359375 L 13.09375 -15.359375 Z M 8.875 0 "/></g></g></g><g fill="#000000" fill-opacity="1"><g transform="translate(296.934716, 432.726107)"><g><path d="M 16 -12.0625 L 16 -20.296875 L 18.375 -20.296875 L 18.375 0 L 16 0 L 16 -10.03125 L 5.453125 -10.03125 L 5.453125 0 L 3.0625 0 L 3.0625 -20.296875 L 5.453125 -20.296875 L 5.453125 -12.0625 Z M 16 -12.0625 "/></g></g></g><g fill="#000000" fill-opacity="1"><g transform="translate(318.386951, 432.726107)"><g><path d="M 11.125 0.296875 C 9.375 0.296875 7.8125 -0.0820312 6.4375 -0.84375 C 5.070312 -1.601562 3.992188 -2.757812 3.203125 -4.3125 C 2.421875 -5.875 2.03125 -7.816406 2.03125 -10.140625 C 2.03125 -12.460938 2.421875 -14.40625 3.203125 -15.96875 C 3.992188 -17.53125 5.070312 -18.6875 6.4375 -19.4375 C 7.8125 -20.195312 9.375 -20.578125 11.125 -20.578125 C 12.882812 -20.578125 14.445312 -20.195312 15.8125 -19.4375 C 17.1875 -18.6875 18.265625 -17.53125 19.046875 -15.96875 C 19.835938 -14.40625 20.234375 -12.460938 20.234375 -10.140625 C 20.234375 -7.816406 19.835938 -5.875 19.046875 -4.3125 C 18.265625 -2.757812 17.1875 -1.601562 15.8125 -0.84375 C 14.445312 -0.0820312 12.882812 0.296875 11.125 0.296875 Z M 11.125 -1.921875 C 13.238281 -1.921875 14.859375 -2.578125 15.984375 -3.890625 C 17.117188 -5.210938 17.6875 -7.296875 17.6875 -10.140625 C 17.6875 -12.992188 17.117188 -15.078125 15.984375 -16.390625 C 14.859375 -17.710938 13.238281 -18.375 11.125 -18.375 C 6.757812 -18.375 4.578125 -15.628906 4.578125 -10.140625 C 4.578125 -4.660156 6.757812 -1.921875 11.125 -1.921875 Z M 11.125 -1.921875 "/></g></g></g><g fill="#000000" fill-opacity="1"><g transform="translate(340.643992, 432.726107)"><g><path d="M 5.453125 -20.296875 L 5.453125 -1.96875 L 15.21875 -1.96875 L 15.21875 0 L 3.0625 0 L 3.0625 -20.296875 Z M 5.453125 -20.296875 "/></g></g></g><g fill="#000000" fill-opacity="1"><g transform="translate(356.726247, 432.726107)"><g><path d="M 5.453125 -9.5625 L 5.453125 -1.96875 L 15.796875 -1.96875 L 15.796875 0 L 3.0625 0 L 3.0625 -20.296875 L 15.578125 -20.296875 L 15.578125 -18.3125 L 5.453125 -18.3125 L 5.453125 -11.53125 L 14.375 -11.53125 L 14.375 -9.5625 Z M 5.453125 -9.5625 "/></g></g></g><g fill="#000000" fill-opacity="1"><g transform="translate(373.863042, 432.726107)"><g><path d="M 8.875 0.296875 C 7.59375 0.296875 6.441406 0.125 5.421875 -0.21875 C 4.410156 -0.570312 3.566406 -1.03125 2.890625 -1.59375 C 2.222656 -2.15625 1.722656 -2.773438 1.390625 -3.453125 L 2.6875 -5.03125 L 3.046875 -5.03125 C 4.296875 -2.914062 6.238281 -1.859375 8.875 -1.859375 C 10.394531 -1.859375 11.523438 -2.175781 12.265625 -2.8125 C 13.015625 -3.457031 13.390625 -4.347656 13.390625 -5.484375 C 13.390625 -6.148438 13.265625 -6.710938 13.015625 -7.171875 C 12.773438 -7.640625 12.375 -8.035156 11.8125 -8.359375 C 11.25 -8.691406 10.476562 -8.976562 9.5 -9.21875 L 7.140625 -9.796875 C 5.367188 -10.222656 4.0625 -10.898438 3.21875 -11.828125 C 2.382812 -12.753906 1.96875 -13.929688 1.96875 -15.359375 C 1.96875 -16.367188 2.226562 -17.269531 2.75 -18.0625 C 3.269531 -18.851562 4.023438 -19.46875 5.015625 -19.90625 C 6.015625 -20.351562 7.210938 -20.578125 8.609375 -20.578125 C 10.128906 -20.578125 11.414062 -20.363281 12.46875 -19.9375 C 13.519531 -19.507812 14.359375 -18.863281 14.984375 -18 L 13.828125 -16.4375 L 13.46875 -16.4375 C 12.882812 -17.144531 12.195312 -17.664062 11.40625 -18 C 10.613281 -18.332031 9.679688 -18.5 8.609375 -18.5 C 7.203125 -18.5 6.140625 -18.222656 5.421875 -17.671875 C 4.703125 -17.128906 4.34375 -16.378906 4.34375 -15.421875 C 4.34375 -14.503906 4.601562 -13.773438 5.125 -13.234375 C 5.65625 -12.691406 6.546875 -12.273438 7.796875 -11.984375 L 10.234375 -11.390625 C 12.203125 -10.929688 13.625 -10.222656 14.5 -9.265625 C 15.382812 -8.304688 15.828125 -7.082031 15.828125 -5.59375 C 15.828125 -4.445312 15.570312 -3.429688 15.0625 -2.546875 C 14.550781 -1.660156 13.769531 -0.960938 12.71875 -0.453125 C 11.675781 0.046875 10.394531 0.296875 8.875 0.296875 Z M 8.875 0.296875 "/></g></g></g><g fill="#000000" fill-opacity="1"><g transform="translate(391.249637, 432.726107)"><g><path d="M 18.265625 0 L 15.703125 0 L 13.84375 -5.5625 L 5.1875 -5.5625 L 3.296875 0 L 0.8125 0 L 7.875 -20.296875 L 11.1875 -20.296875 Z M 9.34375 -17.828125 L 5.859375 -7.5625 L 13.15625 -7.5625 L 9.6875 -17.828125 Z M 9.34375 -17.828125 "/></g></g></g><g fill="#000000" fill-opacity="1"><g transform="translate(410.315219, 432.726107)"><g><path d="M 5.453125 -20.296875 L 5.453125 -1.96875 L 15.21875 -1.96875 L 15.21875 0 L 3.0625 0 L 3.0625 -20.296875 Z M 5.453125 -20.296875 "/></g></g></g><g fill="#000000" fill-opacity="1"><g transform="translate(426.397462, 432.726107)"><g><path d="M 5.453125 -9.5625 L 5.453125 -1.96875 L 15.796875 -1.96875 L 15.796875 0 L 3.0625 0 L 3.0625 -20.296875 L 15.578125 -20.296875 L 15.578125 -18.3125 L 5.453125 -18.3125 L 5.453125 -11.53125 L 14.375 -11.53125 L 14.375 -9.5625 Z M 5.453125 -9.5625 "/></g></g></g><g fill="#000000" fill-opacity="1"><g transform="translate(443.534257, 432.726107)"><g/></g></g><g fill="#000000" fill-opacity="1"><g transform="translate(450.5, 432.726107)"><g><path d="M 5.28125 0 L 3.0625 0 L 3.0625 -20.296875 L 6.609375 -20.296875 L 12.75 -3.109375 L 13.046875 -3.109375 L 19.1875 -20.296875 L 22.609375 -20.296875 L 22.609375 0 L 20.34375 0 L 20.34375 -16.5625 L 20 -16.609375 L 14 0 L 11.625 0 L 5.625 -16.609375 L 5.28125 -16.5625 Z M 5.28125 0 "/></g></g></g><g fill="#000000" fill-opacity="1"><g transform="translate(476.184409, 432.726107)"><g><path d="M 11.125 0.296875 C 9.375 0.296875 7.8125 -0.0820312 6.4375 -0.84375 C 5.070312 -1.601562 3.992188 -2.757812 3.203125 -4.3125 C 2.421875 -5.875 2.03125 -7.816406 2.03125 -10.140625 C 2.03125 -12.460938 2.421875 -14.40625 3.203125 -15.96875 C 3.992188 -17.53125 5.070312 -18.6875 6.4375 -19.4375 C 7.8125 -20.195312 9.375 -20.578125 11.125 -20.578125 C 12.882812 -20.578125 14.445312 -20.195312 15.8125 -19.4375 C 17.1875 -18.6875 18.265625 -17.53125 19.046875 -15.96875 C 19.835938 -14.40625 20.234375 -12.460938 20.234375 -10.140625 C 20.234375 -7.816406 19.835938 -5.875 19.046875 -4.3125 C 18.265625 -2.757812 17.1875 -1.601562 15.8125 -0.84375 C 14.445312 -0.0820312 12.882812 0.296875 11.125 0.296875 Z M 11.125 -1.921875 C 13.238281 -1.921875 14.859375 -2.578125 15.984375 -3.890625 C 17.117188 -5.210938 17.6875 -7.296875 17.6875 -10.140625 C 17.6875 -12.992188 17.117188 -15.078125 15.984375 -16.390625 C 14.859375 -17.710938 13.238281 -18.375 11.125 -18.375 C 6.757812 -18.375 4.578125 -15.628906 4.578125 -10.140625 C 4.578125 -4.660156 6.757812 -1.921875 11.125 -1.921875 Z M 11.125 -1.921875 "/></g></g></g><g fill="#000000" fill-opacity="1"><g transform="translate(498.44145, 432.726107)"><g><path d="M 3.0625 0 L 3.0625 -20.296875 L 10.4375 -20.296875 C 11.789062 -20.296875 12.929688 -20.066406 13.859375 -19.609375 C 14.785156 -19.160156 15.476562 -18.523438 15.9375 -17.703125 C 16.40625 -16.890625 16.640625 -15.925781 16.640625 -14.8125 C 16.640625 -13.550781 16.320312 -12.507812 15.6875 -11.6875 C 15.0625 -10.875 14.082031 -10.265625 12.75 -9.859375 L 12.75 -9.5625 C 13.40625 -9.300781 13.941406 -8.894531 14.359375 -8.34375 C 14.773438 -7.789062 15.160156 -6.960938 15.515625 -5.859375 L 17.390625 0 L 14.9375 0 L 12.90625 -6.203125 C 12.664062 -6.929688 12.390625 -7.503906 12.078125 -7.921875 C 11.765625 -8.335938 11.363281 -8.640625 10.875 -8.828125 C 10.394531 -9.015625 9.785156 -9.109375 9.046875 -9.109375 L 5.453125 -9.109375 L 5.453125 0 Z M 10.375 -11.125 C 11.644531 -11.125 12.585938 -11.414062 13.203125 -12 C 13.828125 -12.59375 14.140625 -13.492188 14.140625 -14.703125 C 14.140625 -15.898438 13.828125 -16.789062 13.203125 -17.375 C 12.585938 -17.96875 11.644531 -18.265625 10.375 -18.265625 L 5.453125 -18.265625 L 5.453125 -11.125 Z M 10.375 -11.125 "/></g></g></g><g fill="#000000" fill-opacity="1"><g transform="translate(516.993558, 432.726107)"><g><path d="M 15.828125 -20.296875 L 15.828125 -18.265625 L 9.484375 -18.265625 L 9.484375 0 L 7.109375 0 L 7.109375 -18.265625 L 0.75 -18.265625 L 0.75 -20.296875 Z M 15.828125 -20.296875 "/></g></g></g><g fill="#000000" fill-opacity="1"><g transform="translate(532.923, 432.726107)"><g><path d="M 10.671875 0.296875 C 8.972656 0.296875 7.472656 -0.09375 6.171875 -0.875 C 4.867188 -1.65625 3.851562 -2.828125 3.125 -4.390625 C 2.394531 -5.953125 2.03125 -7.867188 2.03125 -10.140625 C 2.03125 -12.421875 2.421875 -14.34375 3.203125 -15.90625 C 3.984375 -17.46875 5.066406 -18.632812 6.453125 -19.40625 C 7.835938 -20.1875 9.4375 -20.578125 11.25 -20.578125 C 13.195312 -20.578125 14.796875 -20.226562 16.046875 -19.53125 C 17.296875 -18.832031 18.175781 -17.789062 18.6875 -16.40625 L 17.140625 -15.484375 L 16.796875 -15.484375 C 16.265625 -16.535156 15.550781 -17.289062 14.65625 -17.75 C 13.757812 -18.207031 12.625 -18.4375 11.25 -18.4375 C 6.800781 -18.4375 4.578125 -15.671875 4.578125 -10.140625 C 4.578125 -7.265625 5.132812 -5.164062 6.25 -3.84375 C 7.375 -2.519531 8.945312 -1.859375 10.96875 -1.859375 C 12.8125 -1.859375 14.191406 -2.28125 15.109375 -3.125 C 16.035156 -3.96875 16.5 -5.296875 16.5 -7.109375 L 16.5 -8.890625 L 10.734375 -8.890625 L 10.734375 -10.8125 L 18.8125 -10.8125 L 18.8125 0 L 16.609375 0 L 16.609375 -2.71875 L 16.328125 -2.796875 C 15.785156 -1.742188 15.035156 -0.960938 14.078125 -0.453125 C 13.117188 0.046875 11.984375 0.296875 10.671875 0.296875 Z M 10.671875 0.296875 "/></g></g></g><g fill="#000000" fill-opacity="1"><g transform="translate(554.01446, 432.726107)"><g><path d="M 18.265625 0 L 15.703125 0 L 13.84375 -5.5625 L 5.1875 -5.5625 L 3.296875 0 L 0.8125 0 L 7.875 -20.296875 L 11.1875 -20.296875 Z M 9.34375 -17.828125 L 5.859375 -7.5625 L 13.15625 -7.5625 L 9.6875 -17.828125 Z M 9.34375 -17.828125 "/></g></g></g><g fill="#000000" fill-opacity="1"><g transform="translate(572.622004, 432.726107)"><g><path d="M 10.671875 0.296875 C 8.972656 0.296875 7.472656 -0.09375 6.171875 -0.875 C 4.867188 -1.65625 3.851562 -2.828125 3.125 -4.390625 C 2.394531 -5.953125 2.03125 -7.867188 2.03125 -10.140625 C 2.03125 -12.421875 2.421875 -14.34375 3.203125 -15.90625 C 3.984375 -17.46875 5.066406 -18.632812 6.453125 -19.40625 C 7.835938 -20.1875 9.4375 -20.578125 11.25 -20.578125 C 13.195312 -20.578125 14.796875 -20.226562 16.046875 -19.53125 C 17.296875 -18.832031 18.175781 -17.789062 18.6875 -16.40625 L 17.140625 -15.484375 L 16.796875 -15.484375 C 16.265625 -16.535156 15.550781 -17.289062 14.65625 -17.75 C 13.757812 -18.207031 12.625 -18.4375 11.25 -18.4375 C 6.800781 -18.4375 4.578125 -15.671875 4.578125 -10.140625 C 4.578125 -7.265625 5.132812 -5.164062 6.25 -3.84375 C 7.375 -2.519531 8.945312 -1.859375 10.96875 -1.859375 C 12.8125 -1.859375 14.191406 -2.28125 15.109375 -3.125 C 16.035156 -3.96875 16.5 -5.296875 16.5 -7.109375 L 16.5 -8.890625 L 10.734375 -8.890625 L 10.734375 -10.8125 L 18.8125 -10.8125 L 18.8125 0 L 16.609375 0 L 16.609375 -2.71875 L 16.328125 -2.796875 C 15.785156 -1.742188 15.035156 -0.960938 14.078125 -0.453125 C 13.117188 0.046875 11.984375 0.296875 10.671875 0.296875 Z M 10.671875 0.296875 "/></g></g></g><g fill="#000000" fill-opacity="1"><g transform="translate(593.713464, 432.726107)"><g><path d="M 5.453125 -9.5625 L 5.453125 -1.96875 L 15.796875 -1.96875 L 15.796875 0 L 3.0625 0 L 3.0625 -20.296875 L 15.578125 -20.296875 L 15.578125 -18.3125 L 5.453125 -18.3125 L 5.453125 -11.53125 L 14.375 -11.53125 L 14.375 -9.5625 Z M 5.453125 -9.5625 "/></g></g></g><path stroke-linecap="butt" transform="matrix(0.75, 0, 0, 0.75, 159.622949, 396.440655)" fill="none" stroke-linejoin="miter" d="M -0.00247327 2.001002 L 599.815265 2.001002 " stroke="#000000" stroke-width="4" stroke-opacity="1" stroke-miterlimit="4"/></svg>